<svg width="64" height="64" viewBox="0 0 64 64" fill="none" xmlns="http://www.w3.org/2000/svg">
<path d="M54.43 14.5618L54.4284 14.5288L53.892 14.3125L53.8587 14.4075L54.43 14.5618ZM42.011 12.1316C42.371 11.9219 42.6318 11.6247 42.9154 11.3597C42.5888 11.4588 42.2775 11.7411 42.011 12.1316ZM43.6232 10.7439L43.4777 10.9222L43.8499 10.6539L43.6232 10.7439ZM43.6492 11.3688C43.455 11.2731 43.3095 11.1468 43.4712 10.928L43.4777 10.9222L42.9154 11.3597C43.173 11.3086 43.4217 11.316 43.6492 11.3688ZM50.6335 32.6146C49.8559 32.4033 49.877 31.6777 49.9387 30.9323C50.4572 31.1675 50.7302 31.8535 50.6335 32.6146ZM41.8712 18.0702C41.8826 18.2147 41.8997 18.3575 41.92 18.4995L41.5186 18.8041C41.1505 18.0562 40.7905 17.0425 41.781 16.4456C41.7875 16.4514 41.5714 16.0494 41.5096 15.8414C41.6746 15.7093 41.8745 15.7266 42.0776 15.7662C41.9143 16.387 41.8444 16.9855 41.8493 17.565C41.7347 17.8052 41.5998 18.0586 41.4284 18.336C41.5698 18.0752 41.7412 17.9984 41.8712 18.0702ZM52.9096 11.9137C52.7251 11.8955 52.5196 11.7923 52.3782 11.6024C52.6366 11.557 52.7983 11.7147 52.9096 11.9137ZM53.6458 13.2245C53.7303 13.2163 53.7759 13.3508 53.8303 13.4565C53.6109 13.4672 53.3744 13.4813 53.3744 13.4813C53.3525 13.3905 53.3192 13.3153 53.2891 13.2353C53.4224 13.2212 53.5573 13.2163 53.6458 13.2245ZM55.8634 29.6437C54.6567 28.3584 53.8352 26.5951 52.8243 25.5946C51.3876 24.1318 49.1733 22.9869 48.1827 22.7103C49.1676 23.3633 50.9829 24.2878 52.5667 25.6565C53.6921 26.6323 50.8033 25.9842 49.9306 25.6095C49.4642 25.5517 49.7705 24.1739 49.2911 24.1079C48.5021 23.4822 47.8447 23.5457 47.1312 23.3443C46.7387 23.3385 47.5424 22.5337 47.353 22.5394C46.9215 22.2868 46.1187 22.3372 45.5596 22.2406C45.5418 22.1052 45.5344 21.969 45.5483 21.8336C45.749 20.3791 44.6983 19.1037 44.552 17.8151C44.8348 17.972 45.0501 17.9819 45.0184 17.7128C44.903 16.7973 44.8169 16.2748 45.1021 15.6771C45.1021 15.5937 45.1103 15.5095 45.1265 15.4245C45.5596 14.7872 46.1122 14.173 46.7915 13.719C47.1003 13.6885 47.3847 13.7892 47.6594 13.8709C47.4692 13.771 47.2628 13.6662 47.0434 13.5597C47.8057 13.1156 48.7117 12.8762 49.7787 13.0198C50.4239 13.0743 51.078 12.9142 51.7086 12.967C51.9507 13.0041 52.1815 13.1057 52.3985 13.2146C52.8446 13.7009 53.3143 14.0756 53.892 14.3125C53.9554 14.1491 54.0416 13.9848 54.0822 13.823C54.2049 13.8536 54.3284 13.8899 54.4511 13.9147C54.3235 13.8676 54.2049 13.8247 54.0887 13.7851C54.0984 13.733 54.105 13.681 54.1017 13.6299C54.2919 13.681 54.5015 13.6827 54.725 13.7198C54.8599 13.7141 54.7193 13.9625 54.7867 13.9592C55.1394 14.0847 55.5693 13.9072 55.744 14.0954L56.1251 14.4644L56.3794 14.6469L56.5915 14.6964C57.1075 14.8128 57.6682 15.025 58.1867 15.2404L58.194 15.2148C57.9153 15.0555 57.6755 14.8549 57.4968 14.5189C57.5805 14.6543 57.5236 14.7088 57.3789 14.6304L57.3489 14.4438C57.6333 14.5288 57.9104 14.637 58.0201 14.9597C58.0201 14.9597 58.1566 14.9771 58.2249 14.9862C58.2769 15.0712 58.2232 15.1413 58.194 15.2148L58.3622 15.3056C58.3362 15.1133 58.0899 14.7195 58.0899 14.7195C57.4187 14.2523 56.7695 13.8346 56.1316 13.4342C56.0536 13.4532 55.9869 13.4895 55.9374 13.4235L55.8301 13.2477L55.5506 13.0727L55.4392 13.0355L55.436 13.0363C55.3677 13.0347 55.3637 13.0826 55.3759 13.1379L55.2597 12.981L55.2012 12.9563L55.2312 12.9637C55.2393 12.9695 55.2507 12.9744 55.2597 12.981L55.3986 13.0231L55.4027 13.0248L55.4392 13.0355L55.4986 13.0396L54.8444 12.6632L54.6917 12.6162C54.5153 12.5716 54.3365 12.5278 54.2902 12.3528L54.1732 12.286L54.1854 12.3206L54.1505 12.2744L53.6345 12.0268C53.2924 11.874 52.9592 11.6825 52.5862 11.5636C50.2987 10.6267 47.6228 10.422 45.1801 11.912C43.9279 12.7078 42.8203 13.8338 42.2109 15.3081C42.1979 15.3436 42.1922 15.3791 42.1808 15.4146C41.5316 15.6441 40.7742 16.4564 40.8222 16.4952C40.4589 19.0558 41.2285 21.4613 42.4027 23.4508C42.6773 23.483 42.9487 23.4384 42.9617 23.7141C42.9106 23.9733 42.9333 24.1838 42.9853 24.3762L43.5915 25.1942L43.8881 25.4113H43.8979C44.0807 25.4592 44.1693 25.342 44.2213 25.1819C44.2327 25.2008 44.2473 25.219 44.2595 25.238C44.2725 25.4031 44.3123 25.5591 44.3976 25.6986C44.5187 25.7655 44.6325 25.8406 44.7438 25.9215C44.6487 25.8678 44.5471 25.8167 44.4455 25.7655C44.4293 25.7432 44.4106 25.7226 44.3976 25.6986L43.8881 25.4113L43.7061 25.3519C44.1725 25.9842 44.7665 26.4804 45.2996 27.0615C45.4483 27.154 45.5962 27.2572 45.7165 27.3026C46.2122 27.5122 46.72 27.7368 46.6233 28.3683L46.8996 28.6407L46.9053 28.5152L46.9484 28.6877L48.0478 29.902C48.7564 30.6953 49.4016 31.5596 50.0135 32.4487C51.9052 35.3313 53.363 38.417 53.5004 41.3393C53.6718 44.3449 51.802 46.0166 49.6876 45.0978C47.0865 43.9512 44.6999 40.6649 42.9853 37.5643C41.573 34.9805 40.0161 32.5833 38.5477 30.1117L38.5843 30.1381C38.5843 30.1381 34.0849 16.9071 25.8922 15.9734C24.4182 15.805 23.0766 15.7225 21.8463 15.7126C21.8796 15.2198 21.5724 14.8078 21.3027 14.4116L21.3644 14.6361C21.5115 14.8788 21.5594 14.8945 21.453 14.6584C21.6545 14.9969 21.7309 15.3527 21.7926 15.7118C18.5073 15.6903 16.0581 16.2021 14.1981 17.0969C13.9779 16.9987 13.7479 16.9186 13.5122 16.8609C10.2318 15.8678 11.4482 13.1362 11.4482 13.1362C2.05862 21.5893 1.33622 27.5081 1.92373 30.5484C2.05375 31.4383 2.34872 32.2225 2.81678 32.8433C2.84684 32.8846 2.86471 32.9085 2.86471 32.9085L2.86797 32.9035C3.08738 33.1826 3.33441 33.4335 3.62613 33.6391C6.23133 35.4882 10.7526 33.4938 13.8267 29.1888C17.4485 30.588 17.9856 27.7128 22.1721 28.7587C18.9949 28.1817 24.1784 25.2586 25.3811 28.767C25.7395 31.1915 25.6907 31.4284 26.9283 32.8953C28.4267 34.9054 30.75 37.6221 31.9867 40.2851C32.6344 41.6827 33.755 42.8648 34.8609 44.368C37.7001 48.3733 40.2046 52.7328 48.6784 54.69C53.3257 55.5907 59.1805 52.4183 60.8894 47.7955C62.7575 43.2759 61.9734 39.567 61.1884 36.4094C60.0849 33.0736 57.7235 31.2435 55.8634 29.6437ZM62.0798 18.2204L62.0676 18.2427L62.2261 18.355L62.2277 18.3459L62.0798 18.2204ZM62.1562 18.0017C62.0912 17.9769 61.9612 17.929 61.9612 17.9299C61.9214 17.5766 61.6434 17.4371 61.385 17.2893L61.3802 17.4825C61.5102 17.5865 61.5785 17.5435 61.5167 17.395C61.6435 17.7524 61.8434 17.9967 62.0798 18.2204C62.1229 18.1544 62.1911 18.0974 62.1562 18.0017ZM59.2991 15.2817L59.5583 15.4649C59.499 15.3931 59.4161 15.3296 59.2991 15.2817ZM59.7282 15.5483L59.7298 15.5491L59.5583 15.4649L59.6502 15.6375C59.6453 15.5805 59.6575 15.5351 59.7282 15.5483ZM59.7875 15.5615L59.7298 15.5491L59.8354 15.6036L59.7875 15.5615ZM43.8808 11.4629L44.1741 11.5818C44.1156 11.5447 44.0027 11.5067 43.8808 11.4629ZM46.3324 10.2131C45.9107 10.2305 45.4751 10.3056 45.0436 10.3584C45.2768 10.3972 45.5125 10.4855 45.7425 10.6482C46.0212 10.7398 46.1341 10.4393 46.3324 10.2131ZM60.3482 16.0676L60.0816 15.8282L60.1564 16.0222C60.1962 16.0964 60.2669 16.0733 60.3482 16.0676ZM57.9104 15.3807C57.6317 15.2825 56.8377 15.1925 57.192 15.4195C57.7316 15.7456 58.1152 15.914 58.593 16.2244C59.0326 16.4077 59.46 16.5893 59.8915 16.8155L60.1678 17.087L59.8533 16.6504C59.7087 16.4349 59.2585 16.5191 58.9188 16.3408C58.8522 16.3309 59.0342 16.1121 58.9009 16.0898C58.6279 15.9817 58.3614 15.9388 58.1533 15.7803C58.0201 15.7638 58.0453 15.3973 57.9104 15.3807ZM19.3297 12.5633C19.1631 12.4411 18.9664 12.3776 18.7836 12.286L19.0452 12.4502L19.3297 12.5633ZM18.0498 12.0218L18.2172 12.1374C18.1871 12.1151 18.1043 12.0548 18.0498 12.0218ZM17.7727 11.8938C17.6297 11.8369 17.4599 11.7799 17.2583 11.7279L17.7727 11.8938ZM18.1709 12.0036L18.0807 11.9805L18.2676 12.049L18.1709 12.0036ZM22.3688 11.3251C21.9373 10.824 22.81 11.5587 22.9961 11.978C23.0067 12.0119 23.0164 12.054 23.027 12.0961C22.9466 12.0391 22.8685 11.9962 22.7913 11.95C22.6873 11.7461 22.5565 11.5389 22.3688 11.3251ZM23.1001 12.8234C23.0717 12.8745 23.0449 12.9249 23.0481 12.9637L23.0449 12.9364C23.0335 12.8745 23.0319 12.8118 23.0319 12.7499C23.0563 12.773 23.0766 12.7994 23.1001 12.8234ZM16.8407 11.4101C17.3851 11.3201 17.9125 11.1261 18.4935 11.2235C18.244 11.2013 18.2725 11.1682 18.5577 11.1559L18.7771 11.2112C18.2806 11.2219 17.8077 11.3333 17.3396 11.3573C17.3396 11.3573 17.1364 11.4258 17.0365 11.4588C16.8805 11.4728 16.8788 11.4349 16.8407 11.4101L16.5205 11.4836C16.7651 11.4951 17.485 11.4299 17.485 11.4299C18.8372 11.1559 20.191 11.2318 21.3709 11.6924C21.4684 11.7065 21.5448 11.7073 21.661 11.7667L21.9178 11.9219L22.3867 12.2174L22.5573 12.3132L22.5622 12.314C22.6581 12.3594 22.6434 12.3289 22.5988 12.2802L22.8117 12.4973C22.858 12.5369 22.9067 12.5757 22.9563 12.6153C22.9254 12.5881 22.8897 12.5617 22.8547 12.5353C22.8401 12.5229 22.8238 12.5105 22.8117 12.4973L22.7385 12.4445L22.6118 12.3429L22.6686 12.3933L22.5573 12.3132L22.4736 12.2736C22.6638 12.409 22.8417 12.5617 23.0083 12.7235C23.0099 12.8035 23.0099 12.8828 23.0294 12.9604L23.0449 13.1007V13.1081C23.1164 13.0809 23.2017 13.0495 23.0579 13.0776L23.0481 12.9703C23.0563 13.0173 23.118 13.0446 23.2878 13.0289C23.3008 13.0438 23.3147 13.0561 23.326 13.0702C23.1895 13.1015 23.0985 13.1214 23.0481 13.1313L23.0498 13.1362C23.153 13.1123 23.2431 13.0908 23.326 13.071C23.3447 13.0933 23.3691 13.1131 23.3862 13.1362C23.4341 13.2782 23.738 13.1478 23.5926 13.0611C23.5909 13.0438 23.5893 13.0264 23.5877 13.0083C23.5877 12.9992 23.5861 12.9909 23.5861 12.9818C23.6543 12.9678 23.7323 12.9497 23.8177 12.929C23.7323 12.8316 23.6494 12.7441 23.5658 12.6599C23.5609 12.4915 23.556 12.3388 23.5349 12.2265L23.4642 11.9979L23.469 12.0449L23.4512 11.9574C23.3813 11.6214 23.1562 11.3581 22.9961 11.0659C22.6467 10.5986 22.2087 10.2049 21.726 9.86065C21.8723 9.98695 22.0324 10.1768 22.0828 10.2239C21.9592 10.1917 21.5944 9.81112 21.4766 9.77727C21.5115 9.71041 21.6049 9.75994 21.7073 9.84496C21.6529 9.80782 21.6082 9.76324 21.5562 9.72774C22.832 10.1091 25.2096 10.9759 26.3018 12.5922C26.5829 12.9001 26.8227 13.2477 27.051 13.6001C27.0364 13.686 27.0242 13.7727 27.0047 13.8585L26.9892 13.9559C27.4524 13.9138 26.3132 14.0203 27.2631 13.9328L27.3793 14.1309C27.5889 14.1326 27.0315 14.3547 27.8717 14.1763L27.9124 13.9741C27.9172 13.9402 27.9254 13.9064 27.9335 13.8717C28.0375 13.8618 28.1399 13.8527 28.2618 13.8412L28.2601 13.8379L28.2553 13.8296L28.2472 13.8148L28.2301 13.7842L28.1984 13.7231L28.0651 13.497L28.0188 13.4251C28.0318 13.3368 28.0399 13.2477 28.0334 13.1552C28.0708 12.6673 27.9757 12.1704 27.801 11.6999C28.4966 12.2769 29.0841 12.9984 29.6074 13.7322C29.9138 13.8874 29.9089 14.2118 30.0284 14.4694C29.9674 14.471 29.9374 14.4719 30.0284 14.4702C30.1438 14.7187 30.3745 14.9036 31.1205 14.8054C31.1741 14.6832 31.2091 14.5627 31.244 14.4422C31.2822 14.4413 31.3123 14.4405 31.3521 14.4397L31.344 14.4256L31.3277 14.3984L31.2944 14.3431L31.2838 14.3233C31.3992 13.8635 31.4041 13.4144 31.4106 12.9761C31.409 12.768 31.3919 12.5675 31.3773 12.366C31.5618 12.4387 31.7324 12.5187 31.7633 12.6913C32.5401 13.3839 33.2926 14.0996 33.9183 14.9259C35.2055 16.5422 36.17 18.4417 36.6958 20.564C37.172 22.1655 37.6798 25.252 37.6254 26.8741C37.7465 29.0179 38.2682 27.9696 38.3259 27.8523C38.7687 26.5332 38.646 25.4501 38.399 22.835C38.4924 24.0311 37.9033 21.0453 37.5051 19.3514C37.0371 16.6314 34.5708 13.4004 31.9583 11.3829L31.4642 10.9833L31.2091 10.7819L31.1928 10.7687L31.1863 10.7621L31.1806 10.7596C32.1184 10.1133 29.9016 11.6379 30.13 11.4819V11.4844L30.1373 11.5174L30.1503 11.5868L30.1755 11.7354C30.2332 12.0911 30.2852 12.4742 30.3014 12.8646L30.2933 12.8522C29.5124 11.8534 28.6681 10.8661 27.3728 10.2082L27.2558 10.1446L27.1965 10.1133L27.1891 10.1091L27.1859 10.1075C27.8384 8.98562 26.2937 11.6338 26.4521 11.3614L26.4602 11.368L26.5553 11.4662L26.7528 11.7362C26.765 11.7552 26.7731 11.7775 26.7853 11.7973C26.4602 11.4415 26.1173 11.0981 25.7386 10.7769C24.5466 9.89615 23.2635 9.3216 21.9942 9.33398L21.6529 9.29105L21.4798 9.26712L21.3945 9.25473L21.3514 9.24896L21.34 9.24731H21.3384C21.2295 9.68069 21.5846 8.2757 21.0914 10.2206L21.0946 10.2214L21.0979 10.2239L21.1117 10.2313L21.5724 10.5607C21.869 10.8001 22.1274 11.0576 22.3119 11.2929C22.4939 11.496 22.6321 11.7073 22.7418 11.9194C22.2705 11.6528 21.8414 11.5405 21.5082 11.4027C21.1995 11.2557 20.9167 11.1294 20.6233 11.0799L20.0577 10.9718L19.6799 10.9371C18.7616 10.9858 17.7378 11.1022 16.8252 11.4027L16.8407 11.4101ZM18.0774 11.9789L18.0807 11.9805L17.7727 11.8938L18.0498 12.0218C17.9929 11.9847 17.971 11.9582 18.0774 11.9789ZM16.4522 12.0457L17.1169 12.2009C17.8775 12.3941 18.617 12.6071 19.3297 12.9909L19.8757 13.3467L19.1566 12.8316C18.799 12.6096 18.2773 12.5237 17.6598 12.3363C17.5614 12.3173 17.6199 12.2108 17.4184 12.1712C17.0341 11.7725 16.3645 12.6153 16.2873 11.3127C16.4937 11.2442 16.8537 11.3077 17.0536 11.2401C17.5249 11.0634 18.8023 10.7769 18.0392 10.8554C17.4761 10.9742 17.0137 11.0799 16.566 11.1823L16.2328 11.2599C16.1581 12.7408 16.3872 11.699 16.4522 12.0457ZM23.8323 12.8035L23.5641 12.5204L23.8445 12.8374L23.8875 12.896C23.8924 12.8943 23.894 12.8935 23.9005 12.8919L23.8323 12.8035ZM23.8973 12.91L23.9103 12.9274C24.072 12.8844 23.9786 12.8985 23.8973 12.91ZM23.9103 12.9274C23.8461 12.9447 23.7461 12.9695 23.5877 13.0083C23.6828 12.9852 23.7876 12.9604 23.9111 12.9298L23.9103 12.9274ZM23.8973 12.91L23.8875 12.896C23.7827 12.9249 23.8339 12.9191 23.8973 12.91ZM23.0481 13.1313L23.0449 13.1081C22.988 13.1313 22.9417 13.1511 23.0481 13.1313Z" fill="#403F41"/>
</svg>
