<svg width="86" height="35" viewBox="0 0 86 35" fill="#403F41" xmlns="http://www.w3.org/2000/svg"><path d="M4 13.8351H4.6095V16.9441C4.6095 18.0071 4.92745 18.2764 5.5036 18.2764C6.07975 18.2764 6.39803 18.0071 6.39803 16.9441V13.8351H7.0072V16.917C7.0072 18.263 6.51723 18.7947 5.5036 18.7947C4.48997 18.7947 4 18.263 4 16.917V13.8351Z"/><path d="M12.178 13.8351V18.6937H11.344L9.45539 14.4811H9.44218V18.6937H8.89905V13.8351H9.76046L11.6216 17.994H11.6348V13.8351H12.178Z"/><path d="M14.7618 13.8351H14.1523V18.694H14.7618V13.8351Z"/><path d="M18.379 18.6937H17.6503L16.2659 13.8351H16.9279L18.0211 18.1081H18.0343L19.1539 13.8351H19.7766L18.379 18.6937Z"/><path d="M21.1893 18.6937V13.8351H23.6537V14.3734H21.7988V15.9345H23.5213V16.4729H21.7988V18.155H23.6933V18.6937H21.1893Z"/><path d="M25.8915 15.9214H26.8064C27.2429 15.9214 27.4548 15.5377 27.4548 15.1137C27.4548 14.7639 27.2828 14.3738 26.8127 14.3738H25.8915V15.9214ZM25.8915 16.4598V18.694H25.282V13.8351H26.9318C27.7797 13.8351 28.0779 14.4409 28.0779 15.0466C28.0779 15.6185 27.7665 16.0559 27.2036 16.1569V16.1703C27.753 16.2579 27.9517 16.4464 27.9848 17.4221C27.9914 17.6307 28.0581 18.3915 28.1505 18.694H27.5149C27.3429 18.3576 27.3825 17.725 27.3294 17.0786C27.2828 16.4869 26.8127 16.4598 26.6073 16.4598H25.8915Z"/><path d="M30.2482 17.2484V17.3896C30.2482 18.0494 30.659 18.2577 31.0499 18.2577C31.5336 18.2577 31.9047 18.0494 31.9047 17.4708C31.9047 16.3941 29.7582 16.5152 29.7582 15.0547C29.7582 14.1934 30.3611 13.7358 31.1628 13.7358C32.0371 13.7358 32.5271 14.1665 32.4874 15.1557H31.8512C31.8581 14.624 31.6924 14.2742 31.1162 14.2742C30.7517 14.2742 30.3806 14.4624 30.3806 14.9873C30.3806 16.0576 32.5271 15.9027 32.5271 17.4433C32.5271 18.4667 31.8317 18.7964 31.0433 18.7964C29.6325 18.8098 29.6325 17.7126 29.6457 17.2484H30.2482Z"/><path d="M34.9442 13.8351H34.3347V18.694H34.9442V13.8351Z"/><path d="M39.575 13.8351V14.3734H38.316V18.6937H37.7069V14.3734H36.4482V13.8351H39.575Z"/><path d="M42.9008 12.3706L42.0331 13.3195H41.589L42.1787 12.3706H42.9008ZM40.993 18.6897V13.831H43.4574V14.3691H41.6022V15.9305H43.3247V16.4688H41.6022V18.151H43.4971V18.6897H40.993Z"/><path d="M47.9919 18.155H48.5681C49.4163 18.155 49.7273 17.8323 49.7273 16.7016V15.7192C49.7273 14.7367 49.4298 14.3734 48.7933 14.3734H47.9919V18.155ZM47.3824 13.8351H48.853C49.4625 13.8351 49.8997 14.0571 50.1381 14.5754C50.3302 14.9856 50.3504 15.9546 50.3504 16.1096C50.3504 17.1461 50.2576 17.7448 50.0588 18.0681C49.8003 18.4851 49.3169 18.6937 48.4822 18.6937H47.3824V13.8351Z"/><path d="M52.2081 18.6937V13.8351H54.6722V14.3734H52.8176V15.9345H54.5398V16.4729H52.8176V18.155H54.7121V18.6937H52.2081Z"/><path d="M15.6113 25.5585H16.6276C18.3224 25.5585 18.8067 24.6733 18.7906 23.7391C18.7744 22.6899 18.1613 22.0506 16.6276 22.0506H15.6113V25.5585ZM16.8056 20.6737C19.0322 20.6737 20.42 21.8702 20.42 23.8049C20.42 25.1 19.7586 26.0667 18.5802 26.5423C19.581 27.2148 20.1938 28.2476 21.0334 29.6409C21.5016 30.4114 21.7756 30.7881 22.534 31.8544H20.6458L19.1937 29.5588C17.7413 27.2634 17.0796 27.0015 16.273 27.0015H15.6113V31.8544H14.0302V20.6737H16.8056Z"/><path d="M29.9885 22.1164H25.3245V25.4934H29.8274V26.9364H25.3245V30.4117H30.1331V31.8544H23.7427V20.6737H29.9885V22.1164Z"/><path d="M42.0044 31.8544H40.6491L33.2902 23.2474V31.8544H31.8058V20.6737H33.0641L40.52 29.3297V20.6737H42.0044V31.8544Z"/><path d="M54.6002 31.8544H53.2448L45.8859 23.2474V31.8544H44.4015V20.6737H45.6604L53.1157 29.3297V20.6737H54.6002V31.8544Z"/><path d="M63.2665 22.1164H58.6028V25.4934H63.1053V26.9364H58.6028V30.4117H63.4114V31.8544H57.0216V20.6737H63.2665V22.1164Z"/><path d="M70.3157 23.131C69.38 22.2297 68.4766 21.9671 67.7344 21.9671C66.7175 21.9671 65.9914 22.5081 65.9914 23.295C65.9914 25.4428 70.7518 25.4099 70.7518 28.9671C70.7518 30.7213 69.4447 32 67.67 32C66.4755 32 65.5071 31.6723 64.5875 30.9672V28.9345C65.3941 29.9837 66.4111 30.5576 67.4921 30.5576C68.7183 30.5576 69.2832 29.7707 69.2832 29.1479C69.2832 26.8361 64.5228 26.5738 64.5228 23.5084C64.5228 21.6887 65.8462 20.5248 67.8635 20.5248C68.7025 20.5248 69.5418 20.7871 70.3157 21.3117V23.131Z"/><path d="M82.0037 19.2407L81.9955 19.235V18.8245H81.3114L81.2377 19.0549C80.7187 19.7422 78.9731 21.8228 76.1534 22.8925L76.3832 23.5928C77.2562 23.247 78.0054 22.8506 78.6542 22.4423V31.6102H81.9955V19.2545C81.9975 19.2508 82.0031 19.2424 82.0037 19.2407Z"/><path d="M65.24 15.5864L65.274 15.5898L65.2744 15.5871L65.244 15.5794L65.24 15.5864ZM65.2212 15.5267C65.2172 15.4492 65.1614 15.4479 65.1076 15.4482L65.1027 15.4979C65.1291 15.5059 65.1446 15.4855 65.1337 15.4566C65.1535 15.5307 65.1925 15.5623 65.244 15.5794C65.2542 15.5566 65.2704 15.5328 65.2638 15.515L65.2212 15.5267ZM64.8782 15.2731C64.8848 15.2889 64.8996 15.2735 64.9155 15.2617L64.8666 15.2299L64.8782 15.2731ZM64.6299 15.517C64.6176 15.522 64.6569 15.4388 64.6325 15.4486C64.584 15.4479 64.5305 15.4801 64.4932 15.4657C64.4681 15.4791 64.4767 15.3744 64.4519 15.3879C64.3997 15.3976 64.2551 15.4794 64.3185 15.4949C64.4139 15.5136 64.4843 15.5076 64.5724 15.5234H64.8085L64.8577 15.5599L64.8045 15.4831C64.7814 15.4415 64.69 15.5257 64.6299 15.517ZM64.8002 15.1967H64.8009L64.7692 15.1936L64.7841 15.2312L64.8002 15.1967ZM64.8125 15.1936L64.8009 15.1967L64.8204 15.1993L64.8125 15.1936ZM65.6798 13.7406C65.6177 13.7191 65.5785 13.649 65.588 13.5434C65.6947 13.5417 65.7003 13.6356 65.6798 13.7406ZM63.5756 14.937C63.5453 14.9488 63.5106 14.926 63.4855 14.8763C63.5268 14.8438 63.5545 14.8867 63.5756 14.937ZM66.7879 15.4985C66.7172 15.4187 66.6865 15.3178 66.706 15.1705C66.7024 15.2309 66.6594 15.2527 66.6195 15.2144L66.6664 15.1316C66.7631 15.1796 66.8552 15.2352 66.7955 15.3811C66.7955 15.3811 66.8489 15.3952 66.8754 15.4023C66.8704 15.4409 66.8245 15.4684 66.7879 15.4985L66.8321 15.5448C66.8823 15.4627 66.9031 15.2815 66.9031 15.2812C66.7555 15.0511 66.604 14.8435 66.4729 14.6271C66.4343 14.6328 66.3956 14.6466 66.395 14.6144L66.4045 14.5302L66.3415 14.4399L66.3061 14.4185H66.3052C66.2768 14.4155 66.2603 14.4373 66.249 14.4631L66.2484 14.3863L66.2345 14.3708C66.2371 14.3725 66.2401 14.3745 66.2434 14.3762C66.2447 14.3799 66.248 14.3829 66.2484 14.3863L66.2933 14.4111L66.2949 14.4124V14.4121L66.3061 14.4185L66.3299 14.4225L66.1873 14.2122L66.1434 14.1813C66.0886 14.1491 66.0291 14.123 66.0641 14.0381L66.0364 14.0022L66.0308 14.019V13.9958L65.9146 13.8422C65.8357 13.7443 65.765 13.6349 65.6735 13.5413C65.1271 12.893 64.4744 12.4405 63.6318 12.0604C63.1672 11.8689 62.669 11.6821 62.0512 11.7529C60.7497 12.092 60.266 13.1949 60.1861 14.655C60.1759 15.1695 60.6123 15.7585 60.9405 16.0755C60.9131 16.1902 60.8854 16.2982 60.8478 16.3867C60.7748 16.5789 60.8702 17.013 61.1406 17.3102C61.7518 17.5782 61.5926 16.9583 61.6279 16.9858C61.761 16.6772 61.621 16.7661 61.7455 16.4904C61.6669 16.6631 61.5058 16.4149 61.732 16.2432C62.0641 15.9598 61.8227 15.7857 61.9743 15.7602C62.0195 15.7551 62.0337 15.7216 62.0648 15.6934C62.3464 15.675 62.6412 15.4244 63.0784 15.4754C63.188 15.4791 63.2907 15.3832 63.393 15.3513C63.466 15.3486 63.5357 15.4066 63.5925 15.4164C63.6826 15.4311 63.7658 15.4123 63.8497 15.3855C63.7615 15.3879 63.6961 15.4019 63.6014 15.3996C63.5383 15.3942 63.6625 15.2899 63.7103 15.2718C63.7328 15.2547 63.742 15.36 63.7638 15.3426C63.8021 15.3489 63.8464 15.3147 63.8956 15.2963C63.918 15.2792 63.8956 15.3691 63.9065 15.3604C63.9689 15.3456 64.0399 15.2544 64.0702 15.2889L64.1339 15.3553L64.1785 15.3765L64.2155 15.3647L64.5054 15.3124L64.5067 15.3043C64.4559 15.2966 64.4126 15.2731 64.3799 15.203C64.3948 15.2299 64.3842 15.253 64.3578 15.2497L64.3529 15.1997C64.405 15.1896 64.4585 15.1806 64.4757 15.2567C64.4757 15.2567 64.5014 15.2433 64.5146 15.2369C64.5242 15.2533 64.5133 15.2802 64.5067 15.3043L64.5384 15.307C64.5351 15.258 64.4909 15.1806 64.4902 15.1806L64.1373 15.0501C64.1237 15.0642 64.1122 15.0823 64.1029 15.0682L64.0844 15.0269L64.0352 15.0058L64.0154 15.0095L64.0148 15.0102L64.0045 15.0471L63.9831 15.0169L64.0082 15.0112H64.0085L64.0154 15.0095L64.0257 15.0031L63.9091 14.9696L63.8824 14.9726C63.851 14.9796 63.8206 14.987 63.811 14.9401L63.7902 14.9334L63.7922 14.9424L63.7863 14.9323L63.6975 14.9048L63.5195 14.8505C63.123 14.7502 62.7423 14.7556 62.3058 14.8079C62.1833 14.8193 62.0601 14.8428 61.9343 14.874C61.8931 14.7791 61.863 14.6623 61.8937 14.4621C61.8736 14.8498 61.3773 14.4074 61.7795 14.0774C62.3375 13.86 62.004 13.5316 62.3652 13.3636C62.4072 13.3518 62.4491 13.3475 62.4946 13.3186C62.7915 13.4347 63.6067 13.4028 64.2759 13.9643C64.4592 14.0931 64.7157 14.0935 64.9227 14.1676C65.0561 14.2404 65.1129 14.4124 65.1935 14.5013C65.3245 14.6368 65.4863 14.7063 65.6405 14.7834C65.5068 14.6633 65.378 14.609 65.2252 14.4862C65.1271 14.3994 65.4437 14.393 65.5425 14.4252C65.5973 14.4265 65.4999 14.601 65.554 14.601C65.6095 14.6607 65.7125 14.6694 65.8076 14.7059C65.8611 14.71 65.7274 14.8193 65.7544 14.8213C65.8598 14.8877 66.0919 14.8207 66.1067 14.9119L66.1411 15.0954L66.1912 15.1839L66.2645 15.2131C66.4425 15.2842 66.6264 15.3902 66.7766 15.5089L66.7879 15.4985ZM67.3706 15.7132L67.4003 15.7424L67.3917 15.7223L67.3706 15.7132ZM67.3062 15.7447C67.3227 15.7209 67.3435 15.7028 67.37 15.7125L67.3706 15.7132L67.3227 15.6673L67.3062 15.7447ZM67.263 15.578L67.3227 15.6673C67.3204 15.6337 67.301 15.6035 67.263 15.578ZM67.4132 15.9306C67.4069 15.9631 67.4472 15.9581 67.4865 15.9611L67.4416 15.8481L67.4132 15.9306ZM66.7509 15.9916C66.7258 15.9842 66.8793 15.9041 66.8252 15.8893C66.736 15.834 66.6297 15.8071 66.5865 15.735C66.5343 15.7226 66.6647 15.569 66.6122 15.5559C66.526 15.4985 66.2097 15.4382 66.2926 15.5442C66.4154 15.7021 66.5227 15.7907 66.6433 15.9312C66.7813 16.0228 66.9071 16.1194 67.0338 16.2301C67.0603 16.266 67.0662 16.3086 67.0738 16.3505L67.0702 16.1634C67.0764 16.0688 66.8381 16.0822 66.7509 15.9916ZM67.7331 16.8211C67.7077 16.808 67.6569 16.7819 67.6569 16.7819C67.7401 16.6534 67.6589 16.5766 67.5803 16.5045L67.5156 16.5769C67.5443 16.6249 67.5918 16.6138 67.6093 16.5531C67.5525 16.6977 67.5743 16.8007 67.6291 16.8956C67.6704 16.8741 67.7219 16.8584 67.7331 16.8211ZM67.6622 16.9543L67.6655 16.9503L67.6291 16.8956L67.6156 16.9033L67.6622 16.9543Z"/><path d="M76.8168 5.19616L76.8161 5.18274L76.5982 5.09486L76.5847 5.13344L76.8168 5.19616ZM71.7708 4.20867C71.9171 4.12347 72.023 4.00272 72.1383 3.89505C72.0055 3.9353 71.8791 4.05002 71.7708 4.20867ZM72.4258 3.64482L72.3667 3.71728L72.518 3.60826L72.4258 3.64482ZM72.4364 3.89874C72.3575 3.85983 72.2984 3.80851 72.3641 3.71962L72.3667 3.71728L72.1383 3.89505C72.2429 3.87425 72.344 3.87727 72.4364 3.89874ZM75.2742 12.5315C74.9583 12.4457 74.9668 12.1508 74.9919 11.848C75.2026 11.9436 75.3135 12.2223 75.2742 12.5315ZM71.714 6.62171C71.7186 6.68041 71.7256 6.73844 71.7338 6.79613L71.5707 6.91991C71.4211 6.61601 71.2749 6.20411 71.6773 5.9616C71.68 5.96395 71.5922 5.80059 71.5671 5.71607C71.6341 5.6624 71.7153 5.66944 71.7979 5.68554C71.7315 5.93778 71.7031 6.18097 71.7051 6.41643C71.6585 6.51404 71.6037 6.61702 71.5341 6.72972C71.5915 6.62373 71.6612 6.59253 71.714 6.62171ZM76.199 4.12012C76.1241 4.11274 76.0406 4.07081 75.9831 3.99367C76.0881 3.97522 76.1538 4.03928 76.199 4.12012ZM76.4982 4.65277C76.5325 4.64942 76.551 4.70409 76.5731 4.74703C76.484 4.75139 76.3879 4.75709 76.3879 4.75709C76.379 4.72019 76.3655 4.68967 76.3532 4.65713C76.4074 4.65143 76.4622 4.64942 76.4982 4.65277ZM77.3992 11.3244C76.9089 10.8021 76.5751 10.0856 76.1644 9.6791C75.5806 9.08473 74.6809 8.6195 74.2784 8.50713C74.6786 8.77245 75.4162 9.14813 76.0597 9.70426C76.517 10.1007 75.3432 9.83742 74.9886 9.68514C74.7991 9.66166 74.9236 9.10184 74.7288 9.075C74.4082 8.82075 74.1411 8.84658 73.8512 8.76474C73.6917 8.76239 74.0183 8.43535 73.9413 8.4377C73.766 8.33506 73.4398 8.35552 73.2126 8.31627C73.2054 8.26127 73.2024 8.20592 73.208 8.15091C73.2896 7.55989 72.8627 7.04166 72.8032 6.51807C72.9181 6.5818 73.0056 6.58582 72.9927 6.47647C72.9459 6.10449 72.9109 5.89217 73.0268 5.64932C73.0268 5.61544 73.0301 5.58123 73.0367 5.54668C73.2126 5.28773 73.4372 5.03818 73.7132 4.85369C73.8386 4.84128 73.9542 4.8822 74.0658 4.91541C73.9885 4.87482 73.9047 4.83223 73.8155 4.78896C74.1252 4.6085 74.4934 4.51123 74.9269 4.56959C75.189 4.59173 75.4548 4.52665 75.711 4.54812C75.8094 4.56322 75.9032 4.60447 75.9914 4.64875C76.1726 4.84631 76.3635 4.9986 76.5982 5.09486C76.624 5.02845 76.659 4.9617 76.6755 4.89596C76.7253 4.90837 76.7755 4.92313 76.8254 4.93319C76.7735 4.91407 76.7253 4.89663 76.6781 4.88053C76.6821 4.85939 76.6847 4.83826 76.6834 4.81747C76.7607 4.83826 76.8458 4.83893 76.9366 4.85403C76.9915 4.85168 76.9343 4.95264 76.9617 4.9513C77.105 5.00229 77.2797 4.93017 77.3507 5.00665L77.5055 5.15658L77.6089 5.23071L77.695 5.25083C77.9047 5.29813 78.1325 5.38433 78.3432 5.47188L78.3462 5.46148C78.2329 5.39674 78.1355 5.31524 78.0629 5.17872C78.0969 5.23373 78.0738 5.25587 78.015 5.224L78.0028 5.14819C78.1183 5.18274 78.2309 5.22668 78.2755 5.35783C78.2755 5.35783 78.331 5.36488 78.3587 5.36857C78.3798 5.40312 78.358 5.43163 78.3462 5.46148L78.4145 5.49838C78.4039 5.42022 78.3039 5.26023 78.3039 5.26023C78.0312 5.07038 77.7674 4.90065 77.5082 4.73797C77.4765 4.74569 77.4494 4.76044 77.4293 4.73361L77.3857 4.66217L77.2721 4.59106L77.2269 4.57596L77.2255 4.5763C77.1978 4.57563 77.1962 4.59508 77.2011 4.61755L77.1539 4.55382L77.1301 4.54376L77.1423 4.54678C77.1456 4.54913 77.1503 4.55114 77.1539 4.55382L77.2104 4.57093L77.212 4.5716L77.2269 4.57596L77.251 4.57764L76.9852 4.42469L76.9231 4.40557C76.8515 4.38745 76.7788 4.36968 76.76 4.29857L76.7125 4.2714L76.7174 4.28548L76.7032 4.2667L76.4936 4.16607C76.3546 4.10402 76.2192 4.0262 76.0676 3.9779C75.1382 3.59719 74.0509 3.51401 73.0585 4.11945C72.5497 4.4428 72.0996 4.90032 71.852 5.49938C71.8467 5.51381 71.8444 5.52823 71.8398 5.54265C71.576 5.6359 71.2683 5.96596 71.2877 5.98172C71.1402 7.02221 71.4528 7.99963 71.9299 8.80801C72.0415 8.82109 72.1518 8.80298 72.1571 8.91501C72.1363 9.02033 72.1455 9.10586 72.1667 9.18402L72.413 9.51642L72.5335 9.60464H72.5374C72.6117 9.62409 72.6477 9.57646 72.6689 9.51139C72.6735 9.51911 72.6794 9.52649 72.6844 9.5342C72.6897 9.60128 72.7058 9.66468 72.7405 9.72137C72.7897 9.74854 72.8359 9.77906 72.8812 9.81193C72.8425 9.79013 72.8012 9.76933 72.76 9.74854C72.7534 9.73948 72.7458 9.73109 72.7405 9.72137L72.5335 9.60464L72.4595 9.58049C72.649 9.83742 72.8904 10.039 73.107 10.2752C73.1674 10.3127 73.2275 10.3546 73.2764 10.3731C73.4778 10.4583 73.6841 10.5495 73.6448 10.8061L73.7571 10.9168L73.7594 10.8658L73.7769 10.9359L74.2236 11.4293C74.5115 11.7517 74.7737 12.1029 75.0223 12.4641C75.791 13.6354 76.3833 14.8892 76.4391 16.0766C76.5087 17.2979 75.749 17.9772 74.8899 17.6038C73.833 17.1379 72.8633 15.8026 72.1667 14.5428C71.5928 13.4929 70.9602 12.5188 70.3636 11.5145L70.3785 11.5253C70.3785 11.5253 68.5503 6.1491 65.2215 5.76974C64.6226 5.70131 64.0775 5.66777 63.5776 5.66374C63.5911 5.46349 63.4663 5.29612 63.3567 5.13511L63.3818 5.22635C63.4416 5.32496 63.461 5.33134 63.4178 5.23541C63.4997 5.37293 63.5307 5.5175 63.5558 5.66341C62.2209 5.65468 61.2258 5.86265 60.47 6.22625C60.3805 6.18633 60.2871 6.1538 60.1914 6.13032C58.8584 5.7268 59.3527 4.61688 59.3527 4.61688C55.5376 8.05163 55.2441 10.4566 55.4828 11.692C55.5356 12.0536 55.6555 12.3722 55.8456 12.6245C55.8579 12.6412 55.8651 12.651 55.8651 12.651L55.8664 12.6489C55.9556 12.7623 56.056 12.8643 56.1745 12.9478C57.233 13.6992 59.0701 12.8888 60.3191 11.1395C61.7907 11.7081 62.0089 10.5398 63.71 10.9648C62.419 10.7303 64.5252 9.54259 65.0138 10.9681C65.1594 11.9533 65.1396 12.0495 65.6425 12.6456C66.2513 13.4624 67.1953 14.5662 67.6978 15.6483C67.9609 16.2162 68.4162 16.6965 68.8656 17.3073C70.0192 18.9348 71.0368 20.7062 74.4798 21.5015C76.3681 21.8674 78.747 20.5784 79.4413 18.7C80.2004 16.8636 79.8818 15.3565 79.5628 14.0735C79.1145 12.718 78.155 11.9744 77.3992 11.3244ZM79.925 6.68276L79.9201 6.69182L79.9845 6.73743L79.9851 6.73374L79.925 6.68276ZM79.9561 6.59387C79.9296 6.58381 79.8768 6.56435 79.8768 6.56469C79.8606 6.42113 79.7477 6.36444 79.6427 6.3044L79.6408 6.38289C79.6936 6.42515 79.7213 6.40771 79.6962 6.34734C79.7477 6.49257 79.8289 6.59186 79.925 6.68276C79.9425 6.65593 79.9703 6.63278 79.9561 6.59387ZM78.7952 5.48865L78.9005 5.56311C78.8764 5.53393 78.8427 5.5081 78.7952 5.48865ZM78.9695 5.59699L78.9702 5.59733L78.9005 5.56311L78.9378 5.63322C78.9358 5.61007 78.9408 5.59163 78.9695 5.59699ZM78.9936 5.60236L78.9702 5.59733L79.0131 5.61947L78.9936 5.60236ZM72.5305 3.93698L72.6497 3.98528C72.6259 3.97019 72.58 3.95476 72.5305 3.93698ZM73.5266 3.42915C73.3553 3.43619 73.1783 3.46671 73.003 3.48818C73.0977 3.50395 73.1935 3.53984 73.2869 3.60592C73.4002 3.64315 73.4461 3.52105 73.5266 3.42915ZM79.2214 5.80797L79.1131 5.7107L79.1435 5.78953C79.1597 5.81971 79.1884 5.81032 79.2214 5.80797ZM78.2309 5.5289C78.1177 5.48899 77.7951 5.45242 77.9391 5.54467C78.1583 5.67716 78.3141 5.74559 78.5083 5.8717C78.6869 5.94617 78.8606 6.01996 79.0359 6.11187L79.1481 6.22222L79.0204 6.04478C78.9616 5.95724 78.7787 5.99145 78.6407 5.919C78.6136 5.91497 78.6875 5.82609 78.6334 5.81703C78.5225 5.77309 78.4142 5.75565 78.3296 5.69125C78.2755 5.68454 78.2857 5.53561 78.2309 5.5289ZM62.555 4.3841C62.4874 4.33446 62.4075 4.30863 62.3332 4.2714L62.4395 4.33815L62.555 4.3841ZM62.035 4.16406L62.103 4.21102C62.0908 4.20196 62.0571 4.17748 62.035 4.16406ZM61.9224 4.11207C61.8643 4.08893 61.7953 4.06578 61.7134 4.04465L61.9224 4.11207ZM62.0842 4.15668L62.0476 4.14729L62.1235 4.17513L62.0842 4.15668ZM63.7899 3.88096C63.6146 3.67736 63.9692 3.97589 64.0448 4.14628C64.0491 4.16004 64.053 4.17714 64.0573 4.19425C64.0246 4.17111 63.9929 4.15366 63.9616 4.13488C63.9193 4.05203 63.8662 3.96784 63.7899 3.88096ZM64.087 4.48976C64.0755 4.51055 64.0646 4.53101 64.0659 4.54678L64.0646 4.53571C64.06 4.51055 64.0593 4.48506 64.0593 4.45991C64.0692 4.4693 64.0775 4.48003 64.087 4.48976ZM61.5437 3.91551C61.7649 3.87895 61.9792 3.80013 62.2153 3.83971C62.1139 3.83065 62.1255 3.81723 62.2414 3.8122L62.3305 3.83467C62.1288 3.83903 61.9366 3.88432 61.7465 3.89404C61.7465 3.89404 61.6639 3.92189 61.6233 3.9353C61.5599 3.941 61.5592 3.92557 61.5437 3.91551L61.4136 3.94536C61.513 3.95006 61.8056 3.92356 61.8056 3.92356C62.355 3.8122 62.905 3.84306 63.3844 4.03023C63.4241 4.03593 63.4551 4.03626 63.5023 4.06041L63.6066 4.12347L63.7971 4.24356L63.8665 4.28247L63.8685 4.2828C63.9074 4.30125 63.9015 4.28884 63.8833 4.26905L63.9698 4.35727C63.9887 4.37337 64.0085 4.38913 64.0286 4.40523C64.0161 4.39416 64.0015 4.38343 63.9873 4.37269C63.9814 4.36766 63.9748 4.36263 63.9698 4.35727L63.9401 4.3358L63.8886 4.29454L63.9117 4.315L63.8665 4.28247L63.8325 4.26637C63.9097 4.32138 63.982 4.38343 64.0497 4.44917C64.0504 4.48171 64.0504 4.51391 64.0583 4.54544L64.0646 4.60246V4.60548C64.0936 4.59441 64.1283 4.58166 64.0699 4.59307L64.0659 4.54946C64.0692 4.56858 64.0943 4.57965 64.1633 4.57328C64.1686 4.57932 64.1742 4.58435 64.1788 4.59005C64.1234 4.6028 64.0864 4.61085 64.0659 4.61487L64.0666 4.61688C64.1085 4.60716 64.1452 4.59844 64.1788 4.59039C64.1864 4.59944 64.1963 4.60749 64.2033 4.61688C64.2227 4.67458 64.3462 4.62158 64.2871 4.58636C64.2865 4.57932 64.2858 4.57227 64.2851 4.56489C64.2851 4.5612 64.2845 4.55785 64.2845 4.55416C64.3122 4.54846 64.3439 4.54108 64.3786 4.53269C64.3439 4.49311 64.3102 4.45756 64.2762 4.42334C64.2742 4.35492 64.2723 4.29286 64.2637 4.24725L64.235 4.15433L64.2369 4.17345L64.2297 4.1379C64.2013 4.00138 64.1098 3.89438 64.0448 3.77564C63.9028 3.58579 63.7248 3.42579 63.5287 3.28592C63.5881 3.33724 63.6532 3.41439 63.6737 3.43351C63.6235 3.42043 63.4752 3.26579 63.4274 3.25204C63.4416 3.22487 63.4795 3.245 63.5211 3.27955C63.499 3.26445 63.4808 3.24634 63.4597 3.23192C63.9781 3.38688 64.9442 3.73908 65.3879 4.39584C65.5022 4.52095 65.5996 4.66217 65.6923 4.80539C65.6864 4.84028 65.6814 4.8755 65.6735 4.91038L65.6672 4.94996C65.8554 4.93285 65.3925 4.97612 65.7785 4.94057L65.8257 5.02107C65.9109 5.02174 65.6844 5.11197 66.0258 5.03952L66.0423 4.95734C66.0443 4.94359 66.0476 4.92983 66.0509 4.91575C66.0932 4.91172 66.1348 4.90803 66.1843 4.90334L66.1836 4.90199L66.1816 4.89864L66.1783 4.8926L66.1714 4.88019L66.1585 4.85537L66.1044 4.76346L66.0856 4.73428C66.0908 4.69839 66.0942 4.66217 66.0915 4.6246C66.1067 4.42636 66.0681 4.22444 65.9971 4.03325C66.2797 4.26771 66.5184 4.56087 66.7311 4.85906C66.8555 4.92212 66.8535 5.05394 66.9021 5.15859C66.8773 5.15926 66.8651 5.1596 66.9021 5.15893C66.949 5.25989 67.0427 5.33503 67.3458 5.29511C67.3676 5.24547 67.3818 5.1965 67.396 5.14752C67.4115 5.14719 67.4238 5.14685 67.4399 5.14652L67.4366 5.14082L67.43 5.12975L67.4165 5.10727L67.4122 5.09922C67.4591 4.91239 67.4611 4.72992 67.4637 4.55181C67.463 4.46728 67.4561 4.38578 67.4502 4.30393C67.5251 4.33345 67.5944 4.36599 67.607 4.43609C67.9226 4.71751 68.2284 5.00832 68.4826 5.34408C69.0056 6.00084 69.3975 6.77265 69.6111 7.63503C69.8046 8.28575 70.011 9.5399 69.9889 10.199C70.038 11.0701 70.25 10.6441 70.2735 10.5965C70.4534 10.0605 70.4035 9.6204 70.3032 8.55778C70.3411 9.04381 70.1018 7.83058 69.94 7.14229C69.7498 6.03707 68.7477 4.72422 67.6862 3.90444L67.4855 3.7421L67.3818 3.66025L67.3752 3.65489L67.3726 3.6522L67.3703 3.6512C67.7513 3.38856 66.8506 4.00809 66.9434 3.94469V3.9457L66.9463 3.95912L66.9516 3.98729L66.9618 4.04767C66.9853 4.19224 67.0064 4.34787 67.013 4.50653L67.0097 4.5015C66.6924 4.09563 66.3494 3.69447 65.8231 3.42713L65.7755 3.40131L65.7514 3.38856L65.7485 3.38688L65.7471 3.38621C66.0123 2.93037 65.3846 4.00641 65.449 3.89572L65.4523 3.89841L65.4909 3.93832L65.5712 4.048C65.5761 4.05572 65.5794 4.06478 65.5844 4.07283C65.4523 3.92826 65.313 3.78872 65.1591 3.65824C64.6747 3.30034 64.1534 3.06689 63.6377 3.07192L63.499 3.05448L63.4287 3.04475L63.394 3.03972L63.3765 3.03737L63.3719 3.0367H63.3712C63.327 3.2128 63.4713 2.64191 63.2709 3.43217L63.2722 3.4325L63.2735 3.43351L63.2791 3.43653L63.4663 3.57036C63.5868 3.66763 63.6918 3.77229 63.7668 3.86788C63.8407 3.9504 63.8969 4.03626 63.9414 4.12247C63.7499 4.01413 63.5756 3.96851 63.4402 3.91249C63.3148 3.85279 63.1999 3.80147 63.0807 3.78134L62.8509 3.7374L62.6973 3.72331C62.3243 3.7431 61.9082 3.7904 61.5375 3.91249L61.5437 3.91551ZM62.0463 4.14662L62.0476 4.14729L61.9224 4.11207L62.035 4.16406C62.0119 4.14897 62.003 4.13823 62.0463 4.14662ZM61.3859 4.17379L61.656 4.23685C61.965 4.31534 62.2655 4.40188 62.555 4.55785L62.7769 4.70242L62.4847 4.49311C62.3394 4.40288 62.1275 4.368 61.8765 4.29186C61.8366 4.28414 61.8604 4.24087 61.7785 4.22477C61.6223 4.06276 61.3502 4.40523 61.3189 3.87593C61.4027 3.84809 61.549 3.87392 61.6302 3.84641C61.8217 3.77463 62.3408 3.65824 62.0307 3.69011C61.8019 3.73841 61.6141 3.78134 61.4321 3.82293L61.2968 3.85446C61.2664 4.45622 61.3595 4.03291 61.3859 4.17379ZM64.3845 4.48171L64.2756 4.36666L64.3895 4.49546L64.407 4.51927C64.409 4.5186 64.4096 4.51827 64.4123 4.5176L64.3845 4.48171ZM64.4109 4.52498L64.4162 4.53202C64.4819 4.51458 64.444 4.52028 64.4109 4.52498ZM64.4162 4.53202C64.3901 4.53907 64.3495 4.54913 64.2851 4.56489C64.3238 4.5555 64.3664 4.54544 64.4166 4.53303L64.4162 4.53202ZM64.4109 4.52498L64.407 4.51927C64.3644 4.53101 64.3852 4.52867 64.4109 4.52498ZM64.0659 4.61487L64.0646 4.60548C64.0415 4.61487 64.0227 4.62292 64.0659 4.61487Z"/></svg>