<svg width="360" height="360" viewBox="0 0 360 360" fill="none" xmlns="http://www.w3.org/2000/svg">
<g clip-path="url(#clip0_1984_8)">
<circle cx="180" cy="180" r="180" fill="white"/>
<path d="M183.933 85.2002C181.14 83.8137 177.859 83.8102 175.062 85.1908L67.5737 138.249C64.1607 139.933 62 143.41 62 147.216V151.859V210.5C62 216.023 66.4772 220.5 72 220.5H73.5C79.0228 220.5 83.5 216.023 83.5 210.5V160.942L175.836 198.99C178.19 199.96 180.824 199.996 183.203 199.091L289.986 158.449C298.953 155.037 299.558 142.581 290.963 138.316L183.933 85.2002Z" fill="#14141E"/>
<path d="M105.5 195.506C105.5 194.077 106.955 193.109 108.273 193.662L175.761 221.934C178.159 222.938 180.854 222.97 183.274 222.021L250.77 195.57C252.082 195.056 253.5 196.023 253.5 197.432V224.569C253.5 227.678 252.069 230.632 249.525 232.418C208.107 261.485 150.965 261.071 109.533 232.417C106.955 230.634 105.5 227.658 105.5 224.523V195.506Z" fill="#14141E"/>
<path d="M62 243.5C62 237.977 66.4772 233.5 72 233.5H73.5C79.0228 233.5 83.5 237.977 83.5 243.5V266C83.5 271.523 79.0228 276 73.5 276H72C66.4772 276 62 271.523 62 266V243.5Z" fill="#60BDF2"/>
</g>
<defs>
<clipPath id="clip0_1984_8">
<rect width="360" height="360" fill="white"/>
</clipPath>
</defs>
</svg>
