<svg width="192" height="192" viewBox="0 0 192 192" fill="none" xmlns="http://www.w3.org/2000/svg">
<g clip-path="url(#clip0_1217_752)">
<g filter="url(#filter0_bdd_1217_752)">
<mask id="path-1-inside-1_1217_752" fill="white">
<path fill-rule="evenodd" clip-rule="evenodd" d="M93.1126 62.202C93.9805 62.1093 94.4858 63.1298 93.9737 63.8365C88.3119 71.6488 87.1489 82.2887 91.8638 91.4551C98.0117 103.407 112.01 108.687 124.322 104.235C125.144 103.938 125.985 104.707 125.655 105.516C122.91 112.229 117.849 118.034 110.894 121.612C95.4055 129.578 76.3916 123.481 68.4249 107.993C60.4582 92.5044 66.5557 73.4905 82.0438 65.5238C85.606 63.6916 89.3547 62.6032 93.1126 62.202Z"/>
</mask>
<path fill-rule="evenodd" clip-rule="evenodd" d="M93.1126 62.202C93.9805 62.1093 94.4858 63.1298 93.9737 63.8365C88.3119 71.6488 87.1489 82.2887 91.8638 91.4551C98.0117 103.407 112.01 108.687 124.322 104.235C125.144 103.938 125.985 104.707 125.655 105.516C122.91 112.229 117.849 118.034 110.894 121.612C95.4055 129.578 76.3916 123.481 68.4249 107.993C60.4582 92.5044 66.5557 73.4905 82.0438 65.5238C85.606 63.6916 89.3547 62.6032 93.1126 62.202Z" fill="url(#paint0_linear_1217_752)"/>
<path d="M124.322 104.235L125.002 106.116L124.322 104.235ZM125.655 105.516L127.506 106.273L125.655 105.516ZM93.1126 62.202L92.9003 60.2133L93.1126 62.202ZM93.6423 90.5403C89.2855 82.0701 90.3566 72.2357 95.5931 65.0101L92.3542 62.6628C86.2673 71.0619 85.0122 82.5073 90.0852 92.3699L93.6423 90.5403ZM123.642 102.354C112.263 106.468 99.3242 101.587 93.6423 90.5403L90.0852 92.3699C96.6991 105.228 111.756 110.905 125.002 106.116L123.642 102.354ZM123.803 104.759C121.232 111.048 116.494 116.482 109.979 119.833L111.808 123.39C119.203 119.586 124.588 113.41 127.506 106.273L123.803 104.759ZM109.979 119.833C95.4729 127.294 77.6648 121.584 70.2034 107.078L66.6464 108.907C75.1183 125.378 95.338 131.862 111.808 123.39L109.979 119.833ZM70.2034 107.078C62.742 92.5718 68.4527 74.7638 82.9587 67.3023L81.129 63.7453C64.6586 72.2172 58.1745 92.437 66.6464 108.907L70.2034 107.078ZM82.9587 67.3023C86.2982 65.5846 89.8083 64.5662 93.325 64.1907L92.9003 60.2133C88.9012 60.6403 84.9139 61.7985 81.129 63.7453L82.9587 67.3023ZM125.002 106.116C124.649 106.244 124.282 106.136 124.048 105.916C123.794 105.676 123.618 105.212 123.803 104.759L127.506 106.273C128.022 105.011 127.59 103.758 126.793 103.006C126.016 102.273 124.817 101.929 123.642 102.354L125.002 106.116ZM95.5931 65.0101C96.3256 63.9994 96.3276 62.7538 95.8389 61.8042C95.3374 60.8297 94.2541 60.0687 92.9003 60.2133L93.325 64.1907C92.839 64.2426 92.4423 63.9455 92.2824 63.6347C92.1353 63.3489 92.1339 62.9669 92.3542 62.6628L95.5931 65.0101Z" fill="url(#paint1_linear_1217_752)" mask="url(#path-1-inside-1_1217_752)"/>
</g>
<g filter="url(#filter1_bdd_1217_752)">
<path d="M104.268 65.8114C104.694 64.3663 106.741 64.3663 107.167 65.8114V65.8114C107.312 66.3036 107.697 66.6885 108.189 66.8336V66.8336C109.635 67.2596 109.635 69.3065 108.189 69.7326V69.7326C107.697 69.8776 107.312 70.2626 107.167 70.7547V70.7547C106.741 72.1998 104.694 72.1998 104.268 70.7547V70.7547C104.123 70.2626 103.738 69.8776 103.246 69.7326V69.7326C101.801 69.3065 101.801 67.2596 103.246 66.8336V66.8336C103.738 66.6885 104.123 66.3036 104.268 65.8114V65.8114Z" fill="url(#paint2_linear_1217_752)"/>
<path d="M103.529 67.7928C104.347 67.5517 104.986 66.912 105.228 66.0942C105.372 65.6054 106.064 65.6054 106.208 66.0942C106.449 66.912 107.089 67.5517 107.907 67.7928C108.396 67.9369 108.396 68.6293 107.907 68.7734C107.089 69.0145 106.449 69.6541 106.208 70.4719C106.064 70.9607 105.372 70.9607 105.228 70.4719C104.986 69.6541 104.347 69.0145 103.529 68.7734C103.04 68.6293 103.04 67.9369 103.529 67.7928Z" stroke="url(#paint3_linear_1217_752)" stroke-width="2"/>
</g>
<g filter="url(#filter2_bdd_1217_752)">
<path d="M110.032 86.8068C110.592 84.9053 113.286 84.9053 113.846 86.8068V86.8068C114.037 87.4544 114.544 87.9608 115.191 88.1517V88.1517C117.093 88.7123 117.093 91.4056 115.191 91.9662V91.9662C114.544 92.1571 114.037 92.6635 113.846 93.3111V93.3111C113.286 95.2126 110.592 95.2126 110.032 93.3111V93.3111C109.841 92.6635 109.335 92.1571 108.687 91.9662V91.9662C106.786 91.4056 106.786 88.7123 108.687 88.1517V88.1517C109.335 87.9608 109.841 87.4544 110.032 86.8068V86.8068Z" fill="url(#paint4_linear_1217_752)"/>
<path d="M108.97 89.1109C109.943 88.824 110.704 88.0628 110.991 87.0896C111.27 86.1444 112.609 86.1444 112.887 87.0896C113.174 88.0628 113.935 88.824 114.909 89.1109C115.854 89.3896 115.854 90.7283 114.909 91.007C113.935 91.2939 113.174 92.0551 112.887 93.0283C112.609 93.9735 111.27 93.9735 110.991 93.0283C110.704 92.0551 109.943 91.2939 108.97 91.007C108.025 90.7283 108.025 89.3896 108.97 89.1109Z" stroke="url(#paint5_linear_1217_752)" stroke-width="2"/>
</g>
<g filter="url(#filter3_bdd_1217_752)">
<path d="M130.939 80.2005C131.298 78.9835 133.022 78.9835 133.38 80.2005V80.2005C133.502 80.6149 133.827 80.9391 134.241 81.0612V81.0612C135.458 81.42 135.458 83.1437 134.241 83.5025V83.5025C133.827 83.6247 133.502 83.9488 133.38 84.3632V84.3632C133.022 85.5802 131.298 85.5802 130.939 84.3632V84.3632C130.817 83.9488 130.493 83.6247 130.078 83.5025V83.5025C128.861 83.1437 128.861 81.42 130.078 81.0612V81.0612C130.493 80.9391 130.817 80.6149 130.939 80.2005V80.2005Z" fill="url(#paint6_linear_1217_752)"/>
<path d="M130.361 82.0204C131.101 81.8022 131.68 81.2234 131.898 80.4833C131.924 80.3972 131.962 80.3581 131.994 80.3356C132.033 80.3082 132.091 80.2878 132.16 80.2878C132.228 80.2878 132.286 80.3082 132.325 80.3356C132.357 80.3581 132.396 80.3972 132.421 80.4833C132.639 81.2234 133.218 81.8022 133.958 82.0204C134.044 82.0458 134.083 82.0842 134.106 82.1164C134.133 82.1557 134.154 82.2133 134.154 82.2819C134.154 82.3504 134.133 82.408 134.106 82.4473C134.083 82.4795 134.044 82.5179 133.958 82.5433C133.218 82.7615 132.639 83.3403 132.421 84.0804C132.396 84.1665 132.357 84.2056 132.325 84.2281C132.286 84.2555 132.228 84.2759 132.16 84.2759C132.091 84.2759 132.033 84.2555 131.994 84.2281C131.962 84.2056 131.924 84.1665 131.898 84.0804C131.68 83.3403 131.101 82.7615 130.361 82.5433C130.275 82.5179 130.236 82.4795 130.213 82.4473C130.186 82.408 130.166 82.3504 130.166 82.2819C130.166 82.2133 130.186 82.1557 130.213 82.1164C130.236 82.0842 130.275 82.0458 130.361 82.0204Z" stroke="url(#paint7_linear_1217_752)" stroke-width="2"/>
</g>
<g filter="url(#filter4_bdd_1217_752)">
<path d="M123.94 61.9243C124.298 60.7074 126.022 60.7074 126.381 61.9243V61.9243C126.503 62.3387 126.827 62.6629 127.242 62.7851V62.7851C128.458 63.1438 128.458 64.8675 127.242 65.2263V65.2263C126.827 65.3485 126.503 65.6726 126.381 66.087V66.087C126.022 67.304 124.298 67.304 123.94 66.087V66.087C123.817 65.6726 123.493 65.3485 123.079 65.2263V65.2263C121.862 64.8675 121.862 63.1438 123.079 62.7851V62.7851C123.493 62.6629 123.817 62.3387 123.94 61.9243V61.9243Z" fill="url(#paint8_linear_1217_752)"/>
<path d="M123.362 63.7442C124.102 63.526 124.681 62.9472 124.899 62.2071C124.924 62.121 124.963 62.0819 124.995 62.0594C125.034 62.032 125.092 62.0116 125.16 62.0116C125.229 62.0116 125.286 62.032 125.326 62.0594C125.358 62.0819 125.396 62.121 125.422 62.2071C125.64 62.9472 126.219 63.526 126.959 63.7442C127.045 63.7696 127.084 63.8081 127.106 63.8403C127.134 63.8795 127.154 63.9371 127.154 64.0057C127.154 64.0742 127.134 64.1318 127.106 64.1711C127.084 64.2033 127.045 64.2417 126.959 64.2671C126.219 64.4853 125.64 65.0641 125.422 65.8043C125.396 65.8903 125.358 65.9294 125.326 65.9519C125.286 65.9793 125.229 65.9997 125.16 65.9997C125.092 65.9997 125.034 65.9793 124.995 65.9519C124.963 65.9294 124.924 65.8903 124.899 65.8043C124.681 65.0641 124.102 64.4853 123.362 64.2671C123.275 64.2417 123.236 64.2033 123.214 64.1711C123.186 64.1318 123.166 64.0742 123.166 64.0057C123.166 63.9371 123.186 63.8795 123.214 63.8403C123.236 63.8081 123.275 63.7696 123.362 63.7442Z" stroke="url(#paint9_linear_1217_752)" stroke-width="2"/>
</g>
</g>
<defs>
<filter id="filter0_bdd_1217_752" x="-6.07422" y="24.1961" width="169.803" height="165.914" filterUnits="userSpaceOnUse" color-interpolation-filters="sRGB">
<feFlood flood-opacity="0" result="BackgroundImageFix"/>
<feGaussianBlur in="BackgroundImageFix" stdDeviation="7"/>
<feComposite in2="SourceAlpha" operator="in" result="effect1_backgroundBlur_1217_752"/>
<feColorMatrix in="SourceAlpha" type="matrix" values="0 0 0 0 0 0 0 0 0 0 0 0 0 0 0 0 0 0 127 0" result="hardAlpha"/>
<feOffset dx="-21" dy="15"/>
<feGaussianBlur stdDeviation="25"/>
<feComposite in2="hardAlpha" operator="out"/>
<feColorMatrix type="matrix" values="0 0 0 0 0.113438 0 0 0 0 0.148981 0 0 0 0 0.275 0 0 0 0.25 0"/>
<feBlend mode="normal" in2="effect1_backgroundBlur_1217_752" result="effect2_dropShadow_1217_752"/>
<feColorMatrix in="SourceAlpha" type="matrix" values="0 0 0 0 0 0 0 0 0 0 0 0 0 0 0 0 0 0 127 0" result="hardAlpha"/>
<feOffset/>
<feGaussianBlur stdDeviation="19"/>
<feComposite in2="hardAlpha" operator="out"/>
<feColorMatrix type="matrix" values="0 0 0 0 0.619608 0 0 0 0 0.423529 0 0 0 0 1 0 0 0 0.4 0"/>
<feBlend mode="normal" in2="effect2_dropShadow_1217_752" result="effect3_dropShadow_1217_752"/>
<feBlend mode="normal" in="SourceGraphic" in2="effect3_dropShadow_1217_752" result="shape"/>
</filter>
<filter id="filter1_bdd_1217_752" x="31.1626" y="29.7276" width="107.111" height="107.111" filterUnits="userSpaceOnUse" color-interpolation-filters="sRGB">
<feFlood flood-opacity="0" result="BackgroundImageFix"/>
<feGaussianBlur in="BackgroundImageFix" stdDeviation="7"/>
<feComposite in2="SourceAlpha" operator="in" result="effect1_backgroundBlur_1217_752"/>
<feColorMatrix in="SourceAlpha" type="matrix" values="0 0 0 0 0 0 0 0 0 0 0 0 0 0 0 0 0 0 127 0" result="hardAlpha"/>
<feOffset dx="-21" dy="15"/>
<feGaussianBlur stdDeviation="25"/>
<feComposite in2="hardAlpha" operator="out"/>
<feColorMatrix type="matrix" values="0 0 0 0 0.113438 0 0 0 0 0.148981 0 0 0 0 0.275 0 0 0 0.25 0"/>
<feBlend mode="normal" in2="effect1_backgroundBlur_1217_752" result="effect2_dropShadow_1217_752"/>
<feColorMatrix in="SourceAlpha" type="matrix" values="0 0 0 0 0 0 0 0 0 0 0 0 0 0 0 0 0 0 127 0" result="hardAlpha"/>
<feOffset/>
<feGaussianBlur stdDeviation="9"/>
<feComposite in2="hardAlpha" operator="out"/>
<feColorMatrix type="matrix" values="0 0 0 0 0.607843 0 0 0 0 0.392157 0 0 0 0 1 0 0 0 0.56 0"/>
<feBlend mode="normal" in2="effect2_dropShadow_1217_752" result="effect3_dropShadow_1217_752"/>
<feBlend mode="normal" in="SourceGraphic" in2="effect3_dropShadow_1217_752" result="shape"/>
</filter>
<filter id="filter2_bdd_1217_752" x="36.2607" y="50.3807" width="109.356" height="109.357" filterUnits="userSpaceOnUse" color-interpolation-filters="sRGB">
<feFlood flood-opacity="0" result="BackgroundImageFix"/>
<feGaussianBlur in="BackgroundImageFix" stdDeviation="7"/>
<feComposite in2="SourceAlpha" operator="in" result="effect1_backgroundBlur_1217_752"/>
<feColorMatrix in="SourceAlpha" type="matrix" values="0 0 0 0 0 0 0 0 0 0 0 0 0 0 0 0 0 0 127 0" result="hardAlpha"/>
<feOffset dx="-21" dy="15"/>
<feGaussianBlur stdDeviation="25"/>
<feComposite in2="hardAlpha" operator="out"/>
<feColorMatrix type="matrix" values="0 0 0 0 0.113438 0 0 0 0 0.148981 0 0 0 0 0.275 0 0 0 0.25 0"/>
<feBlend mode="normal" in2="effect1_backgroundBlur_1217_752" result="effect2_dropShadow_1217_752"/>
<feColorMatrix in="SourceAlpha" type="matrix" values="0 0 0 0 0 0 0 0 0 0 0 0 0 0 0 0 0 0 127 0" result="hardAlpha"/>
<feOffset/>
<feGaussianBlur stdDeviation="9"/>
<feComposite in2="hardAlpha" operator="out"/>
<feColorMatrix type="matrix" values="0 0 0 0 0.996078 0 0 0 0 0.764706 0 0 0 0 0.0117647 0 0 0 0.47 0"/>
<feBlend mode="normal" in2="effect2_dropShadow_1217_752" result="effect3_dropShadow_1217_752"/>
<feBlend mode="normal" in="SourceGraphic" in2="effect3_dropShadow_1217_752" result="shape"/>
</filter>
<filter id="filter3_bdd_1217_752" x="58.1655" y="44.2878" width="105.988" height="105.988" filterUnits="userSpaceOnUse" color-interpolation-filters="sRGB">
<feFlood flood-opacity="0" result="BackgroundImageFix"/>
<feGaussianBlur in="BackgroundImageFix" stdDeviation="7"/>
<feComposite in2="SourceAlpha" operator="in" result="effect1_backgroundBlur_1217_752"/>
<feColorMatrix in="SourceAlpha" type="matrix" values="0 0 0 0 0 0 0 0 0 0 0 0 0 0 0 0 0 0 127 0" result="hardAlpha"/>
<feOffset dx="-21" dy="15"/>
<feGaussianBlur stdDeviation="25"/>
<feComposite in2="hardAlpha" operator="out"/>
<feColorMatrix type="matrix" values="0 0 0 0 0.113438 0 0 0 0 0.148981 0 0 0 0 0.275 0 0 0 0.25 0"/>
<feBlend mode="normal" in2="effect1_backgroundBlur_1217_752" result="effect2_dropShadow_1217_752"/>
<feColorMatrix in="SourceAlpha" type="matrix" values="0 0 0 0 0 0 0 0 0 0 0 0 0 0 0 0 0 0 127 0" result="hardAlpha"/>
<feOffset/>
<feGaussianBlur stdDeviation="9"/>
<feComposite in2="hardAlpha" operator="out"/>
<feColorMatrix type="matrix" values="0 0 0 0 0.607843 0 0 0 0 0.392157 0 0 0 0 1 0 0 0 0.56 0"/>
<feBlend mode="normal" in2="effect2_dropShadow_1217_752" result="effect3_dropShadow_1217_752"/>
<feBlend mode="normal" in="SourceGraphic" in2="effect3_dropShadow_1217_752" result="shape"/>
</filter>
<filter id="filter4_bdd_1217_752" x="51.166" y="26.0116" width="105.988" height="105.988" filterUnits="userSpaceOnUse" color-interpolation-filters="sRGB">
<feFlood flood-opacity="0" result="BackgroundImageFix"/>
<feGaussianBlur in="BackgroundImageFix" stdDeviation="7"/>
<feComposite in2="SourceAlpha" operator="in" result="effect1_backgroundBlur_1217_752"/>
<feColorMatrix in="SourceAlpha" type="matrix" values="0 0 0 0 0 0 0 0 0 0 0 0 0 0 0 0 0 0 127 0" result="hardAlpha"/>
<feOffset dx="-21" dy="15"/>
<feGaussianBlur stdDeviation="25"/>
<feComposite in2="hardAlpha" operator="out"/>
<feColorMatrix type="matrix" values="0 0 0 0 0.113438 0 0 0 0 0.148981 0 0 0 0 0.275 0 0 0 0.25 0"/>
<feBlend mode="normal" in2="effect1_backgroundBlur_1217_752" result="effect2_dropShadow_1217_752"/>
<feColorMatrix in="SourceAlpha" type="matrix" values="0 0 0 0 0 0 0 0 0 0 0 0 0 0 0 0 0 0 127 0" result="hardAlpha"/>
<feOffset/>
<feGaussianBlur stdDeviation="9"/>
<feComposite in2="hardAlpha" operator="out"/>
<feColorMatrix type="matrix" values="0 0 0 0 0.996078 0 0 0 0 0.764706 0 0 0 0 0.0117647 0 0 0 0.47 0"/>
<feBlend mode="normal" in2="effect2_dropShadow_1217_752" result="effect3_dropShadow_1217_752"/>
<feBlend mode="normal" in="SourceGraphic" in2="effect3_dropShadow_1217_752" result="shape"/>
</filter>
<linearGradient id="paint0_linear_1217_752" x1="76.4767" y1="69.0122" x2="105.326" y2="125.1" gradientUnits="userSpaceOnUse">
<stop offset="0.0001" stop-color="#D6C2FF"/>
<stop offset="1" stop-color="#7E2FFF"/>
</linearGradient>
<linearGradient id="paint1_linear_1217_752" x1="79.8422" y1="38.056" x2="98.0468" y2="111.665" gradientUnits="userSpaceOnUse">
<stop stop-color="white"/>
<stop offset="1" stop-color="white" stop-opacity="0"/>
</linearGradient>
<linearGradient id="paint2_linear_1217_752" x1="105.382" y1="61.025" x2="105.382" y2="75.8015" gradientUnits="userSpaceOnUse">
<stop offset="0.0001" stop-color="#D6C2FF"/>
<stop offset="1" stop-color="#7E2FFF"/>
</linearGradient>
<linearGradient id="paint3_linear_1217_752" x1="105.718" y1="60.8948" x2="105.718" y2="70.0329" gradientUnits="userSpaceOnUse">
<stop stop-color="white"/>
<stop offset="1" stop-color="white" stop-opacity="0"/>
</linearGradient>
<linearGradient id="paint4_linear_1217_752" x1="111.939" y1="80.3376" x2="111.939" y2="99.7803" gradientUnits="userSpaceOnUse">
<stop stop-color="#FFE600"/>
<stop offset="1" stop-color="#FF7A00"/>
</linearGradient>
<linearGradient id="paint5_linear_1217_752" x1="111.939" y1="80.3376" x2="111.939" y2="92.3614" gradientUnits="userSpaceOnUse">
<stop stop-color="white"/>
<stop offset="1" stop-color="white" stop-opacity="0"/>
</linearGradient>
<linearGradient id="paint6_linear_1217_752" x1="131.877" y1="76.1698" x2="131.877" y2="88.6131" gradientUnits="userSpaceOnUse">
<stop offset="0.0001" stop-color="#D6C2FF"/>
<stop offset="1" stop-color="#7E2FFF"/>
</linearGradient>
<linearGradient id="paint7_linear_1217_752" x1="132.16" y1="76.0602" x2="132.16" y2="83.7554" gradientUnits="userSpaceOnUse">
<stop stop-color="white"/>
<stop offset="1" stop-color="white" stop-opacity="0"/>
</linearGradient>
<linearGradient id="paint8_linear_1217_752" x1="125.16" y1="57.784" x2="125.16" y2="70.2273" gradientUnits="userSpaceOnUse">
<stop stop-color="#FFE600"/>
<stop offset="1" stop-color="#FF7A00"/>
</linearGradient>
<linearGradient id="paint9_linear_1217_752" x1="125.16" y1="57.784" x2="125.16" y2="65.4792" gradientUnits="userSpaceOnUse">
<stop stop-color="white"/>
<stop offset="1" stop-color="white" stop-opacity="0"/>
</linearGradient>
<clipPath id="clip0_1217_752">
<rect width="192" height="192" fill="white"/>
</clipPath>
</defs>
</svg>
