<svg width="192" height="192" viewBox="0 0 192 192" fill="none" xmlns="http://www.w3.org/2000/svg">
<g clip-path="url(#clip0_1217_753)">
<g filter="url(#filter0_bdd_1217_753)">
<mask id="path-1-inside-1_1217_753" fill="white">
<path d="M127.073 95.5363C127.073 112.953 112.953 127.073 95.5363 127.073C78.1193 127.073 64 112.953 64 95.5363C64 78.1193 78.1193 64 95.5363 64C112.953 64 127.073 78.1193 127.073 95.5363Z"/>
</mask>
<path d="M127.073 95.5363C127.073 112.953 112.953 127.073 95.5363 127.073C78.1193 127.073 64 112.953 64 95.5363C64 78.1193 78.1193 64 95.5363 64C112.953 64 127.073 78.1193 127.073 95.5363Z" fill="url(#paint0_linear_1217_753)"/>
<path d="M125.073 95.5363C125.073 111.849 111.849 125.073 95.5363 125.073V129.073C114.058 129.073 129.073 114.058 129.073 95.5363H125.073ZM95.5363 125.073C79.2238 125.073 66 111.849 66 95.5363H62C62 114.058 77.0147 129.073 95.5363 129.073V125.073ZM66 95.5363C66 79.2238 79.2238 66 95.5363 66V62C77.0147 62 62 77.0147 62 95.5363H66ZM95.5363 66C111.849 66 125.073 79.2238 125.073 95.5363H129.073C129.073 77.0147 114.058 62 95.5363 62V66Z" fill="url(#paint1_linear_1217_753)" mask="url(#path-1-inside-1_1217_753)"/>
</g>
</g>
<defs>
<filter id="filter0_bdd_1217_753" x="-7" y="26" width="172.072" height="166.073" filterUnits="userSpaceOnUse" color-interpolation-filters="sRGB">
<feFlood flood-opacity="0" result="BackgroundImageFix"/>
<feGaussianBlur in="BackgroundImageFix" stdDeviation="7"/>
<feComposite in2="SourceAlpha" operator="in" result="effect1_backgroundBlur_1217_753"/>
<feColorMatrix in="SourceAlpha" type="matrix" values="0 0 0 0 0 0 0 0 0 0 0 0 0 0 0 0 0 0 127 0" result="hardAlpha"/>
<feOffset dx="-21" dy="15"/>
<feGaussianBlur stdDeviation="25"/>
<feComposite in2="hardAlpha" operator="out"/>
<feColorMatrix type="matrix" values="0 0 0 0 0.113438 0 0 0 0 0.148981 0 0 0 0 0.275 0 0 0 0.25 0"/>
<feBlend mode="normal" in2="effect1_backgroundBlur_1217_753" result="effect2_dropShadow_1217_753"/>
<feColorMatrix in="SourceAlpha" type="matrix" values="0 0 0 0 0 0 0 0 0 0 0 0 0 0 0 0 0 0 127 0" result="hardAlpha"/>
<feOffset/>
<feGaussianBlur stdDeviation="19"/>
<feComposite in2="hardAlpha" operator="out"/>
<feColorMatrix type="matrix" values="0 0 0 0 0.619608 0 0 0 0 0.423529 0 0 0 0 1 0 0 0 0.4 0"/>
<feBlend mode="normal" in2="effect2_dropShadow_1217_753" result="effect3_dropShadow_1217_753"/>
<feBlend mode="normal" in="SourceGraphic" in2="effect3_dropShadow_1217_753" result="shape"/>
</filter>
<linearGradient id="paint0_linear_1217_753" x1="94.1042" y1="64.5556" x2="94.1042" y2="127.628" gradientUnits="userSpaceOnUse">
<stop offset="0.0001" stop-color="#DECFFF"/>
<stop offset="1" stop-color="#7E2FFF"/>
</linearGradient>
<linearGradient id="paint1_linear_1217_753" x1="114.767" y1="38.567" x2="100.012" y2="113.591" gradientUnits="userSpaceOnUse">
<stop stop-color="white"/>
<stop offset="1" stop-color="white" stop-opacity="0"/>
</linearGradient>
<clipPath id="clip0_1217_753">
<rect width="192" height="192" fill="white"/>
</clipPath>
</defs>
</svg>
