<svg width="192" height="192" viewBox="0 0 192 192" fill="none" xmlns="http://www.w3.org/2000/svg">
<g clip-path="url(#clip0_1217_742)">
<g filter="url(#filter0_f_1217_742)">
<circle cx="78.7942" cy="82.7942" r="29.7942" fill="#FFC701" fill-opacity="0.5"/>
</g>
<circle cx="78.7944" cy="83.7711" r="27.8173" fill="url(#paint0_linear_1217_742)" stroke="url(#paint1_linear_1217_742)" stroke-width="2"/>
<mask id="mask0_1217_742" style="mask-type:alpha" maskUnits="userSpaceOnUse" x="49" y="71" width="59" height="42">
<path d="M107.612 83.771C107.612 99.6864 94.7098 112.588 78.7944 112.588C62.879 112.588 49.9771 99.6864 49.9771 83.771C49.9771 67.8556 60.6811 71.5603 76.5965 71.5603C92.5118 71.5603 107.612 67.8556 107.612 83.771Z" fill="url(#paint2_linear_1217_742)"/>
</mask>
<g mask="url(#mask0_1217_742)">
<g filter="url(#filter1_f_1217_742)">
<path fill-rule="evenodd" clip-rule="evenodd" d="M122.753 136.521C122.753 148.121 113.35 157.524 101.751 157.524C101.669 157.524 101.588 157.523 101.507 157.522V157.524H27.7537L27.7544 157.523C27.6728 157.524 27.5911 157.524 27.5093 157.524C15.91 157.524 6.50684 148.121 6.50684 136.522C6.50684 124.922 15.91 115.519 27.5093 115.519C37.5075 115.519 45.874 122.506 47.9932 131.863L55.1057 122.845L77.3293 115.519H101.507V115.52C101.588 115.519 101.669 115.519 101.751 115.519C113.35 115.519 122.753 124.922 122.753 136.521Z" fill="#E18700"/>
</g>
</g>
<g filter="url(#filter2_bd_1217_742)">
<mask id="path-5-inside-1_1217_742" fill="white">
<path fill-rule="evenodd" clip-rule="evenodd" d="M127.423 138.158C127.482 138.159 127.541 138.159 127.6 138.159C135.983 138.159 142.778 131.364 142.778 122.981C142.778 114.598 135.983 107.803 127.6 107.803C127.541 107.803 127.482 107.803 127.423 107.804V107.803H123.502C123.644 106.764 123.717 105.703 123.717 104.626C123.717 91.7591 113.287 81.3287 100.42 81.3287C87.5539 81.3287 77.1236 91.7591 77.1236 104.626C77.1236 105.84 77.2164 107.032 77.3955 108.196C76.2875 107.939 75.1331 107.803 73.9468 107.803C65.5641 107.803 58.7686 114.598 58.7686 122.981C58.7686 131.364 65.5641 138.159 73.9468 138.159C74.0059 138.159 74.0649 138.159 74.1238 138.158L74.123 138.159H127.423V138.158Z"/>
</mask>
<path fill-rule="evenodd" clip-rule="evenodd" d="M127.423 138.158C127.482 138.159 127.541 138.159 127.6 138.159C135.983 138.159 142.778 131.364 142.778 122.981C142.778 114.598 135.983 107.803 127.6 107.803C127.541 107.803 127.482 107.803 127.423 107.804V107.803H123.502C123.644 106.764 123.717 105.703 123.717 104.626C123.717 91.7591 113.287 81.3287 100.42 81.3287C87.5539 81.3287 77.1236 91.7591 77.1236 104.626C77.1236 105.84 77.2164 107.032 77.3955 108.196C76.2875 107.939 75.1331 107.803 73.9468 107.803C65.5641 107.803 58.7686 114.598 58.7686 122.981C58.7686 131.364 65.5641 138.159 73.9468 138.159C74.0059 138.159 74.0649 138.159 74.1238 138.158L74.123 138.159H127.423V138.158Z" fill="url(#paint3_linear_1217_742)" shape-rendering="crispEdges"/>
<path d="M127.423 138.158L127.446 136.158C126.912 136.152 126.397 136.36 126.017 136.736C125.637 137.112 125.423 137.624 125.423 138.158H127.423ZM127.423 107.804H125.423C125.423 108.338 125.637 108.85 126.017 109.226C126.397 109.602 126.912 109.81 127.446 109.804L127.423 107.804ZM127.423 107.803H129.423C129.423 106.698 128.528 105.803 127.423 105.803V107.803ZM123.502 107.803L121.521 107.532C121.443 108.105 121.616 108.683 121.996 109.118C122.376 109.553 122.925 109.803 123.502 109.803V107.803ZM77.3955 108.196L76.9429 110.144C77.5894 110.294 78.2684 110.114 78.7552 109.663C79.242 109.212 79.4731 108.548 79.3722 107.892L77.3955 108.196ZM74.1238 138.158L75.6942 139.397C76.1712 138.792 76.2585 137.967 75.9184 137.275C75.5783 136.584 74.8714 136.149 74.101 136.158L74.1238 138.158ZM74.123 138.159L72.5526 136.921C72.0781 137.522 71.9891 138.342 72.3234 139.032C72.6577 139.721 73.3567 140.159 74.123 140.159V138.159ZM127.423 138.159V140.159C128.528 140.159 129.423 139.264 129.423 138.159H127.423ZM127.4 140.158C127.467 140.159 127.533 140.159 127.6 140.159V136.159C127.549 136.159 127.497 136.159 127.446 136.158L127.4 140.158ZM127.6 140.159C137.087 140.159 144.778 132.468 144.778 122.981H140.778C140.778 130.259 134.878 136.159 127.6 136.159V140.159ZM144.778 122.981C144.778 113.494 137.087 105.803 127.6 105.803V109.803C134.878 109.803 140.778 115.703 140.778 122.981H144.778ZM127.6 105.803C127.533 105.803 127.467 105.803 127.4 105.804L127.446 109.804C127.497 109.803 127.549 109.803 127.6 109.803V105.803ZM125.423 107.803V107.804H129.423V107.803H125.423ZM123.502 109.803H127.423V105.803H123.502V109.803ZM125.484 108.073C125.638 106.945 125.717 105.794 125.717 104.626H121.717C121.717 105.613 121.65 106.583 121.521 107.532L125.484 108.073ZM125.717 104.626C125.717 90.6545 114.391 79.3287 100.42 79.3287V83.3287C112.182 83.3287 121.717 92.8637 121.717 104.626H125.717ZM100.42 79.3287C86.4494 79.3287 75.1236 90.6545 75.1236 104.626H79.1236C79.1236 92.8637 88.6585 83.3287 100.42 83.3287V79.3287ZM75.1236 104.626C75.1236 105.942 75.2243 107.236 75.4187 108.5L79.3722 107.892C79.2086 106.828 79.1236 105.738 79.1236 104.626H75.1236ZM77.8481 106.248C76.5928 105.956 75.2865 105.803 73.9468 105.803V109.803C74.9796 109.803 75.9823 109.921 76.9429 110.144L77.8481 106.248ZM73.9468 105.803C64.4595 105.803 56.7686 113.494 56.7686 122.981H60.7686C60.7686 115.703 66.6687 109.803 73.9468 109.803V105.803ZM56.7686 122.981C56.7686 132.468 64.4595 140.159 73.9468 140.159V136.159C66.6687 136.159 60.7686 130.259 60.7686 122.981H56.7686ZM73.9468 140.159C74.0135 140.159 74.0801 140.159 74.1466 140.158L74.101 136.158C74.0496 136.159 73.9982 136.159 73.9468 136.159V140.159ZM75.6934 139.398L75.6942 139.397L72.5534 136.92L72.5526 136.921L75.6934 139.398ZM127.423 136.159H74.123V140.159H127.423V136.159ZM125.423 138.158V138.159H129.423V138.158H125.423Z" fill="url(#paint4_linear_1217_742)" mask="url(#path-5-inside-1_1217_742)"/>
</g>
</g>
<defs>
<filter id="filter0_f_1217_742" x="5" y="9" width="147.588" height="147.588" filterUnits="userSpaceOnUse" color-interpolation-filters="sRGB">
<feFlood flood-opacity="0" result="BackgroundImageFix"/>
<feBlend mode="normal" in="SourceGraphic" in2="BackgroundImageFix" result="shape"/>
<feGaussianBlur stdDeviation="22" result="effect1_foregroundBlur_1217_742"/>
</filter>
<filter id="filter1_f_1217_742" x="-7.49316" y="101.519" width="144.246" height="70.0054" filterUnits="userSpaceOnUse" color-interpolation-filters="sRGB">
<feFlood flood-opacity="0" result="BackgroundImageFix"/>
<feBlend mode="normal" in="SourceGraphic" in2="BackgroundImageFix" result="shape"/>
<feGaussianBlur stdDeviation="7" result="effect1_foregroundBlur_1217_742"/>
</filter>
<filter id="filter2_bd_1217_742" x="-12.2314" y="46.3287" width="184.01" height="156.83" filterUnits="userSpaceOnUse" color-interpolation-filters="sRGB">
<feFlood flood-opacity="0" result="BackgroundImageFix"/>
<feGaussianBlur in="BackgroundImageFix" stdDeviation="7"/>
<feComposite in2="SourceAlpha" operator="in" result="effect1_backgroundBlur_1217_742"/>
<feColorMatrix in="SourceAlpha" type="matrix" values="0 0 0 0 0 0 0 0 0 0 0 0 0 0 0 0 0 0 127 0" result="hardAlpha"/>
<feOffset dx="-21" dy="15"/>
<feGaussianBlur stdDeviation="25"/>
<feComposite in2="hardAlpha" operator="out"/>
<feColorMatrix type="matrix" values="0 0 0 0 0.113438 0 0 0 0 0.148981 0 0 0 0 0.275 0 0 0 0.25 0"/>
<feBlend mode="normal" in2="effect1_backgroundBlur_1217_742" result="effect2_dropShadow_1217_742"/>
<feBlend mode="normal" in="SourceGraphic" in2="effect2_dropShadow_1217_742" result="shape"/>
</filter>
<linearGradient id="paint0_linear_1217_742" x1="78.7944" y1="54.9537" x2="78.7944" y2="112.588" gradientUnits="userSpaceOnUse">
<stop stop-color="#FFE600"/>
<stop offset="1" stop-color="#FF7A00"/>
</linearGradient>
<linearGradient id="paint1_linear_1217_742" x1="78.7944" y1="54.9537" x2="78.7944" y2="112.588" gradientUnits="userSpaceOnUse">
<stop stop-color="white"/>
<stop offset="1" stop-color="white" stop-opacity="0"/>
</linearGradient>
<linearGradient id="paint2_linear_1217_742" x1="78.7944" y1="54.9537" x2="78.7944" y2="112.588" gradientUnits="userSpaceOnUse">
<stop stop-color="#FFD600"/>
<stop offset="1" stop-color="#FF7A00"/>
</linearGradient>
<linearGradient id="paint3_linear_1217_742" x1="104.681" y1="83.0382" x2="104.681" y2="144.58" gradientUnits="userSpaceOnUse">
<stop stop-color="white"/>
<stop offset="1" stop-color="white" stop-opacity="0"/>
</linearGradient>
<linearGradient id="paint4_linear_1217_742" x1="100.773" y1="81.3287" x2="100.773" y2="138.159" gradientUnits="userSpaceOnUse">
<stop stop-color="white"/>
<stop offset="1" stop-color="white" stop-opacity="0"/>
</linearGradient>
<clipPath id="clip0_1217_742">
<rect width="192" height="192" fill="white"/>
</clipPath>
</defs>
</svg>
