<svg width="128" height="128" viewBox="0 0 128 128" fill="none" xmlns="http://www.w3.org/2000/svg">
<g filter="url(#filter0_d_1_28)">
<circle cx="83.5" cy="53.5" r="23.5" fill="url(#paint0_linear_1_28)"/>
<circle cx="83.5" cy="53.5" r="22.5" stroke="url(#paint1_linear_1_28)" stroke-width="2"/>
</g>
<g filter="url(#filter1_bd_1_28)">
<mask id="path-3-inside-1_1_28" fill="white">
<path fill-rule="evenodd" clip-rule="evenodd" d="M93.0884 66.652V66.6H91.8237H86.4495C86.6565 65.3642 86.7643 64.0947 86.7643 62.8C86.7643 50.2079 76.5722 40 63.9996 40C51.427 40 41.2349 50.2079 41.2349 62.8C41.2349 64.0947 41.3427 65.3642 41.5497 66.6H36.1995C36.1918 66.6 36.1841 66.6 36.1764 66.6C36.1688 66.6 36.1611 66.6 36.1534 66.6H34.9121V66.652C27.1219 67.2955 21 73.8317 21 81.8C21 89.7682 27.1219 96.3045 34.9121 96.948V97H91.8237H93.0884V96.948C100.878 96.3043 107 89.7682 107 81.8C107 73.8318 100.878 67.2956 93.0884 66.652Z"/>
</mask>
<path fill-rule="evenodd" clip-rule="evenodd" d="M93.0884 66.652V66.6H91.8237H86.4495C86.6565 65.3642 86.7643 64.0947 86.7643 62.8C86.7643 50.2079 76.5722 40 63.9996 40C51.427 40 41.2349 50.2079 41.2349 62.8C41.2349 64.0947 41.3427 65.3642 41.5497 66.6H36.1995C36.1918 66.6 36.1841 66.6 36.1764 66.6C36.1688 66.6 36.1611 66.6 36.1534 66.6H34.9121V66.652C27.1219 67.2955 21 73.8317 21 81.8C21 89.7682 27.1219 96.3045 34.9121 96.948V97H91.8237H93.0884V96.948C100.878 96.3043 107 89.7682 107 81.8C107 73.8318 100.878 67.2956 93.0884 66.652Z" fill="url(#paint2_linear_1_28)" shape-rendering="crispEdges"/>
<path d="M93.0884 66.6H95.0884C95.0884 65.4954 94.193 64.6 93.0884 64.6V66.6ZM93.0884 66.652H91.0884C91.0884 67.6927 91.8865 68.5595 92.9237 68.6452L93.0884 66.652ZM86.4495 66.6L84.477 66.2696C84.3798 66.8497 84.5429 67.4431 84.9229 67.8921C85.3029 68.3411 85.8613 68.6 86.4495 68.6V66.6ZM41.5497 66.6V68.6C42.1379 68.6 42.6962 68.3411 43.0763 67.8921C43.4563 67.4431 43.6194 66.8497 43.5222 66.2696L41.5497 66.6ZM36.1995 66.6L36.1965 68.6H36.1995V66.6ZM36.1534 66.6L36.1534 68.6L36.1564 68.6L36.1534 66.6ZM34.9121 66.6V64.6C33.8075 64.6 32.9121 65.4954 32.9121 66.6H34.9121ZM34.9121 66.652L35.0767 68.6452C36.1139 68.5595 36.9121 67.6927 36.9121 66.652H34.9121ZM34.9121 96.948H36.9121C36.9121 95.9072 36.1139 95.0404 35.0767 94.9548L34.9121 96.948ZM34.9121 97H32.9121C32.9121 98.1045 33.8075 99 34.9121 99V97ZM93.0884 97V99C94.193 99 95.0884 98.1045 95.0884 97H93.0884ZM93.0884 96.948L92.9237 94.9547C91.8865 95.0404 91.0884 95.9072 91.0884 96.948H93.0884ZM91.0884 66.6V66.652H95.0884V66.6H91.0884ZM91.8237 68.6H93.0884V64.6H91.8237V68.6ZM86.4495 68.6H91.8237V64.6H86.4495V68.6ZM88.422 66.9304C88.6472 65.5859 88.7643 64.2059 88.7643 62.8H84.7643C84.7643 63.9835 84.6658 65.1425 84.477 66.2696L88.422 66.9304ZM88.7643 62.8C88.7643 49.1063 77.6797 38 63.9996 38V42C75.4647 42 84.7643 51.3096 84.7643 62.8H88.7643ZM63.9996 38C50.3195 38 39.2349 49.1063 39.2349 62.8H43.2349C43.2349 51.3096 52.5345 42 63.9996 42V38ZM39.2349 62.8C39.2349 64.2058 39.352 65.5859 39.5772 66.9304L43.5222 66.2696C43.3334 65.1425 43.2349 63.9835 43.2349 62.8H39.2349ZM36.1995 68.6H41.5497V64.6H36.1995V68.6ZM36.2025 64.6C36.1938 64.6 36.1851 64.6 36.1764 64.6V68.6C36.1831 68.6 36.1898 68.6 36.1965 68.6L36.2025 64.6ZM36.1764 64.6C36.1678 64.6 36.1591 64.6 36.1504 64.6L36.1564 68.6C36.1631 68.6 36.1697 68.6 36.1764 68.6V64.6ZM34.9121 68.6H36.1534V64.6H34.9121V68.6ZM36.9121 66.652V66.6H32.9121V66.652H36.9121ZM34.7474 64.6587C25.9261 65.3874 19 72.7849 19 81.8H23C23 74.8785 28.3177 69.2035 35.0767 68.6452L34.7474 64.6587ZM19 81.8C19 90.815 25.9261 98.2125 34.7474 98.9412L35.0767 94.9548C28.3177 94.3964 23 88.7215 23 81.8H19ZM36.9121 97V96.948H32.9121V97H36.9121ZM91.8237 95H34.9121V99H91.8237V95ZM93.0884 95H91.8237V99H93.0884V95ZM91.0884 96.948V97H95.0884V96.948H91.0884ZM93.2531 98.9412C102.074 98.2123 109 90.8149 109 81.8H105C105 88.7214 99.6826 94.3963 92.9237 94.9547L93.2531 98.9412ZM109 81.8C109 72.785 102.074 65.3876 93.2531 64.6588L92.9237 68.6452C99.6826 69.2037 105 74.8786 105 81.8H109Z" fill="url(#paint3_linear_1_28)" mask="url(#path-3-inside-1_1_28)"/>
</g>
<defs>
<filter id="filter0_d_1_28" x="39" y="9" width="89" height="89" filterUnits="userSpaceOnUse" color-interpolation-filters="sRGB">
<feFlood flood-opacity="0" result="BackgroundImageFix"/>
<feColorMatrix in="SourceAlpha" type="matrix" values="0 0 0 0 0 0 0 0 0 0 0 0 0 0 0 0 0 0 127 0" result="hardAlpha"/>
<feMorphology radius="1" operator="dilate" in="SourceAlpha" result="effect1_dropShadow_1_28"/>
<feOffset/>
<feGaussianBlur stdDeviation="10"/>
<feComposite in2="hardAlpha" operator="out"/>
<feColorMatrix type="matrix" values="0 0 0 0 0.494118 0 0 0 0 0.184314 0 0 0 0 1 0 0 0 0.35 0"/>
<feBlend mode="normal" in2="BackgroundImageFix" result="effect1_dropShadow_1_28"/>
<feBlend mode="normal" in="SourceGraphic" in2="effect1_dropShadow_1_28" result="shape"/>
</filter>
<filter id="filter1_bd_1_28" x="1" y="20" width="126" height="97" filterUnits="userSpaceOnUse" color-interpolation-filters="sRGB">
<feFlood flood-opacity="0" result="BackgroundImageFix"/>
<feGaussianBlur in="BackgroundImageFix" stdDeviation="10"/>
<feComposite in2="SourceAlpha" operator="in" result="effect1_backgroundBlur_1_28"/>
<feColorMatrix in="SourceAlpha" type="matrix" values="0 0 0 0 0 0 0 0 0 0 0 0 0 0 0 0 0 0 127 0" result="hardAlpha"/>
<feOffset/>
<feGaussianBlur stdDeviation="2"/>
<feComposite in2="hardAlpha" operator="out"/>
<feColorMatrix type="matrix" values="0 0 0 0 0 0 0 0 0 0 0 0 0 0 0 0 0 0 0.25 0"/>
<feBlend mode="normal" in2="effect1_backgroundBlur_1_28" result="effect2_dropShadow_1_28"/>
<feBlend mode="normal" in="SourceGraphic" in2="effect2_dropShadow_1_28" result="shape"/>
</filter>
<linearGradient id="paint0_linear_1_28" x1="83.5" y1="30" x2="83.5" y2="77" gradientUnits="userSpaceOnUse">
<stop stop-color="#DECFFF"/>
<stop offset="1" stop-color="#7E2FFF"/>
</linearGradient>
<linearGradient id="paint1_linear_1_28" x1="83.5" y1="30" x2="83.5" y2="77" gradientUnits="userSpaceOnUse">
<stop stop-color="white"/>
<stop offset="1" stop-color="white" stop-opacity="0"/>
</linearGradient>
<linearGradient id="paint2_linear_1_28" x1="68.4926" y1="41.7239" x2="68.4926" y2="103.785" gradientUnits="userSpaceOnUse">
<stop stop-color="white"/>
<stop offset="1" stop-color="white" stop-opacity="0"/>
</linearGradient>
<linearGradient id="paint3_linear_1_28" x1="64.5583" y1="40" x2="64.5583" y2="97.3095" gradientUnits="userSpaceOnUse">
<stop stop-color="white"/>
<stop offset="1" stop-color="white" stop-opacity="0"/>
</linearGradient>
</defs>
</svg>
