<svg width="192" height="192" viewBox="0 0 192 192" fill="none" xmlns="http://www.w3.org/2000/svg">
<g clip-path="url(#clip0_1217_751)">
<g filter="url(#filter0_bdd_1217_751)">
<mask id="path-1-inside-1_1217_751" fill="white">
<path fill-rule="evenodd" clip-rule="evenodd" d="M112.832 56.202C113.7 56.1093 114.206 57.1298 113.693 57.8365C108.032 65.6488 106.869 76.2887 111.583 85.4551C117.731 97.4074 131.729 102.687 144.042 98.2349C144.864 97.9379 145.705 98.7072 145.374 99.5158C142.63 106.229 137.568 112.034 130.613 115.612C115.125 123.578 96.1113 117.481 88.1446 101.993C80.178 86.5044 86.2754 67.4905 101.764 59.5238C105.326 57.6916 109.074 56.6032 112.832 56.202Z"/>
</mask>
<path fill-rule="evenodd" clip-rule="evenodd" d="M112.832 56.202C113.7 56.1093 114.206 57.1298 113.693 57.8365C108.032 65.6488 106.869 76.2887 111.583 85.4551C117.731 97.4074 131.729 102.687 144.042 98.2349C144.864 97.9379 145.705 98.7072 145.374 99.5158C142.63 106.229 137.568 112.034 130.613 115.612C115.125 123.578 96.1113 117.481 88.1446 101.993C80.178 86.5044 86.2754 67.4905 101.764 59.5238C105.326 57.6916 109.074 56.6032 112.832 56.202Z" fill="url(#paint0_linear_1217_751)"/>
<path d="M144.042 98.2349L143.362 96.354L144.042 98.2349ZM145.374 99.5158L143.523 98.7589L145.374 99.5158ZM113.693 57.8365L112.074 56.6629L113.693 57.8365ZM112.832 56.202L113.045 58.1907L112.832 56.202ZM113.362 84.5403C109.005 76.0701 110.076 66.2357 115.313 59.0101L112.074 56.6629C105.987 65.0619 104.732 76.5073 109.805 86.3699L113.362 84.5403ZM143.362 96.354C131.983 100.468 119.044 95.5867 113.362 84.5403L109.805 86.3699C116.419 99.2281 131.476 104.905 144.722 100.116L143.362 96.354ZM143.523 98.7589C140.952 105.048 136.214 110.482 129.699 113.833L131.528 117.39C138.923 113.586 144.307 107.41 147.226 100.273L143.523 98.7589ZM129.699 113.833C115.193 121.294 97.3846 115.584 89.9231 101.078L86.3661 102.907C94.838 119.378 115.058 125.862 131.528 117.39L129.699 113.833ZM89.9231 101.078C82.4617 86.5718 88.1724 68.7638 102.678 61.3023L100.849 57.7453C84.3783 66.2172 77.8942 86.437 86.3661 102.907L89.9231 101.078ZM102.678 61.3023C106.018 59.5846 109.528 58.5662 113.045 58.1907L112.62 54.2133C108.621 54.6403 104.634 55.7985 100.849 57.7453L102.678 61.3023ZM144.722 100.116C144.369 100.244 144.002 100.136 143.768 99.9157C143.514 99.6758 143.338 99.2118 143.523 98.7589L147.226 100.273C147.741 99.0112 147.31 97.7583 146.513 97.0058C145.735 96.2727 144.537 95.9292 143.362 96.354L144.722 100.116ZM115.313 59.0101C116.045 57.9994 116.047 56.7538 115.559 55.8042C115.057 54.8297 113.974 54.0687 112.62 54.2133L113.045 58.1907C112.559 58.2426 112.162 57.9455 112.002 57.6347C111.855 57.3489 111.854 56.9669 112.074 56.6629L115.313 59.0101Z" fill="url(#paint1_linear_1217_751)" mask="url(#path-1-inside-1_1217_751)"/>
</g>
<g filter="url(#filter1_bd_1217_751)">
<mask id="path-3-inside-2_1217_751" fill="white">
<path fill-rule="evenodd" clip-rule="evenodd" d="M111.655 142.751C111.714 142.752 111.773 142.752 111.832 142.752C120.214 142.752 127.01 135.957 127.01 127.574C127.01 119.191 120.214 112.396 111.832 112.396C111.773 112.396 111.714 112.396 111.655 112.397V112.396H107.734C107.876 111.357 107.949 110.297 107.949 109.219C107.949 96.3524 97.5184 85.922 84.6519 85.922C71.7854 85.922 61.355 96.3524 61.355 109.219C61.355 110.433 61.4479 111.625 61.6269 112.789C60.519 112.532 59.3645 112.396 58.1783 112.396C49.7955 112.396 43 119.191 43 127.574C43 135.957 49.7955 142.752 58.1783 142.752C58.2374 142.752 58.2964 142.752 58.3553 142.751L58.3545 142.752H111.655V142.751Z"/>
</mask>
<path fill-rule="evenodd" clip-rule="evenodd" d="M111.655 142.751C111.714 142.752 111.773 142.752 111.832 142.752C120.214 142.752 127.01 135.957 127.01 127.574C127.01 119.191 120.214 112.396 111.832 112.396C111.773 112.396 111.714 112.396 111.655 112.397V112.396H107.734C107.876 111.357 107.949 110.297 107.949 109.219C107.949 96.3524 97.5184 85.922 84.6519 85.922C71.7854 85.922 61.355 96.3524 61.355 109.219C61.355 110.433 61.4479 111.625 61.6269 112.789C60.519 112.532 59.3645 112.396 58.1783 112.396C49.7955 112.396 43 119.191 43 127.574C43 135.957 49.7955 142.752 58.1783 142.752C58.2374 142.752 58.2964 142.752 58.3553 142.751L58.3545 142.752H111.655V142.751Z" fill="url(#paint2_linear_1217_751)" shape-rendering="crispEdges"/>
<path d="M111.655 142.751L111.678 140.752C111.143 140.745 110.629 140.953 110.249 141.329C109.869 141.705 109.655 142.217 109.655 142.751H111.655ZM111.655 112.397H109.655C109.655 112.931 109.869 113.443 110.249 113.819C110.629 114.195 111.143 114.403 111.678 114.397L111.655 112.397ZM111.655 112.396H113.655C113.655 111.291 112.759 110.396 111.655 110.396V112.396ZM107.734 112.396L105.752 112.126C105.674 112.698 105.847 113.276 106.227 113.711C106.607 114.146 107.156 114.396 107.734 114.396V112.396ZM61.6269 112.789L61.1743 114.737C61.8209 114.888 62.4998 114.707 62.9866 114.256C63.4734 113.805 63.7046 113.141 63.6037 112.485L61.6269 112.789ZM58.3553 142.751L59.925 143.991C60.4026 143.386 60.4902 142.561 60.1501 141.869C59.8101 141.177 59.103 140.743 58.3324 140.752L58.3553 142.751ZM58.3545 142.752L56.7849 141.513C56.3099 142.115 56.2204 142.935 56.5547 143.625C56.8889 144.314 57.588 144.752 58.3545 144.752V142.752ZM111.655 142.752V144.752C112.759 144.752 113.655 143.857 113.655 142.752H111.655ZM111.632 144.751C111.698 144.752 111.765 144.752 111.832 144.752V140.752C111.78 140.752 111.729 140.752 111.678 140.752L111.632 144.751ZM111.832 144.752C121.319 144.752 129.01 137.061 129.01 127.574H125.01C125.01 134.852 119.11 140.752 111.832 140.752V144.752ZM129.01 127.574C129.01 118.087 121.319 110.396 111.832 110.396V114.396C119.11 114.396 125.01 120.296 125.01 127.574H129.01ZM111.832 110.396C111.765 110.396 111.698 110.396 111.632 110.397L111.678 114.397C111.729 114.396 111.78 114.396 111.832 114.396V110.396ZM109.655 112.396V112.397H113.655V112.396H109.655ZM107.734 114.396H111.655V110.396H107.734V114.396ZM109.716 112.666C109.869 111.538 109.949 110.387 109.949 109.219H105.949C105.949 110.206 105.882 111.176 105.752 112.126L109.716 112.666ZM109.949 109.219C109.949 95.2478 98.6229 83.922 84.6519 83.922V87.922C96.4138 87.922 105.949 97.4569 105.949 109.219H109.949ZM84.6519 83.922C70.6808 83.922 59.355 95.2478 59.355 109.219H63.355C63.355 97.4569 72.8899 87.922 84.6519 87.922V83.922ZM59.355 109.219C59.355 110.535 59.4557 111.829 59.6502 113.093L63.6037 112.485C63.4401 111.422 63.355 110.331 63.355 109.219H59.355ZM62.0795 110.841C60.8243 110.55 59.518 110.396 58.1783 110.396V114.396C59.2111 114.396 60.2137 114.514 61.1743 114.737L62.0795 110.841ZM58.1783 110.396C48.691 110.396 41 118.087 41 127.574H45C45 120.296 50.9001 114.396 58.1783 114.396V110.396ZM41 127.574C41 137.061 48.691 144.752 58.1783 144.752V140.752C50.9001 140.752 45 134.852 45 127.574H41ZM58.1783 144.752C58.2449 144.752 58.3116 144.752 58.3782 144.751L58.3324 140.752C58.2812 140.752 58.2298 140.752 58.1783 140.752V144.752ZM59.9242 143.992L59.925 143.991L56.7857 141.512L56.7849 141.513L59.9242 143.992ZM111.655 140.752H58.3545V144.752H111.655V140.752ZM109.655 142.751V142.752H113.655V142.751H109.655Z" fill="url(#paint3_linear_1217_751)" mask="url(#path-3-inside-2_1217_751)"/>
</g>
</g>
<defs>
<filter id="filter0_bdd_1217_751" x="13.6455" y="18.1961" width="169.803" height="165.914" filterUnits="userSpaceOnUse" color-interpolation-filters="sRGB">
<feFlood flood-opacity="0" result="BackgroundImageFix"/>
<feGaussianBlur in="BackgroundImageFix" stdDeviation="7"/>
<feComposite in2="SourceAlpha" operator="in" result="effect1_backgroundBlur_1217_751"/>
<feColorMatrix in="SourceAlpha" type="matrix" values="0 0 0 0 0 0 0 0 0 0 0 0 0 0 0 0 0 0 127 0" result="hardAlpha"/>
<feOffset dx="-21" dy="15"/>
<feGaussianBlur stdDeviation="25"/>
<feComposite in2="hardAlpha" operator="out"/>
<feColorMatrix type="matrix" values="0 0 0 0 0.113438 0 0 0 0 0.148981 0 0 0 0 0.275 0 0 0 0.25 0"/>
<feBlend mode="normal" in2="effect1_backgroundBlur_1217_751" result="effect2_dropShadow_1217_751"/>
<feColorMatrix in="SourceAlpha" type="matrix" values="0 0 0 0 0 0 0 0 0 0 0 0 0 0 0 0 0 0 127 0" result="hardAlpha"/>
<feOffset/>
<feGaussianBlur stdDeviation="19"/>
<feComposite in2="hardAlpha" operator="out"/>
<feColorMatrix type="matrix" values="0 0 0 0 0.619608 0 0 0 0 0.423529 0 0 0 0 1 0 0 0 0.4 0"/>
<feBlend mode="normal" in2="effect2_dropShadow_1217_751" result="effect3_dropShadow_1217_751"/>
<feBlend mode="normal" in="SourceGraphic" in2="effect3_dropShadow_1217_751" result="shape"/>
</filter>
<filter id="filter1_bd_1217_751" x="-28" y="50.922" width="184.01" height="156.83" filterUnits="userSpaceOnUse" color-interpolation-filters="sRGB">
<feFlood flood-opacity="0" result="BackgroundImageFix"/>
<feGaussianBlur in="BackgroundImageFix" stdDeviation="7"/>
<feComposite in2="SourceAlpha" operator="in" result="effect1_backgroundBlur_1217_751"/>
<feColorMatrix in="SourceAlpha" type="matrix" values="0 0 0 0 0 0 0 0 0 0 0 0 0 0 0 0 0 0 127 0" result="hardAlpha"/>
<feOffset dx="-21" dy="15"/>
<feGaussianBlur stdDeviation="25"/>
<feComposite in2="hardAlpha" operator="out"/>
<feColorMatrix type="matrix" values="0 0 0 0 0.113438 0 0 0 0 0.148981 0 0 0 0 0.275 0 0 0 0.25 0"/>
<feBlend mode="normal" in2="effect1_backgroundBlur_1217_751" result="effect2_dropShadow_1217_751"/>
<feBlend mode="normal" in="SourceGraphic" in2="effect2_dropShadow_1217_751" result="shape"/>
</filter>
<linearGradient id="paint0_linear_1217_751" x1="96.1964" y1="63.0122" x2="125.046" y2="119.1" gradientUnits="userSpaceOnUse">
<stop offset="0.0001" stop-color="#D4C0FF"/>
<stop offset="1" stop-color="#7E2FFF"/>
</linearGradient>
<linearGradient id="paint1_linear_1217_751" x1="99.562" y1="32.056" x2="117.767" y2="105.665" gradientUnits="userSpaceOnUse">
<stop stop-color="white"/>
<stop offset="1" stop-color="white" stop-opacity="0"/>
</linearGradient>
<linearGradient id="paint2_linear_1217_751" x1="88.9124" y1="87.6315" x2="88.9124" y2="149.174" gradientUnits="userSpaceOnUse">
<stop stop-color="white"/>
<stop offset="1" stop-color="white" stop-opacity="0"/>
</linearGradient>
<linearGradient id="paint3_linear_1217_751" x1="85.0049" y1="85.922" x2="85.0049" y2="142.752" gradientUnits="userSpaceOnUse">
<stop stop-color="white"/>
<stop offset="1" stop-color="white" stop-opacity="0"/>
</linearGradient>
<clipPath id="clip0_1217_751">
<rect width="192" height="192" fill="white"/>
</clipPath>
</defs>
</svg>
