<svg width="192" height="192" viewBox="0 0 192 192" fill="none" xmlns="http://www.w3.org/2000/svg">
<g clip-path="url(#clip0_1217_725)">
<g filter="url(#filter0_f_1217_725)">
<circle cx="104.272" cy="76.7201" r="23.7201" fill="#FFC701" fill-opacity="0.5"/>
</g>
<circle cx="104.272" cy="77.4978" r="21.9424" fill="url(#paint0_linear_1217_725)" stroke="url(#paint1_linear_1217_725)" stroke-width="2"/>
<mask id="mask0_1217_725" style="mask-type:alpha" maskUnits="userSpaceOnUse" x="81" y="67" width="47" height="34">
<path d="M127.214 77.4978C127.214 90.1685 116.943 100.44 104.272 100.44C91.6013 100.44 81.3296 90.1685 81.3296 77.4978C81.3296 64.8271 89.8514 67.7764 102.522 67.7764C115.193 67.7764 127.214 64.8271 127.214 77.4978Z" fill="url(#paint2_linear_1217_725)"/>
</mask>
<g mask="url(#mask0_1217_725)">
<g filter="url(#filter1_f_1217_725)">
<path fill-rule="evenodd" clip-rule="evenodd" d="M122.354 136.214C122.419 136.215 122.483 136.215 122.548 136.215C131.783 136.215 139.269 128.729 139.269 119.494C139.269 110.26 131.783 102.773 122.548 102.773C122.483 102.773 122.419 102.774 122.354 102.775V102.773H111.694C111.928 101.382 112.049 99.9534 112.049 98.4961C112.049 84.322 100.559 72.8317 86.3849 72.8317C72.2109 72.8317 60.7205 84.322 60.7205 98.4961C60.7205 100.01 60.8516 101.494 61.1031 102.936C52.976 104.074 46.7217 111.053 46.7217 119.494C46.7217 128.729 54.2078 136.215 63.4424 136.215C63.5076 136.215 63.5728 136.215 63.6378 136.214L63.6369 136.215H122.354V136.214Z" fill="#E18700"/>
</g>
</g>
<g filter="url(#filter2_bd_1217_725)">
<mask id="path-5-inside-1_1217_725" fill="white">
<path fill-rule="evenodd" clip-rule="evenodd" d="M112.632 138.158C112.697 138.159 112.762 138.159 112.827 138.159C122.061 138.159 129.547 130.673 129.547 121.438C129.547 112.204 122.061 104.718 112.827 104.718C112.762 104.718 112.697 104.718 112.632 104.719V104.718H108.313C108.469 103.573 108.549 102.405 108.549 101.218C108.549 87.0439 97.0588 75.5535 82.8848 75.5535C68.7107 75.5535 57.2204 87.0439 57.2204 101.218C57.2204 102.555 57.3227 103.869 57.5199 105.151C56.2994 104.868 55.0276 104.718 53.7207 104.718C44.4861 104.718 37 112.204 37 121.438C37 130.673 44.4861 138.159 53.7207 138.159C53.786 138.159 53.8511 138.159 53.9161 138.158L53.9152 138.159H112.632V138.158Z"/>
</mask>
<path fill-rule="evenodd" clip-rule="evenodd" d="M112.632 138.158C112.697 138.159 112.762 138.159 112.827 138.159C122.061 138.159 129.547 130.673 129.547 121.438C129.547 112.204 122.061 104.718 112.827 104.718C112.762 104.718 112.697 104.718 112.632 104.719V104.718H108.313C108.469 103.573 108.549 102.405 108.549 101.218C108.549 87.0439 97.0588 75.5535 82.8848 75.5535C68.7107 75.5535 57.2204 87.0439 57.2204 101.218C57.2204 102.555 57.3227 103.869 57.5199 105.151C56.2994 104.868 55.0276 104.718 53.7207 104.718C44.4861 104.718 37 112.204 37 121.438C37 130.673 44.4861 138.159 53.7207 138.159C53.786 138.159 53.8511 138.159 53.9161 138.158L53.9152 138.159H112.632V138.158Z" fill="url(#paint3_linear_1217_725)" shape-rendering="crispEdges"/>
<path d="M112.632 138.158L112.655 136.158C112.121 136.152 111.606 136.36 111.226 136.736C110.846 137.112 110.632 137.624 110.632 138.158H112.632ZM112.632 104.719H110.632C110.632 105.253 110.846 105.765 111.226 106.141C111.606 106.517 112.121 106.725 112.655 106.719L112.632 104.719ZM112.632 104.718H114.632C114.632 103.613 113.737 102.718 112.632 102.718V104.718ZM108.313 104.718L106.331 104.447C106.253 105.02 106.426 105.598 106.806 106.033C107.186 106.468 107.735 106.718 108.313 106.718V104.718ZM57.5199 105.151L57.0673 107.099C57.7138 107.25 58.3928 107.069 58.8796 106.618C59.3664 106.167 59.5976 105.503 59.4967 104.847L57.5199 105.151ZM53.9161 138.158L55.4867 139.396C55.9636 138.791 56.0507 137.966 55.7106 137.275C55.3705 136.584 54.6636 136.149 53.8932 136.158L53.9161 138.158ZM53.9152 138.159L52.3446 136.921C51.8702 137.523 51.7813 138.343 52.1157 139.032C52.4501 139.721 53.149 140.159 53.9152 140.159V138.159ZM112.632 138.159V140.159C113.737 140.159 114.632 139.264 114.632 138.159H112.632ZM112.609 140.158C112.682 140.159 112.754 140.159 112.827 140.159V136.159C112.769 136.159 112.712 136.159 112.655 136.158L112.609 140.158ZM112.827 140.159C123.166 140.159 131.547 131.778 131.547 121.438H127.547C127.547 129.568 120.957 136.159 112.827 136.159V140.159ZM131.547 121.438C131.547 111.099 123.166 102.718 112.827 102.718V106.718C120.957 106.718 127.547 113.308 127.547 121.438H131.547ZM112.827 102.718C112.754 102.718 112.682 102.718 112.609 102.719L112.655 106.719C112.712 106.718 112.769 106.718 112.827 106.718V102.718ZM110.632 104.718V104.719H114.632V104.718H110.632ZM108.313 106.718H112.632V102.718H108.313V106.718ZM110.294 104.988C110.462 103.754 110.549 102.496 110.549 101.218H106.549C106.549 102.314 106.475 103.392 106.331 104.447L110.294 104.988ZM110.549 101.218C110.549 85.9393 98.1634 73.5535 82.8848 73.5535V77.5535C95.9543 77.5535 106.549 88.1484 106.549 101.218H110.549ZM82.8848 73.5535C67.6062 73.5535 55.2204 85.9393 55.2204 101.218H59.2204C59.2204 88.1484 69.8153 77.5535 82.8848 77.5535V73.5535ZM55.2204 101.218C55.2204 102.658 55.3305 104.073 55.5431 105.455L59.4967 104.847C59.3149 103.665 59.2204 102.453 59.2204 101.218H55.2204ZM57.9725 103.203C56.6046 102.885 55.181 102.718 53.7207 102.718V106.718C54.8741 106.718 55.9941 106.85 57.0673 107.099L57.9725 103.203ZM53.7207 102.718C43.3816 102.718 35 111.099 35 121.438H39C39 113.308 45.5907 106.718 53.7207 106.718V102.718ZM35 121.438C35 131.778 43.3816 140.159 53.7207 140.159V136.159C45.5907 136.159 39 129.568 39 121.438H35ZM53.7207 140.159C53.7936 140.159 53.8663 140.159 53.939 140.158L53.8932 136.158C53.8358 136.159 53.7783 136.159 53.7207 136.159V140.159ZM55.4858 139.397L55.4867 139.396L52.3455 136.92L52.3446 136.921L55.4858 139.397ZM112.632 136.159H53.9152V140.159H112.632V136.159ZM110.632 138.158V138.159H114.632V138.158H110.632Z" fill="url(#paint4_linear_1217_725)" mask="url(#path-5-inside-1_1217_725)"/>
</g>
<g filter="url(#filter3_bd_1217_725)">
<mask id="path-7-inside-2_1217_725" fill="white">
<path fill-rule="evenodd" clip-rule="evenodd" d="M142.987 120.797C143.034 120.798 143.081 120.798 143.128 120.798C149.801 120.798 155.212 115.388 155.212 108.714C155.212 102.04 149.801 96.6301 143.128 96.6301C143.081 96.6301 143.034 96.6304 142.987 96.6309V96.6301H139.866C139.978 95.8032 140.037 94.9589 140.037 94.1009C140.037 83.8575 131.733 75.5536 121.489 75.5536C111.246 75.5536 102.942 83.8575 102.942 94.1009C102.942 95.0675 103.016 96.0168 103.158 96.9434C102.276 96.7385 101.357 96.6301 100.413 96.6301C93.7388 96.6301 88.3286 102.04 88.3286 108.714C88.3286 115.388 93.7388 120.798 100.413 120.798C100.46 120.798 100.507 120.798 100.554 120.797L100.553 120.798H142.987V120.797Z"/>
</mask>
<path fill-rule="evenodd" clip-rule="evenodd" d="M142.987 120.797C143.034 120.798 143.081 120.798 143.128 120.798C149.801 120.798 155.212 115.388 155.212 108.714C155.212 102.04 149.801 96.6301 143.128 96.6301C143.081 96.6301 143.034 96.6304 142.987 96.6309V96.6301H139.866C139.978 95.8032 140.037 94.9589 140.037 94.1009C140.037 83.8575 131.733 75.5536 121.489 75.5536C111.246 75.5536 102.942 83.8575 102.942 94.1009C102.942 95.0675 103.016 96.0168 103.158 96.9434C102.276 96.7385 101.357 96.6301 100.413 96.6301C93.7388 96.6301 88.3286 102.04 88.3286 108.714C88.3286 115.388 93.7388 120.798 100.413 120.798C100.46 120.798 100.507 120.798 100.554 120.797L100.553 120.798H142.987V120.797Z" fill="url(#paint5_linear_1217_725)" shape-rendering="crispEdges"/>
<path d="M142.987 120.797L143.01 118.797C142.476 118.791 141.961 118.999 141.581 119.375C141.201 119.751 140.987 120.263 140.987 120.797H142.987ZM142.987 96.6309H140.987C140.987 97.1653 141.201 97.6775 141.581 98.0532C141.961 98.4289 142.476 98.6369 143.01 98.6308L142.987 96.6309ZM142.987 96.6301H144.987C144.987 95.5256 144.092 94.6301 142.987 94.6301V96.6301ZM139.866 96.6301L137.884 96.3599C137.806 96.9322 137.979 97.5103 138.359 97.9454C138.739 98.3805 139.288 98.6301 139.866 98.6301V96.6301ZM103.158 96.9434L102.706 98.8915C103.352 99.0418 104.031 98.8614 104.518 98.4101C105.005 97.9589 105.236 97.2955 105.135 96.6394L103.158 96.9434ZM100.554 120.797L102.125 122.035C102.601 121.429 102.688 120.605 102.348 119.914C102.008 119.223 101.301 118.788 100.531 118.797L100.554 120.797ZM100.553 120.798L98.9819 119.561C98.5079 120.162 98.4193 120.982 98.7538 121.671C99.0883 122.36 99.787 122.798 100.553 122.798V120.798ZM142.987 120.798V122.798C144.092 122.798 144.987 121.903 144.987 120.798H142.987ZM142.964 122.797C143.019 122.798 143.073 122.798 143.128 122.798V118.798C143.088 118.798 143.049 118.798 143.01 118.797L142.964 122.797ZM143.128 122.798C150.906 122.798 157.212 116.492 157.212 108.714H153.212C153.212 114.283 148.697 118.798 143.128 118.798V122.798ZM157.212 108.714C157.212 100.936 150.906 94.6301 143.128 94.6301V98.6301C148.697 98.6301 153.212 103.145 153.212 108.714H157.212ZM143.128 94.6301C143.073 94.6301 143.019 94.6305 142.964 94.6311L143.01 98.6308C143.049 98.6304 143.088 98.6301 143.128 98.6301V94.6301ZM140.987 96.6301V96.6309H144.987V96.6301H140.987ZM139.866 98.6301H142.987V94.6301H139.866V98.6301ZM141.847 96.9003C141.972 95.9841 142.037 95.0495 142.037 94.1009H138.037C138.037 94.8682 137.984 95.6223 137.884 96.3599L141.847 96.9003ZM142.037 94.1009C142.037 82.7529 132.837 73.5536 121.489 73.5536V77.5536C130.628 77.5536 138.037 84.9621 138.037 94.1009H142.037ZM121.489 73.5536C110.141 73.5536 100.942 82.7529 100.942 94.1009H104.942C104.942 84.9621 112.35 77.5536 121.489 77.5536V73.5536ZM100.942 94.1009C100.942 95.1696 101.024 96.2205 101.181 97.2475L105.135 96.6394C105.008 95.813 104.942 94.9653 104.942 94.1009H100.942ZM103.611 94.9953C102.581 94.7561 101.51 94.6301 100.413 94.6301V98.6301C101.204 98.6301 101.971 98.7208 102.706 98.8915L103.611 94.9953ZM100.413 94.6301C92.6342 94.6301 86.3286 100.936 86.3286 108.714H90.3286C90.3286 103.145 94.8433 98.6301 100.413 98.6301V94.6301ZM86.3286 108.714C86.3286 116.492 92.6342 122.798 100.413 122.798V118.798C94.8433 118.798 90.3286 114.283 90.3286 108.714H86.3286ZM100.413 122.798C100.467 122.798 100.522 122.798 100.577 122.797L100.531 118.797C100.491 118.798 100.452 118.798 100.413 118.798V122.798ZM102.124 122.035L102.125 122.035L98.9825 119.56L98.9819 119.561L102.124 122.035ZM142.987 118.798H100.553V122.798H142.987V118.798ZM140.987 120.797V120.798H144.987V120.797H140.987Z" fill="url(#paint6_linear_1217_725)" mask="url(#path-7-inside-2_1217_725)"/>
</g>
</g>
<defs>
<filter id="filter0_f_1217_725" x="36.5518" y="9" width="135.44" height="135.44" filterUnits="userSpaceOnUse" color-interpolation-filters="sRGB">
<feFlood flood-opacity="0" result="BackgroundImageFix"/>
<feBlend mode="normal" in="SourceGraphic" in2="BackgroundImageFix" result="shape"/>
<feGaussianBlur stdDeviation="22" result="effect1_foregroundBlur_1217_725"/>
</filter>
<filter id="filter1_f_1217_725" x="32.7217" y="58.8317" width="120.547" height="91.3832" filterUnits="userSpaceOnUse" color-interpolation-filters="sRGB">
<feFlood flood-opacity="0" result="BackgroundImageFix"/>
<feBlend mode="normal" in="SourceGraphic" in2="BackgroundImageFix" result="shape"/>
<feGaussianBlur stdDeviation="7" result="effect1_foregroundBlur_1217_725"/>
</filter>
<filter id="filter2_bd_1217_725" x="-34" y="40.5535" width="192.547" height="162.606" filterUnits="userSpaceOnUse" color-interpolation-filters="sRGB">
<feFlood flood-opacity="0" result="BackgroundImageFix"/>
<feGaussianBlur in="BackgroundImageFix" stdDeviation="7"/>
<feComposite in2="SourceAlpha" operator="in" result="effect1_backgroundBlur_1217_725"/>
<feColorMatrix in="SourceAlpha" type="matrix" values="0 0 0 0 0 0 0 0 0 0 0 0 0 0 0 0 0 0 127 0" result="hardAlpha"/>
<feOffset dx="-21" dy="15"/>
<feGaussianBlur stdDeviation="25"/>
<feComposite in2="hardAlpha" operator="out"/>
<feColorMatrix type="matrix" values="0 0 0 0 0.113725 0 0 0 0 0.14902 0 0 0 0 0.27451 0 0 0 0.25 0"/>
<feBlend mode="normal" in2="effect1_backgroundBlur_1217_725" result="effect2_dropShadow_1217_725"/>
<feBlend mode="normal" in="SourceGraphic" in2="effect2_dropShadow_1217_725" result="shape"/>
</filter>
<filter id="filter3_bd_1217_725" x="17.3286" y="40.5535" width="166.883" height="145.244" filterUnits="userSpaceOnUse" color-interpolation-filters="sRGB">
<feFlood flood-opacity="0" result="BackgroundImageFix"/>
<feGaussianBlur in="BackgroundImageFix" stdDeviation="7"/>
<feComposite in2="SourceAlpha" operator="in" result="effect1_backgroundBlur_1217_725"/>
<feColorMatrix in="SourceAlpha" type="matrix" values="0 0 0 0 0 0 0 0 0 0 0 0 0 0 0 0 0 0 127 0" result="hardAlpha"/>
<feOffset dx="-21" dy="15"/>
<feGaussianBlur stdDeviation="25"/>
<feComposite in2="hardAlpha" operator="out"/>
<feColorMatrix type="matrix" values="0 0 0 0 0.113438 0 0 0 0 0.148981 0 0 0 0 0.275 0 0 0 0.25 0"/>
<feBlend mode="normal" in2="effect1_backgroundBlur_1217_725" result="effect2_dropShadow_1217_725"/>
<feBlend mode="normal" in="SourceGraphic" in2="effect2_dropShadow_1217_725" result="shape"/>
</filter>
<linearGradient id="paint0_linear_1217_725" x1="104.272" y1="54.5554" x2="104.272" y2="100.44" gradientUnits="userSpaceOnUse">
<stop stop-color="#FFE600"/>
<stop offset="1" stop-color="#FF7A00"/>
</linearGradient>
<linearGradient id="paint1_linear_1217_725" x1="104.272" y1="54.5554" x2="104.272" y2="100.44" gradientUnits="userSpaceOnUse">
<stop stop-color="white"/>
<stop offset="1" stop-color="white" stop-opacity="0"/>
</linearGradient>
<linearGradient id="paint2_linear_1217_725" x1="104.272" y1="54.5554" x2="104.272" y2="100.44" gradientUnits="userSpaceOnUse">
<stop stop-color="#FFD600"/>
<stop offset="1" stop-color="#FF7A00"/>
</linearGradient>
<linearGradient id="paint3_linear_1217_725" x1="83.2737" y1="55.5275" x2="83.2737" y2="146.908" gradientUnits="userSpaceOnUse">
<stop stop-color="white"/>
<stop offset="1" stop-color="white" stop-opacity="0"/>
</linearGradient>
<linearGradient id="paint4_linear_1217_725" x1="83.2737" y1="75.5535" x2="83.2737" y2="138.159" gradientUnits="userSpaceOnUse">
<stop stop-color="white"/>
<stop offset="1" stop-color="white" stop-opacity="0"/>
</linearGradient>
<linearGradient id="paint5_linear_1217_725" x1="124.881" y1="76.9145" x2="124.881" y2="125.91" gradientUnits="userSpaceOnUse">
<stop stop-color="white"/>
<stop offset="1" stop-color="white" stop-opacity="0"/>
</linearGradient>
<linearGradient id="paint6_linear_1217_725" x1="121.77" y1="75.5535" x2="121.77" y2="120.798" gradientUnits="userSpaceOnUse">
<stop stop-color="white"/>
<stop offset="1" stop-color="white" stop-opacity="0"/>
</linearGradient>
<clipPath id="clip0_1217_725">
<rect width="192" height="192" fill="white"/>
</clipPath>
</defs>
</svg>
