<svg width="192" height="192" viewBox="0 0 192 192" fill="none" xmlns="http://www.w3.org/2000/svg">
<g clip-path="url(#clip0_1217_750)">
<g filter="url(#filter0_bdd_1217_750)">
<mask id="path-1-inside-1_1217_750" fill="white">
<path fill-rule="evenodd" clip-rule="evenodd" d="M93.0934 46.8853C93.9594 46.7767 94.4694 47.7961 93.9727 48.5138C89.6758 54.7232 88.8557 63.039 92.5509 70.2229C97.3946 79.6396 108.332 83.8761 118.07 80.5931C118.898 80.3141 119.737 81.0875 119.392 81.8899C117.16 87.0777 113.181 91.5509 107.767 94.3357C95.3828 100.706 80.1795 95.8304 73.8094 83.4461C67.4394 71.0619 72.3148 55.8586 84.699 49.4885C87.4032 48.0976 90.2418 47.2428 93.0934 46.8853Z"/>
</mask>
<path fill-rule="evenodd" clip-rule="evenodd" d="M93.0934 46.8853C93.9594 46.7767 94.4694 47.7961 93.9727 48.5138C89.6758 54.7232 88.8557 63.039 92.5509 70.2229C97.3946 79.6396 108.332 83.8761 118.07 80.5931C118.898 80.3141 119.737 81.0875 119.392 81.8899C117.16 87.0777 113.181 91.5509 107.767 94.3357C95.3828 100.706 80.1795 95.8304 73.8094 83.4461C67.4394 71.0619 72.3148 55.8586 84.699 49.4885C87.4032 48.0976 90.2418 47.2428 93.0934 46.8853Z" fill="url(#paint0_linear_1217_750)"/>
<path d="M118.07 80.5931L118.709 82.4883L118.07 80.5931ZM119.392 81.8899L117.555 81.0995L119.392 81.8899ZM93.9727 48.5138L92.3281 47.3757L93.9727 48.5138ZM93.0934 46.8853L93.3422 48.8698L93.0934 46.8853ZM94.3294 69.3081C90.9852 62.8065 91.7238 55.2783 95.6173 49.6519L92.3281 47.3757C87.6279 54.168 86.7263 63.2715 90.7724 71.1377L94.3294 69.3081ZM117.432 78.6979C108.617 81.6696 98.7139 77.832 94.3294 69.3081L90.7724 71.1377C96.0753 81.4473 108.048 86.0825 118.709 82.4883L117.432 78.6979ZM117.555 81.0995C115.5 85.8766 111.839 89.9924 106.852 92.5572L108.682 96.1143C114.524 93.1093 118.821 88.2787 121.229 82.6802L117.555 81.0995ZM106.852 92.5572C95.4503 98.4221 81.4528 93.9333 75.5879 82.5313L72.0309 84.361C78.9062 97.7274 95.3154 102.99 108.682 96.1143L106.852 92.5572ZM75.5879 82.5313C69.7231 71.1294 74.2119 57.1318 85.6138 51.267L83.7842 47.71C70.4177 54.5853 65.1556 70.9945 72.0309 84.361L75.5879 82.5313ZM85.6138 51.267C88.1067 49.9847 90.7195 49.1986 93.3422 48.8698L92.8447 44.9008C89.764 45.287 86.6996 46.2104 83.7842 47.71L85.6138 51.267ZM118.709 82.4883C118.367 82.6039 118.015 82.4981 117.787 82.28C117.535 82.0379 117.356 81.5616 117.555 81.0995L121.229 82.6802C121.773 81.4158 121.347 80.1515 120.555 79.3919C119.787 78.6563 118.602 78.3033 117.432 78.6979L118.709 82.4883ZM95.6173 49.6519C96.3196 48.6371 96.3088 47.4016 95.8151 46.4606C95.3053 45.4888 94.2095 44.7297 92.8447 44.9008L93.3422 48.8698C92.8434 48.9323 92.4355 48.6286 92.273 48.3189C92.1266 48.0398 92.1225 47.6729 92.3281 47.3757L95.6173 49.6519Z" fill="url(#paint1_linear_1217_750)" mask="url(#path-1-inside-1_1217_750)"/>
</g>
<mask id="mask0_1217_750" style="mask-type:alpha" maskUnits="userSpaceOnUse" x="81" y="78" width="47" height="34">
<path d="M127.214 89.0184C127.214 101.689 116.942 111.961 104.272 111.961C91.6008 111.961 81.3291 101.689 81.3291 89.0184C81.3291 76.3477 89.8509 79.2971 102.522 79.2971C115.192 79.2971 127.214 76.3477 127.214 89.0184Z" fill="url(#paint2_linear_1217_750)"/>
</mask>
<g mask="url(#mask0_1217_750)">
<g filter="url(#filter1_f_1217_750)">
<path fill-rule="evenodd" clip-rule="evenodd" d="M139.269 131.015C139.269 140.249 131.782 147.735 122.548 147.735C122.483 147.735 122.418 147.735 122.353 147.734V147.735H63.6363L63.6372 147.734C63.5722 147.735 63.5071 147.735 63.4419 147.735C54.2073 147.735 46.7212 140.249 46.7212 131.015C46.7212 121.78 54.2073 114.294 63.4419 114.294C71.4019 114.294 78.0627 119.856 79.7499 127.306L85.4121 120.127L103.105 114.294H122.353V114.295C122.418 114.294 122.483 114.294 122.548 114.294C131.782 114.294 139.269 121.78 139.269 131.015Z" fill="#E18700"/>
</g>
</g>
<g filter="url(#filter2_bd_1217_750)">
<mask id="path-5-inside-2_1217_750" fill="white">
<path fill-rule="evenodd" clip-rule="evenodd" d="M112.632 149.679C112.697 149.679 112.762 149.68 112.827 149.68C122.061 149.68 129.547 142.194 129.547 132.959C129.547 123.724 122.061 116.238 112.827 116.238C112.762 116.238 112.697 116.239 112.632 116.239V116.238H108.313C108.469 115.094 108.549 113.926 108.549 112.739C108.549 98.5645 97.0588 87.0742 82.8848 87.0742C68.7107 87.0742 57.2204 98.5645 57.2204 112.739C57.2204 114.076 57.3227 115.39 57.5199 116.672C56.2994 116.388 55.0276 116.238 53.7207 116.238C44.4861 116.238 37 123.724 37 132.959C37 142.194 44.4861 149.68 53.7207 149.68C53.7859 149.68 53.851 149.679 53.916 149.679L53.9151 149.68H112.632V149.679Z"/>
</mask>
<path fill-rule="evenodd" clip-rule="evenodd" d="M112.632 149.679C112.697 149.679 112.762 149.68 112.827 149.68C122.061 149.68 129.547 142.194 129.547 132.959C129.547 123.724 122.061 116.238 112.827 116.238C112.762 116.238 112.697 116.239 112.632 116.239V116.238H108.313C108.469 115.094 108.549 113.926 108.549 112.739C108.549 98.5645 97.0588 87.0742 82.8848 87.0742C68.7107 87.0742 57.2204 98.5645 57.2204 112.739C57.2204 114.076 57.3227 115.39 57.5199 116.672C56.2994 116.388 55.0276 116.238 53.7207 116.238C44.4861 116.238 37 123.724 37 132.959C37 142.194 44.4861 149.68 53.7207 149.68C53.7859 149.68 53.851 149.679 53.916 149.679L53.9151 149.68H112.632V149.679Z" fill="url(#paint3_linear_1217_750)" shape-rendering="crispEdges"/>
<path d="M112.632 149.679L112.655 147.679C112.121 147.673 111.606 147.881 111.226 148.256C110.846 148.632 110.632 149.144 110.632 149.679H112.632ZM112.632 116.239H110.632C110.632 116.774 110.846 117.286 111.226 117.662C111.606 118.037 112.121 118.245 112.655 118.239L112.632 116.239ZM112.632 116.238H114.632C114.632 115.134 113.737 114.238 112.632 114.238V116.238ZM108.313 116.238L106.331 115.968C106.253 116.54 106.426 117.118 106.806 117.553C107.186 117.989 107.735 118.238 108.313 118.238V116.238ZM57.5199 116.672L57.0673 118.62C57.7138 118.77 58.3928 118.59 58.8796 118.138C59.3664 117.687 59.5976 117.024 59.4966 116.368L57.5199 116.672ZM53.916 149.679L55.4866 150.917C55.9636 150.312 56.0506 149.487 55.7105 148.796C55.3704 148.104 54.6634 147.67 53.8931 147.679L53.916 149.679ZM53.9151 149.68L52.3445 148.442C51.8701 149.043 51.7812 149.863 52.1156 150.553C52.45 151.242 53.1489 151.68 53.9151 151.68V149.68ZM112.632 149.68V151.68C113.737 151.68 114.632 150.784 114.632 149.68H112.632ZM112.609 151.679C112.682 151.679 112.754 151.68 112.827 151.68V147.68C112.769 147.68 112.712 147.679 112.655 147.679L112.609 151.679ZM112.827 151.68C123.166 151.68 131.547 143.298 131.547 132.959H127.547C127.547 141.089 120.957 147.68 112.827 147.68V151.68ZM131.547 132.959C131.547 122.62 123.166 114.238 112.827 114.238V118.238C120.957 118.238 127.547 124.829 127.547 132.959H131.547ZM112.827 114.238C112.754 114.238 112.682 114.239 112.609 114.239L112.655 118.239C112.712 118.239 112.769 118.238 112.827 118.238V114.238ZM110.632 116.238V116.239H114.632V116.238H110.632ZM108.313 118.238H112.632V114.238H108.313V118.238ZM110.294 116.508C110.462 115.275 110.549 114.016 110.549 112.739H106.549C106.549 113.835 106.475 114.913 106.331 115.968L110.294 116.508ZM110.549 112.739C110.549 97.4599 98.1634 85.0742 82.8848 85.0742V89.0742C95.9543 89.0742 106.549 99.6691 106.549 112.739H110.549ZM82.8848 85.0742C67.6062 85.0742 55.2204 97.4599 55.2204 112.739H59.2204C59.2204 99.6691 69.8153 89.0742 82.8848 89.0742V85.0742ZM55.2204 112.739C55.2204 114.178 55.3305 115.593 55.5431 116.976L59.4966 116.368C59.3149 115.186 59.2204 113.974 59.2204 112.739H55.2204ZM57.9725 114.724C56.6046 114.406 55.181 114.238 53.7207 114.238V118.238C54.8741 118.238 55.9941 118.371 57.0673 118.62L57.9725 114.724ZM53.7207 114.238C43.3816 114.238 35 122.62 35 132.959H39C39 124.829 45.5907 118.238 53.7207 118.238V114.238ZM35 132.959C35 143.298 43.3816 151.68 53.7207 151.68V147.68C45.5907 147.68 39 141.089 39 132.959H35ZM53.7207 151.68C53.7936 151.68 53.8663 151.679 53.9389 151.679L53.8931 147.679C53.8357 147.679 53.7783 147.68 53.7207 147.68V151.68ZM55.4857 150.918L55.4866 150.917L52.3454 148.44L52.3445 148.442L55.4857 150.918ZM112.632 147.68H53.9151V151.68H112.632V147.68ZM110.632 149.679V149.68H114.632V149.679H110.632Z" fill="url(#paint4_linear_1217_750)" mask="url(#path-5-inside-2_1217_750)"/>
</g>
<g filter="url(#filter3_bd_1217_750)">
<mask id="path-7-inside-3_1217_750" fill="white">
<path fill-rule="evenodd" clip-rule="evenodd" d="M142.987 132.318C143.034 132.318 143.081 132.319 143.128 132.319C149.801 132.319 155.212 126.908 155.212 120.235C155.212 113.561 149.801 108.151 143.128 108.151C143.081 108.151 143.034 108.151 142.987 108.152V108.151H139.865C139.978 107.324 140.036 106.479 140.036 105.622C140.036 95.3781 131.733 87.0742 121.489 87.0742C111.246 87.0742 102.942 95.3781 102.942 105.622C102.942 106.588 103.016 107.537 103.158 108.464C102.276 108.259 101.357 108.151 100.413 108.151C93.7388 108.151 88.3286 113.561 88.3286 120.235C88.3286 126.908 93.7388 132.319 100.413 132.319C100.46 132.319 100.507 132.318 100.554 132.318L100.553 132.319H142.987V132.318Z"/>
</mask>
<path fill-rule="evenodd" clip-rule="evenodd" d="M142.987 132.318C143.034 132.318 143.081 132.319 143.128 132.319C149.801 132.319 155.212 126.908 155.212 120.235C155.212 113.561 149.801 108.151 143.128 108.151C143.081 108.151 143.034 108.151 142.987 108.152V108.151H139.865C139.978 107.324 140.036 106.479 140.036 105.622C140.036 95.3781 131.733 87.0742 121.489 87.0742C111.246 87.0742 102.942 95.3781 102.942 105.622C102.942 106.588 103.016 107.537 103.158 108.464C102.276 108.259 101.357 108.151 100.413 108.151C93.7388 108.151 88.3286 113.561 88.3286 120.235C88.3286 126.908 93.7388 132.319 100.413 132.319C100.46 132.319 100.507 132.318 100.554 132.318L100.553 132.319H142.987V132.318Z" fill="url(#paint5_linear_1217_750)" shape-rendering="crispEdges"/>
<path d="M142.987 132.318L143.01 130.318C142.476 130.312 141.961 130.52 141.581 130.895C141.201 131.271 140.987 131.783 140.987 132.318H142.987ZM142.987 108.152H140.987C140.987 108.686 141.201 109.198 141.581 109.574C141.961 109.95 142.476 110.158 143.01 110.151L142.987 108.152ZM142.987 108.151H144.987C144.987 107.046 144.092 106.151 142.987 106.151V108.151ZM139.865 108.151L137.884 107.881C137.806 108.453 137.979 109.031 138.359 109.466C138.739 109.901 139.288 110.151 139.865 110.151V108.151ZM103.158 108.464L102.706 110.412C103.352 110.562 104.031 110.382 104.518 109.931C105.005 109.479 105.236 108.816 105.135 108.16L103.158 108.464ZM100.554 132.318L102.125 133.555C102.601 132.95 102.688 132.125 102.348 131.434C102.008 130.743 101.301 130.309 100.531 130.318L100.554 132.318ZM100.553 132.319L98.9818 131.081C98.5078 131.683 98.4192 132.503 98.7537 133.192C99.0882 133.881 99.7869 134.319 100.553 134.319V132.319ZM142.987 132.319V134.319C144.092 134.319 144.987 133.423 144.987 132.319H142.987ZM142.964 134.318C143.019 134.318 143.073 134.319 143.128 134.319V130.319C143.088 130.319 143.049 130.318 143.01 130.318L142.964 134.318ZM143.128 134.319C150.906 134.319 157.212 128.013 157.212 120.235H153.212C153.212 125.804 148.697 130.319 143.128 130.319V134.319ZM157.212 120.235C157.212 112.456 150.906 106.151 143.128 106.151V110.151C148.697 110.151 153.212 114.665 153.212 120.235H157.212ZM143.128 106.151C143.073 106.151 143.019 106.151 142.964 106.152L143.01 110.151C143.049 110.151 143.088 110.151 143.128 110.151V106.151ZM140.987 108.151V108.152H144.987V108.151H140.987ZM139.865 110.151H142.987V106.151H139.865V110.151ZM141.847 108.421C141.972 107.505 142.036 106.57 142.036 105.622H138.036C138.036 106.389 137.984 107.143 137.884 107.881L141.847 108.421ZM142.036 105.622C142.036 94.2735 132.837 85.0742 121.489 85.0742V89.0742C130.628 89.0742 138.036 96.4827 138.036 105.622H142.036ZM121.489 85.0742C110.141 85.0742 100.942 94.2735 100.942 105.622H104.942C104.942 96.4827 112.35 89.0742 121.489 89.0742V85.0742ZM100.942 105.622C100.942 106.69 101.024 107.741 101.181 108.768L105.135 108.16C105.008 107.334 104.942 106.486 104.942 105.622H100.942ZM103.611 106.516C102.581 106.277 101.51 106.151 100.413 106.151V110.151C101.204 110.151 101.971 110.241 102.706 110.412L103.611 106.516ZM100.413 106.151C92.6342 106.151 86.3286 112.456 86.3286 120.235H90.3286C90.3286 114.665 94.8433 110.151 100.413 110.151V106.151ZM86.3286 120.235C86.3286 128.013 92.6342 134.319 100.413 134.319V130.319C94.8433 130.319 90.3286 125.804 90.3286 120.235H86.3286ZM100.413 134.319C100.467 134.319 100.522 134.318 100.577 134.318L100.531 130.318C100.491 130.318 100.452 130.319 100.413 130.319V134.319ZM102.124 133.556L102.125 133.555L98.9824 131.08L98.9818 131.081L102.124 133.556ZM142.987 130.319H100.553V134.319H142.987V130.319ZM140.987 132.318V132.319H144.987V132.318H140.987Z" fill="url(#paint6_linear_1217_750)" mask="url(#path-7-inside-3_1217_750)"/>
</g>
</g>
<defs>
<filter id="filter0_bdd_1217_750" x="0.0117188" y="8.87732" width="157.46" height="153.256" filterUnits="userSpaceOnUse" color-interpolation-filters="sRGB">
<feFlood flood-opacity="0" result="BackgroundImageFix"/>
<feGaussianBlur in="BackgroundImageFix" stdDeviation="7"/>
<feComposite in2="SourceAlpha" operator="in" result="effect1_backgroundBlur_1217_750"/>
<feColorMatrix in="SourceAlpha" type="matrix" values="0 0 0 0 0 0 0 0 0 0 0 0 0 0 0 0 0 0 127 0" result="hardAlpha"/>
<feOffset dx="-21" dy="15"/>
<feGaussianBlur stdDeviation="25"/>
<feComposite in2="hardAlpha" operator="out"/>
<feColorMatrix type="matrix" values="0 0 0 0 0.113438 0 0 0 0 0.148981 0 0 0 0 0.275 0 0 0 0.25 0"/>
<feBlend mode="normal" in2="effect1_backgroundBlur_1217_750" result="effect2_dropShadow_1217_750"/>
<feColorMatrix in="SourceAlpha" type="matrix" values="0 0 0 0 0 0 0 0 0 0 0 0 0 0 0 0 0 0 127 0" result="hardAlpha"/>
<feOffset/>
<feGaussianBlur stdDeviation="19"/>
<feComposite in2="hardAlpha" operator="out"/>
<feColorMatrix type="matrix" values="0 0 0 0 0.619608 0 0 0 0 0.423529 0 0 0 0 1 0 0 0 0.4 0"/>
<feBlend mode="normal" in2="effect2_dropShadow_1217_750" result="effect3_dropShadow_1217_750"/>
<feBlend mode="normal" in="SourceGraphic" in2="effect3_dropShadow_1217_750" result="shape"/>
</filter>
<filter id="filter1_f_1217_750" x="32.7212" y="100.294" width="120.547" height="61.4415" filterUnits="userSpaceOnUse" color-interpolation-filters="sRGB">
<feFlood flood-opacity="0" result="BackgroundImageFix"/>
<feBlend mode="normal" in="SourceGraphic" in2="BackgroundImageFix" result="shape"/>
<feGaussianBlur stdDeviation="7" result="effect1_foregroundBlur_1217_750"/>
</filter>
<filter id="filter2_bd_1217_750" x="-34" y="52.0742" width="192.547" height="162.606" filterUnits="userSpaceOnUse" color-interpolation-filters="sRGB">
<feFlood flood-opacity="0" result="BackgroundImageFix"/>
<feGaussianBlur in="BackgroundImageFix" stdDeviation="7"/>
<feComposite in2="SourceAlpha" operator="in" result="effect1_backgroundBlur_1217_750"/>
<feColorMatrix in="SourceAlpha" type="matrix" values="0 0 0 0 0 0 0 0 0 0 0 0 0 0 0 0 0 0 127 0" result="hardAlpha"/>
<feOffset dx="-21" dy="15"/>
<feGaussianBlur stdDeviation="25"/>
<feComposite in2="hardAlpha" operator="out"/>
<feColorMatrix type="matrix" values="0 0 0 0 0.113725 0 0 0 0 0.14902 0 0 0 0 0.27451 0 0 0 0.25 0"/>
<feBlend mode="normal" in2="effect1_backgroundBlur_1217_750" result="effect2_dropShadow_1217_750"/>
<feBlend mode="normal" in="SourceGraphic" in2="effect2_dropShadow_1217_750" result="shape"/>
</filter>
<filter id="filter3_bd_1217_750" x="17.3286" y="52.0742" width="166.883" height="145.244" filterUnits="userSpaceOnUse" color-interpolation-filters="sRGB">
<feFlood flood-opacity="0" result="BackgroundImageFix"/>
<feGaussianBlur in="BackgroundImageFix" stdDeviation="7"/>
<feComposite in2="SourceAlpha" operator="in" result="effect1_backgroundBlur_1217_750"/>
<feColorMatrix in="SourceAlpha" type="matrix" values="0 0 0 0 0 0 0 0 0 0 0 0 0 0 0 0 0 0 127 0" result="hardAlpha"/>
<feOffset dx="-21" dy="15"/>
<feGaussianBlur stdDeviation="25"/>
<feComposite in2="hardAlpha" operator="out"/>
<feColorMatrix type="matrix" values="0 0 0 0 0.113438 0 0 0 0 0.148981 0 0 0 0 0.275 0 0 0 0.25 0"/>
<feBlend mode="normal" in2="effect1_backgroundBlur_1217_750" result="effect2_dropShadow_1217_750"/>
<feBlend mode="normal" in="SourceGraphic" in2="effect2_dropShadow_1217_750" result="shape"/>
</filter>
<linearGradient id="paint0_linear_1217_750" x1="80.13" y1="52.3382" x2="103.198" y2="97.1855" gradientUnits="userSpaceOnUse">
<stop offset="0.0001" stop-color="#D4C0FF"/>
<stop offset="1" stop-color="#7E2FFF"/>
</linearGradient>
<linearGradient id="paint1_linear_1217_750" x1="82.7404" y1="27.6274" x2="97.2036" y2="86.4856" gradientUnits="userSpaceOnUse">
<stop stop-color="white"/>
<stop offset="1" stop-color="white" stop-opacity="0"/>
</linearGradient>
<linearGradient id="paint2_linear_1217_750" x1="104.272" y1="66.076" x2="104.272" y2="111.961" gradientUnits="userSpaceOnUse">
<stop stop-color="#FFD600"/>
<stop offset="1" stop-color="#FF7A00"/>
</linearGradient>
<linearGradient id="paint3_linear_1217_750" x1="83.2737" y1="67.0482" x2="83.2737" y2="158.429" gradientUnits="userSpaceOnUse">
<stop stop-color="white"/>
<stop offset="1" stop-color="white" stop-opacity="0"/>
</linearGradient>
<linearGradient id="paint4_linear_1217_750" x1="83.2737" y1="87.0742" x2="83.2737" y2="149.68" gradientUnits="userSpaceOnUse">
<stop stop-color="white"/>
<stop offset="1" stop-color="white" stop-opacity="0"/>
</linearGradient>
<linearGradient id="paint5_linear_1217_750" x1="124.881" y1="88.4351" x2="124.881" y2="137.431" gradientUnits="userSpaceOnUse">
<stop stop-color="white"/>
<stop offset="1" stop-color="white" stop-opacity="0"/>
</linearGradient>
<linearGradient id="paint6_linear_1217_750" x1="121.77" y1="87.0742" x2="121.77" y2="132.319" gradientUnits="userSpaceOnUse">
<stop stop-color="white"/>
<stop offset="1" stop-color="white" stop-opacity="0"/>
</linearGradient>
<clipPath id="clip0_1217_750">
<rect width="192" height="192" fill="white"/>
</clipPath>
</defs>
</svg>
