<svg width="192" height="192" viewBox="0 0 192 192" fill="none" xmlns="http://www.w3.org/2000/svg">
<g clip-path="url(#clip0_1217_744)">
<g filter="url(#filter0_bd_1217_744)">
<mask id="path-1-inside-1_1217_744" fill="white">
<path fill-rule="evenodd" clip-rule="evenodd" d="M83.6585 103.244C83.7053 103.244 83.7521 103.244 83.799 103.244C90.4728 103.244 95.8829 97.8342 95.8829 91.1604C95.8829 84.4867 90.4728 79.0765 83.799 79.0765C83.7521 79.0765 83.7053 79.0768 83.6585 79.0773V79.0765H80.5368C80.6496 78.2496 80.7078 77.4053 80.7078 76.5474C80.7078 66.3039 72.4039 58 62.1605 58C51.917 58 43.6131 66.3039 43.6131 76.5474C43.6131 77.5139 43.687 78.4632 43.8295 79.3898C42.9475 79.1849 42.0283 79.0765 41.0839 79.0765C34.4101 79.0765 29 84.4867 29 91.1604C29 97.8342 34.4101 103.244 41.0839 103.244C41.131 103.244 41.178 103.244 41.225 103.244L41.2244 103.244H83.6585V103.244Z"/>
</mask>
<path fill-rule="evenodd" clip-rule="evenodd" d="M83.6585 103.244C83.7053 103.244 83.7521 103.244 83.799 103.244C90.4728 103.244 95.8829 97.8342 95.8829 91.1604C95.8829 84.4867 90.4728 79.0765 83.799 79.0765C83.7521 79.0765 83.7053 79.0768 83.6585 79.0773V79.0765H80.5368C80.6496 78.2496 80.7078 77.4053 80.7078 76.5474C80.7078 66.3039 72.4039 58 62.1605 58C51.917 58 43.6131 66.3039 43.6131 76.5474C43.6131 77.5139 43.687 78.4632 43.8295 79.3898C42.9475 79.1849 42.0283 79.0765 41.0839 79.0765C34.4101 79.0765 29 84.4867 29 91.1604C29 97.8342 34.4101 103.244 41.0839 103.244C41.131 103.244 41.178 103.244 41.225 103.244L41.2244 103.244H83.6585V103.244Z" fill="url(#paint0_linear_1217_744)" shape-rendering="crispEdges"/>
<path d="M83.6585 103.244L83.6814 101.244C83.147 101.238 82.6324 101.446 82.2524 101.821C81.8724 102.197 81.6585 102.709 81.6585 103.244H83.6585ZM83.6585 79.0773H81.6585C81.6585 79.6117 81.8724 80.1239 82.2524 80.4996C82.6324 80.8753 83.1469 81.0833 83.6813 81.0772L83.6585 79.0773ZM83.6585 79.0765H85.6585C85.6585 77.972 84.7631 77.0765 83.6585 77.0765V79.0765ZM80.5368 79.0765L78.5552 78.8063C78.4771 79.3786 78.6503 79.9567 79.0301 80.3918C79.4099 80.8269 79.9593 81.0765 80.5368 81.0765V79.0765ZM43.8295 79.3898L43.3769 81.3379C44.0235 81.4882 44.7024 81.3078 45.1892 80.8565C45.676 80.4053 45.9072 79.7419 45.8063 79.0858L43.8295 79.3898ZM41.225 103.244L42.7962 104.481C43.2728 103.876 43.3595 103.051 43.0193 102.36C42.679 101.669 41.9723 101.235 41.2021 101.244L41.225 103.244ZM41.2244 103.244L39.6531 102.007C39.1792 102.609 39.0906 103.428 39.4251 104.118C39.7596 104.807 40.4583 105.244 41.2244 105.244V103.244ZM83.6585 103.244V105.244C84.7631 105.244 85.6585 104.349 85.6585 103.244H83.6585ZM83.6357 105.243C83.6901 105.244 83.7445 105.244 83.799 105.244V101.244C83.7597 101.244 83.7205 101.244 83.6814 101.244L83.6357 105.243ZM83.799 105.244C91.5774 105.244 97.8829 98.9388 97.8829 91.1604H93.8829C93.8829 96.7296 89.3682 101.244 83.799 101.244V105.244ZM97.8829 91.1604C97.8829 83.3821 91.5774 77.0765 83.799 77.0765V81.0765C89.3682 81.0765 93.8829 85.5913 93.8829 91.1604H97.8829ZM83.799 77.0765C83.7445 77.0765 83.6901 77.0768 83.6358 77.0775L83.6813 81.0772C83.7205 81.0768 83.7597 81.0765 83.799 81.0765V77.0765ZM81.6585 79.0765V79.0773H85.6585V79.0765H81.6585ZM80.5368 81.0765H83.6585V77.0765H80.5368V81.0765ZM82.5185 79.3467C82.6434 78.4305 82.7078 77.4959 82.7078 76.5474H78.7078C78.7078 77.3147 78.6558 78.0687 78.5552 78.8063L82.5185 79.3467ZM82.7078 76.5474C82.7078 65.1994 73.5085 56 62.1605 56V60C71.2993 60 78.7078 67.4085 78.7078 76.5474H82.7078ZM62.1605 56C50.8125 56 41.6131 65.1994 41.6131 76.5474H45.6131C45.6131 67.4085 53.0216 60 62.1605 60V56ZM41.6131 76.5474C41.6131 77.616 41.6948 78.6669 41.8528 79.6938L45.8063 79.0858C45.6792 78.2594 45.6131 77.4118 45.6131 76.5474H41.6131ZM44.2822 77.4417C43.2527 77.2025 42.1818 77.0765 41.0839 77.0765V81.0765C41.8749 81.0765 42.6422 81.1672 43.3769 81.3379L44.2822 77.4417ZM41.0839 77.0765C33.3056 77.0765 27 83.3821 27 91.1604H31C31 85.5913 35.5147 81.0765 41.0839 81.0765V77.0765ZM27 91.1604C27 98.9388 33.3056 105.244 41.0839 105.244V101.244C35.5147 101.244 31 96.7296 31 91.1604H27ZM41.0839 105.244C41.1387 105.244 41.1933 105.244 41.2479 105.243L41.2021 101.244C41.1627 101.244 41.1233 101.244 41.0839 101.244V105.244ZM42.7956 104.482L42.7962 104.481L39.6538 102.006L39.6531 102.007L42.7956 104.482ZM83.6585 101.244H41.2244V105.244H83.6585V101.244ZM81.6585 103.244V103.244H85.6585V103.244H81.6585Z" fill="url(#paint1_linear_1217_744)" mask="url(#path-1-inside-1_1217_744)"/>
</g>
<g filter="url(#filter1_bd_1217_744)">
<mask id="path-3-inside-2_1217_744" fill="white">
<path fill-rule="evenodd" clip-rule="evenodd" d="M120.186 134.214C120.251 134.215 120.316 134.216 120.381 134.216C129.616 134.216 137.102 126.729 137.102 117.495C137.102 108.26 129.616 100.774 120.381 100.774C120.316 100.774 120.251 100.774 120.186 100.775V100.774H115.867C116.023 99.6297 116.103 98.4614 116.103 97.2743C116.103 83.1002 104.613 71.6099 90.4391 71.6099C76.265 71.6099 64.7747 83.1002 64.7747 97.2743C64.7747 98.6117 64.877 99.9253 65.0742 101.208C63.8536 100.924 62.5818 100.774 61.2749 100.774C52.0403 100.774 44.5542 108.26 44.5542 117.495C44.5542 126.729 52.0403 134.216 61.2749 134.216C61.3401 134.216 61.4052 134.215 61.4703 134.214L61.4694 134.216H120.186V134.214Z"/>
</mask>
<path fill-rule="evenodd" clip-rule="evenodd" d="M120.186 134.214C120.251 134.215 120.316 134.216 120.381 134.216C129.616 134.216 137.102 126.729 137.102 117.495C137.102 108.26 129.616 100.774 120.381 100.774C120.316 100.774 120.251 100.774 120.186 100.775V100.774H115.867C116.023 99.6297 116.103 98.4614 116.103 97.2743C116.103 83.1002 104.613 71.6099 90.4391 71.6099C76.265 71.6099 64.7747 83.1002 64.7747 97.2743C64.7747 98.6117 64.877 99.9253 65.0742 101.208C63.8536 100.924 62.5818 100.774 61.2749 100.774C52.0403 100.774 44.5542 108.26 44.5542 117.495C44.5542 126.729 52.0403 134.216 61.2749 134.216C61.3401 134.216 61.4052 134.215 61.4703 134.214L61.4694 134.216H120.186V134.214Z" fill="url(#paint2_linear_1217_744)" shape-rendering="crispEdges"/>
<path d="M120.186 134.214L120.209 132.215C119.675 132.208 119.16 132.416 118.78 132.792C118.4 133.168 118.186 133.68 118.186 134.214H120.186ZM120.186 100.775H118.186C118.186 101.31 118.4 101.822 118.78 102.197C119.16 102.573 119.675 102.781 120.209 102.775L120.186 100.775ZM120.186 100.774H122.186C122.186 99.6694 121.291 98.774 120.186 98.774V100.774ZM115.867 100.774L113.885 100.504C113.807 101.076 113.98 101.654 114.36 102.089C114.74 102.524 115.289 102.774 115.867 102.774V100.774ZM65.0742 101.208L64.6216 103.156C65.2681 103.306 65.9471 103.126 66.4339 102.674C66.9207 102.223 67.1519 101.56 67.051 100.904L65.0742 101.208ZM61.4703 134.214L63.0408 135.453C63.5178 134.848 63.6049 134.023 63.2647 133.331C62.9246 132.64 62.2177 132.206 61.4474 132.215L61.4703 134.214ZM61.4694 134.216L59.8988 132.977C59.4244 133.579 59.3355 134.399 59.6699 135.088C60.0042 135.778 60.7031 136.216 61.4694 136.216V134.216ZM120.186 134.216V136.216C121.291 136.216 122.186 135.32 122.186 134.216H120.186ZM120.164 136.214C120.236 136.215 120.308 136.216 120.381 136.216V132.216C120.324 132.216 120.266 132.215 120.209 132.215L120.164 136.214ZM120.381 136.216C130.72 136.216 139.102 127.834 139.102 117.495H135.102C135.102 125.625 128.511 132.216 120.381 132.216V136.216ZM139.102 117.495C139.102 107.156 130.72 98.774 120.381 98.774V102.774C128.511 102.774 135.102 109.365 135.102 117.495H139.102ZM120.381 98.774C120.308 98.774 120.236 98.7744 120.164 98.7753L120.209 102.775C120.266 102.774 120.324 102.774 120.381 102.774V98.774ZM118.186 100.774V100.775H122.186V100.774H118.186ZM115.867 102.774H120.186V98.774H115.867V102.774ZM117.848 101.044C118.017 99.8106 118.103 98.552 118.103 97.2743H114.103C114.103 98.3708 114.029 99.4488 113.885 100.504L117.848 101.044ZM118.103 97.2743C118.103 81.9956 105.718 69.6099 90.4391 69.6099V73.6099C103.509 73.6099 114.103 84.2048 114.103 97.2743H118.103ZM90.4391 69.6099C75.1604 69.6099 62.7747 81.9956 62.7747 97.2743H66.7747C66.7747 84.2048 77.3696 73.6099 90.4391 73.6099V69.6099ZM62.7747 97.2743C62.7747 98.7138 62.8848 100.129 63.0974 101.512L67.051 100.904C66.8692 99.7215 66.7747 98.5096 66.7747 97.2743H62.7747ZM65.5268 99.2594C64.1589 98.9416 62.7352 98.774 61.2749 98.774V102.774C62.4284 102.774 63.5484 102.906 64.6216 103.156L65.5268 99.2594ZM61.2749 98.774C50.9358 98.774 42.5542 107.156 42.5542 117.495H46.5542C46.5542 109.365 53.1449 102.774 61.2749 102.774V98.774ZM42.5542 117.495C42.5542 127.834 50.9358 136.216 61.2749 136.216V132.216C53.1449 132.216 46.5542 125.625 46.5542 117.495H42.5542ZM61.2749 136.216C61.3478 136.216 61.4205 136.215 61.4931 136.214L61.4474 132.215C61.39 132.215 61.3325 132.216 61.2749 132.216V136.216ZM63.04 135.454L63.0408 135.453L59.8997 132.976L59.8988 132.977L63.04 135.454ZM120.186 132.216H61.4694V136.216H120.186V132.216ZM118.186 134.214V134.216H122.186V134.214H118.186Z" fill="url(#paint3_linear_1217_744)" mask="url(#path-3-inside-2_1217_744)"/>
</g>
<g filter="url(#filter2_bd_1217_744)">
<mask id="path-5-inside-3_1217_744" fill="white">
<path fill-rule="evenodd" clip-rule="evenodd" d="M150.541 116.853C150.588 116.854 150.635 116.854 150.682 116.854C157.356 116.854 162.766 111.444 162.766 104.77C162.766 98.0966 157.356 92.6865 150.682 92.6865C150.635 92.6865 150.588 92.6868 150.541 92.6873V92.6865H147.42C147.532 91.8595 147.591 91.0152 147.591 90.1572C147.591 79.9138 139.287 71.6099 129.043 71.6099C118.8 71.6099 110.496 79.9138 110.496 90.1572C110.496 91.1238 110.57 92.0731 110.712 92.9998C109.83 92.7948 108.911 92.6865 107.967 92.6865C101.293 92.6865 95.8828 98.0966 95.8828 104.77C95.8828 111.444 101.293 116.854 107.967 116.854C108.014 116.854 108.061 116.854 108.108 116.853L108.107 116.854H150.541V116.853Z"/>
</mask>
<path fill-rule="evenodd" clip-rule="evenodd" d="M150.541 116.853C150.588 116.854 150.635 116.854 150.682 116.854C157.356 116.854 162.766 111.444 162.766 104.77C162.766 98.0966 157.356 92.6865 150.682 92.6865C150.635 92.6865 150.588 92.6868 150.541 92.6873V92.6865H147.42C147.532 91.8595 147.591 91.0152 147.591 90.1572C147.591 79.9138 139.287 71.6099 129.043 71.6099C118.8 71.6099 110.496 79.9138 110.496 90.1572C110.496 91.1238 110.57 92.0731 110.712 92.9998C109.83 92.7948 108.911 92.6865 107.967 92.6865C101.293 92.6865 95.8828 98.0966 95.8828 104.77C95.8828 111.444 101.293 116.854 107.967 116.854C108.014 116.854 108.061 116.854 108.108 116.853L108.107 116.854H150.541V116.853Z" fill="url(#paint4_linear_1217_744)" shape-rendering="crispEdges"/>
<path d="M150.541 116.853L150.564 114.854C150.03 114.848 149.515 115.056 149.135 115.431C148.755 115.807 148.541 116.319 148.541 116.853H150.541ZM150.541 92.6873H148.541C148.541 93.2217 148.755 93.7338 149.135 94.1095C149.515 94.4852 150.03 94.6932 150.564 94.6872L150.541 92.6873ZM150.541 92.6865H152.541C152.541 91.5819 151.646 90.6865 150.541 90.6865V92.6865ZM147.42 92.6865L145.438 92.4163C145.36 92.9886 145.533 93.5666 145.913 94.0017C146.293 94.4368 146.842 94.6865 147.42 94.6865V92.6865ZM110.712 92.9998L110.26 94.9479C110.906 95.0981 111.585 94.9178 112.072 94.4665C112.559 94.0152 112.79 93.3518 112.689 92.6958L110.712 92.9998ZM108.108 116.853L109.679 118.091C110.156 117.486 110.242 116.661 109.902 115.97C109.562 115.279 108.855 114.845 108.085 114.854L108.108 116.853ZM108.107 116.854L106.536 115.617C106.062 116.219 105.974 117.038 106.308 117.728C106.642 118.417 107.341 118.854 108.107 118.854V116.854ZM150.541 116.854V118.854C151.646 118.854 152.541 117.959 152.541 116.854H150.541ZM150.519 118.853C150.573 118.854 150.627 118.854 150.682 118.854V114.854C150.642 114.854 150.603 114.854 150.564 114.854L150.519 118.853ZM150.682 118.854C158.46 118.854 164.766 112.549 164.766 104.77H160.766C160.766 110.34 156.251 114.854 150.682 114.854V118.854ZM164.766 104.77C164.766 96.9921 158.46 90.6865 150.682 90.6865V94.6865C156.251 94.6865 160.766 99.2012 160.766 104.77H164.766ZM150.682 90.6865C150.627 90.6865 150.573 90.6868 150.519 90.6874L150.564 94.6872C150.603 94.6867 150.643 94.6865 150.682 94.6865V90.6865ZM148.541 92.6865V92.6873H152.541V92.6865H148.541ZM147.42 94.6865H150.541V90.6865H147.42V94.6865ZM149.401 92.9567C149.526 92.0404 149.591 91.1058 149.591 90.1572H145.591C145.591 90.9245 145.539 91.6786 145.438 92.4163L149.401 92.9567ZM149.591 90.1572C149.591 78.8092 140.391 69.6099 129.043 69.6099V73.6099C138.182 73.6099 145.591 81.0184 145.591 90.1572H149.591ZM129.043 69.6099C117.695 69.6099 108.496 78.8092 108.496 90.1572H112.496C112.496 81.0184 119.904 73.6099 129.043 73.6099V69.6099ZM108.496 90.1572C108.496 91.2259 108.578 92.2769 108.736 93.3038L112.689 92.6958C112.562 91.8693 112.496 91.0217 112.496 90.1572H108.496ZM111.165 91.0517C110.136 90.8125 109.065 90.6865 107.967 90.6865V94.6865C108.758 94.6865 109.525 94.7772 110.26 94.9479L111.165 91.0517ZM107.967 90.6865C100.188 90.6865 93.8828 96.9921 93.8828 104.77H97.8828C97.8828 99.2012 102.398 94.6865 107.967 94.6865V90.6865ZM93.8828 104.77C93.8828 112.549 100.188 118.854 107.967 118.854V114.854C102.398 114.854 97.8828 110.34 97.8828 104.77H93.8828ZM107.967 118.854C108.022 118.854 108.076 118.854 108.131 118.853L108.085 114.854C108.046 114.854 108.006 114.854 107.967 114.854V118.854ZM109.679 118.092L109.679 118.091L106.537 115.616L106.536 115.617L109.679 118.092ZM150.541 114.854H108.107V118.854H150.541V114.854ZM148.541 116.853V116.854H152.541V116.853H148.541Z" fill="url(#paint5_linear_1217_744)" mask="url(#path-5-inside-3_1217_744)"/>
</g>
</g>
<defs>
<filter id="filter0_bd_1217_744" x="-42" y="23" width="166.883" height="145.244" filterUnits="userSpaceOnUse" color-interpolation-filters="sRGB">
<feFlood flood-opacity="0" result="BackgroundImageFix"/>
<feGaussianBlur in="BackgroundImageFix" stdDeviation="7"/>
<feComposite in2="SourceAlpha" operator="in" result="effect1_backgroundBlur_1217_744"/>
<feColorMatrix in="SourceAlpha" type="matrix" values="0 0 0 0 0 0 0 0 0 0 0 0 0 0 0 0 0 0 127 0" result="hardAlpha"/>
<feOffset dx="-21" dy="15"/>
<feGaussianBlur stdDeviation="25"/>
<feComposite in2="hardAlpha" operator="out"/>
<feColorMatrix type="matrix" values="0 0 0 0 0.113438 0 0 0 0 0.148981 0 0 0 0 0.275 0 0 0 0.25 0"/>
<feBlend mode="normal" in2="effect1_backgroundBlur_1217_744" result="effect2_dropShadow_1217_744"/>
<feBlend mode="normal" in="SourceGraphic" in2="effect2_dropShadow_1217_744" result="shape"/>
</filter>
<filter id="filter1_bd_1217_744" x="-26.4458" y="36.6099" width="192.547" height="162.606" filterUnits="userSpaceOnUse" color-interpolation-filters="sRGB">
<feFlood flood-opacity="0" result="BackgroundImageFix"/>
<feGaussianBlur in="BackgroundImageFix" stdDeviation="7"/>
<feComposite in2="SourceAlpha" operator="in" result="effect1_backgroundBlur_1217_744"/>
<feColorMatrix in="SourceAlpha" type="matrix" values="0 0 0 0 0 0 0 0 0 0 0 0 0 0 0 0 0 0 127 0" result="hardAlpha"/>
<feOffset dx="-21" dy="15"/>
<feGaussianBlur stdDeviation="25"/>
<feComposite in2="hardAlpha" operator="out"/>
<feColorMatrix type="matrix" values="0 0 0 0 0.113725 0 0 0 0 0.14902 0 0 0 0 0.27451 0 0 0 0.25 0"/>
<feBlend mode="normal" in2="effect1_backgroundBlur_1217_744" result="effect2_dropShadow_1217_744"/>
<feBlend mode="normal" in="SourceGraphic" in2="effect2_dropShadow_1217_744" result="shape"/>
</filter>
<filter id="filter2_bd_1217_744" x="24.8828" y="36.6099" width="166.883" height="145.244" filterUnits="userSpaceOnUse" color-interpolation-filters="sRGB">
<feFlood flood-opacity="0" result="BackgroundImageFix"/>
<feGaussianBlur in="BackgroundImageFix" stdDeviation="7"/>
<feComposite in2="SourceAlpha" operator="in" result="effect1_backgroundBlur_1217_744"/>
<feColorMatrix in="SourceAlpha" type="matrix" values="0 0 0 0 0 0 0 0 0 0 0 0 0 0 0 0 0 0 127 0" result="hardAlpha"/>
<feOffset dx="-21" dy="15"/>
<feGaussianBlur stdDeviation="25"/>
<feComposite in2="hardAlpha" operator="out"/>
<feColorMatrix type="matrix" values="0 0 0 0 0.113438 0 0 0 0 0.148981 0 0 0 0 0.275 0 0 0 0.25 0"/>
<feBlend mode="normal" in2="effect1_backgroundBlur_1217_744" result="effect2_dropShadow_1217_744"/>
<feBlend mode="normal" in="SourceGraphic" in2="effect2_dropShadow_1217_744" result="shape"/>
</filter>
<linearGradient id="paint0_linear_1217_744" x1="65.5523" y1="59.361" x2="65.5523" y2="108.357" gradientUnits="userSpaceOnUse">
<stop stop-color="white"/>
<stop offset="1" stop-color="white" stop-opacity="0"/>
</linearGradient>
<linearGradient id="paint1_linear_1217_744" x1="62.4415" y1="58" x2="62.4415" y2="103.244" gradientUnits="userSpaceOnUse">
<stop stop-color="white"/>
<stop offset="1" stop-color="white" stop-opacity="0"/>
</linearGradient>
<linearGradient id="paint2_linear_1217_744" x1="90.8279" y1="51.5839" x2="90.8279" y2="142.965" gradientUnits="userSpaceOnUse">
<stop stop-color="white"/>
<stop offset="1" stop-color="white" stop-opacity="0"/>
</linearGradient>
<linearGradient id="paint3_linear_1217_744" x1="90.8279" y1="71.6099" x2="90.8279" y2="134.215" gradientUnits="userSpaceOnUse">
<stop stop-color="white"/>
<stop offset="1" stop-color="white" stop-opacity="0"/>
</linearGradient>
<linearGradient id="paint4_linear_1217_744" x1="132.435" y1="72.9709" x2="132.435" y2="121.967" gradientUnits="userSpaceOnUse">
<stop stop-color="white"/>
<stop offset="1" stop-color="white" stop-opacity="0"/>
</linearGradient>
<linearGradient id="paint5_linear_1217_744" x1="129.324" y1="71.6099" x2="129.324" y2="116.854" gradientUnits="userSpaceOnUse">
<stop stop-color="white"/>
<stop offset="1" stop-color="white" stop-opacity="0"/>
</linearGradient>
<clipPath id="clip0_1217_744">
<rect width="192" height="192" fill="white"/>
</clipPath>
</defs>
</svg>
