<svg width="128" height="128" viewBox="0 0 128 128" fill="none" xmlns="http://www.w3.org/2000/svg">
<g filter="url(#filter0_bd_1_21)">
<mask id="path-1-inside-1_1_21" fill="white">
<path fill-rule="evenodd" clip-rule="evenodd" d="M65.1618 47.5735V47.5333H64.1765H59.9896C60.1509 46.5794 60.2348 45.5994 60.2348 44.6C60.2348 34.8798 52.2945 27 42.4996 27C32.7047 27 24.7644 34.8798 24.7644 44.6C24.7644 45.5994 24.8483 46.5794 25.0096 47.5333H20.8415C20.8355 47.5333 20.8295 47.5333 20.8235 47.5333C20.8175 47.5333 20.8115 47.5333 20.8054 47.5333H19.8384V47.5735C13.7694 48.0702 9 53.1157 9 59.2666C9 65.4176 13.7694 70.4631 19.8384 70.9599V71H64.1765H65.1618V70.9598C71.2307 70.463 76 65.4175 76 59.2667C76 53.1158 71.2307 48.0703 65.1618 47.5735Z"/>
</mask>
<path fill-rule="evenodd" clip-rule="evenodd" d="M65.1618 47.5735V47.5333H64.1765H59.9896C60.1509 46.5794 60.2348 45.5994 60.2348 44.6C60.2348 34.8798 52.2945 27 42.4996 27C32.7047 27 24.7644 34.8798 24.7644 44.6C24.7644 45.5994 24.8483 46.5794 25.0096 47.5333H20.8415C20.8355 47.5333 20.8295 47.5333 20.8235 47.5333C20.8175 47.5333 20.8115 47.5333 20.8054 47.5333H19.8384V47.5735C13.7694 48.0702 9 53.1157 9 59.2666C9 65.4176 13.7694 70.4631 19.8384 70.9599V71H64.1765H65.1618V70.9598C71.2307 70.463 76 65.4175 76 59.2667C76 53.1158 71.2307 48.0703 65.1618 47.5735Z" fill="url(#paint0_linear_1_21)" shape-rendering="crispEdges"/>
<path d="M65.1618 47.5333H67.1618C67.1618 46.4288 66.2664 45.5333 65.1618 45.5333V47.5333ZM65.1618 47.5735H63.1618C63.1618 48.6148 63.9608 49.4818 64.9986 49.5668L65.1618 47.5735ZM59.9896 47.5333L58.0176 47.1999C57.9195 47.7804 58.0821 48.3747 58.4621 48.8243C58.8421 49.2739 59.4009 49.5333 59.9896 49.5333V47.5333ZM25.0096 47.5333V49.5333C25.5983 49.5333 26.1571 49.2739 26.5371 48.8243C26.9172 48.3747 27.0798 47.7804 26.9816 47.1999L25.0096 47.5333ZM20.8415 47.5333L20.8383 49.5333H20.8415V47.5333ZM20.8054 47.5333L20.8054 49.5333L20.8086 49.5333L20.8054 47.5333ZM19.8384 47.5333V45.5333C18.7339 45.5333 17.8384 46.4288 17.8384 47.5333H19.8384ZM19.8384 47.5735L20.0016 49.5668C21.0394 49.4818 21.8384 48.6148 21.8384 47.5735H19.8384ZM19.8384 70.9599H21.8384C21.8384 69.9185 21.0394 69.0515 20.0016 68.9665L19.8384 70.9599ZM19.8384 71H17.8384C17.8384 72.1046 18.7339 73 19.8384 73V71ZM65.1618 71V73C66.2664 73 67.1618 72.1046 67.1618 71H65.1618ZM65.1618 70.9598L64.9986 68.9665C63.9608 69.0515 63.1618 69.9185 63.1618 70.9598H65.1618ZM63.1618 47.5333V47.5735H67.1618V47.5333H63.1618ZM64.1765 49.5333H65.1618V45.5333H64.1765V49.5333ZM59.9896 49.5333H64.1765V45.5333H59.9896V49.5333ZM61.9616 47.8667C62.1415 46.8031 62.2348 45.7116 62.2348 44.6H58.2348C58.2348 45.4872 58.1603 46.3557 58.0176 47.1999L61.9616 47.8667ZM62.2348 44.6C62.2348 33.7608 53.3846 25 42.4996 25V29C51.2044 29 58.2348 35.9988 58.2348 44.6H62.2348ZM42.4996 25C31.6146 25 22.7644 33.7608 22.7644 44.6H26.7644C26.7644 35.9988 33.7948 29 42.4996 29V25ZM22.7644 44.6C22.7644 45.7116 22.8578 46.8031 23.0376 47.8667L26.9816 47.1999C26.8389 46.3557 26.7644 45.4872 26.7644 44.6H22.7644ZM20.8415 49.5333H25.0096V45.5333H20.8415V49.5333ZM20.8447 45.5333C20.8374 45.5333 20.8303 45.5333 20.8235 45.5333V49.5333C20.8287 49.5333 20.8336 49.5333 20.8383 49.5333L20.8447 45.5333ZM20.8235 45.5333C20.8166 45.5333 20.8095 45.5333 20.8023 45.5333L20.8086 49.5333C20.8134 49.5333 20.8183 49.5333 20.8235 49.5333V45.5333ZM19.8384 49.5333H20.8054V45.5333H19.8384V49.5333ZM21.8384 47.5735V47.5333H17.8384V47.5735H21.8384ZM19.6753 45.5801C12.5898 46.16 7 52.0531 7 59.2666H11C11 54.1783 14.949 49.9803 20.0016 49.5668L19.6753 45.5801ZM7 59.2666C7 66.4802 12.5898 72.3733 19.6753 72.9532L20.0016 68.9665C14.9491 68.553 11 64.355 11 59.2666H7ZM21.8384 71V70.9599H17.8384V71H21.8384ZM64.1765 69H19.8384V73H64.1765V69ZM65.1618 69H64.1765V73H65.1618V69ZM63.1618 70.9598V71H67.1618V70.9598H63.1618ZM65.325 72.9532C72.4104 72.3731 78 66.4801 78 59.2667H74C74 64.355 70.0511 68.5529 64.9986 68.9665L65.325 72.9532ZM78 59.2667C78 52.0532 72.4104 46.1602 65.325 45.5802L64.9986 49.5668C70.0511 49.9804 74 54.1784 74 59.2667H78Z" fill="url(#paint1_linear_1_21)" mask="url(#path-1-inside-1_1_21)"/>
</g>
<g filter="url(#filter1_bd_1_21)">
<mask id="path-3-inside-2_1_21" fill="white">
<path fill-rule="evenodd" clip-rule="evenodd" d="M93.0884 66.652V66.6H91.8237H86.4495C86.6565 65.3642 86.7643 64.0947 86.7643 62.8C86.7643 50.2079 76.5722 40 63.9996 40C51.427 40 41.2349 50.2079 41.2349 62.8C41.2349 64.0947 41.3427 65.3642 41.5497 66.6H36.1995C36.1918 66.6 36.1841 66.6 36.1764 66.6C36.1688 66.6 36.1611 66.6 36.1534 66.6H34.9121V66.652C27.1219 67.2955 21 73.8317 21 81.8C21 89.7682 27.1219 96.3045 34.9121 96.948V97H91.8237H93.0884V96.948C100.878 96.3043 107 89.7682 107 81.8C107 73.8318 100.878 67.2956 93.0884 66.652Z"/>
</mask>
<path fill-rule="evenodd" clip-rule="evenodd" d="M93.0884 66.652V66.6H91.8237H86.4495C86.6565 65.3642 86.7643 64.0947 86.7643 62.8C86.7643 50.2079 76.5722 40 63.9996 40C51.427 40 41.2349 50.2079 41.2349 62.8C41.2349 64.0947 41.3427 65.3642 41.5497 66.6H36.1995C36.1918 66.6 36.1841 66.6 36.1764 66.6C36.1688 66.6 36.1611 66.6 36.1534 66.6H34.9121V66.652C27.1219 67.2955 21 73.8317 21 81.8C21 89.7682 27.1219 96.3045 34.9121 96.948V97H91.8237H93.0884V96.948C100.878 96.3043 107 89.7682 107 81.8C107 73.8318 100.878 67.2956 93.0884 66.652Z" fill="url(#paint2_linear_1_21)" shape-rendering="crispEdges"/>
<path d="M93.0884 66.6H95.0884C95.0884 65.4954 94.193 64.6 93.0884 64.6V66.6ZM93.0884 66.652H91.0884C91.0884 67.6927 91.8865 68.5595 92.9237 68.6452L93.0884 66.652ZM86.4495 66.6L84.477 66.2696C84.3798 66.8497 84.5429 67.4431 84.9229 67.8921C85.3029 68.3411 85.8613 68.6 86.4495 68.6V66.6ZM41.5497 66.6V68.6C42.1379 68.6 42.6962 68.3411 43.0763 67.8921C43.4563 67.4431 43.6194 66.8497 43.5222 66.2696L41.5497 66.6ZM36.1995 66.6L36.1965 68.6H36.1995V66.6ZM36.1534 66.6L36.1534 68.6L36.1564 68.6L36.1534 66.6ZM34.9121 66.6V64.6C33.8075 64.6 32.9121 65.4954 32.9121 66.6H34.9121ZM34.9121 66.652L35.0767 68.6452C36.1139 68.5595 36.9121 67.6927 36.9121 66.652H34.9121ZM34.9121 96.948H36.9121C36.9121 95.9072 36.1139 95.0404 35.0767 94.9548L34.9121 96.948ZM34.9121 97H32.9121C32.9121 98.1045 33.8075 99 34.9121 99V97ZM93.0884 97V99C94.193 99 95.0884 98.1045 95.0884 97H93.0884ZM93.0884 96.948L92.9237 94.9547C91.8865 95.0404 91.0884 95.9072 91.0884 96.948H93.0884ZM91.0884 66.6V66.652H95.0884V66.6H91.0884ZM91.8237 68.6H93.0884V64.6H91.8237V68.6ZM86.4495 68.6H91.8237V64.6H86.4495V68.6ZM88.422 66.9304C88.6472 65.5859 88.7643 64.2059 88.7643 62.8H84.7643C84.7643 63.9835 84.6658 65.1425 84.477 66.2696L88.422 66.9304ZM88.7643 62.8C88.7643 49.1063 77.6797 38 63.9996 38V42C75.4647 42 84.7643 51.3096 84.7643 62.8H88.7643ZM63.9996 38C50.3195 38 39.2349 49.1063 39.2349 62.8H43.2349C43.2349 51.3096 52.5345 42 63.9996 42V38ZM39.2349 62.8C39.2349 64.2058 39.352 65.5859 39.5772 66.9304L43.5222 66.2696C43.3334 65.1425 43.2349 63.9835 43.2349 62.8H39.2349ZM36.1995 68.6H41.5497V64.6H36.1995V68.6ZM36.2025 64.6C36.1938 64.6 36.1851 64.6 36.1764 64.6V68.6C36.1831 68.6 36.1898 68.6 36.1965 68.6L36.2025 64.6ZM36.1764 64.6C36.1678 64.6 36.1591 64.6 36.1504 64.6L36.1564 68.6C36.1631 68.6 36.1697 68.6 36.1764 68.6V64.6ZM34.9121 68.6H36.1534V64.6H34.9121V68.6ZM36.9121 66.652V66.6H32.9121V66.652H36.9121ZM34.7474 64.6587C25.9261 65.3874 19 72.7849 19 81.8H23C23 74.8785 28.3177 69.2035 35.0767 68.6452L34.7474 64.6587ZM19 81.8C19 90.815 25.9261 98.2125 34.7474 98.9412L35.0767 94.9548C28.3177 94.3964 23 88.7215 23 81.8H19ZM36.9121 97V96.948H32.9121V97H36.9121ZM91.8237 95H34.9121V99H91.8237V95ZM93.0884 95H91.8237V99H93.0884V95ZM91.0884 96.948V97H95.0884V96.948H91.0884ZM93.2531 98.9412C102.074 98.2123 109 90.8149 109 81.8H105C105 88.7214 99.6826 94.3963 92.9237 94.9547L93.2531 98.9412ZM109 81.8C109 72.785 102.074 65.3876 93.2531 64.6588L92.9237 68.6452C99.6826 69.2037 105 74.8786 105 81.8H109Z" fill="url(#paint3_linear_1_21)" mask="url(#path-3-inside-2_1_21)"/>
</g>
<defs>
<filter id="filter0_bd_1_21" x="-11" y="7" width="107" height="84" filterUnits="userSpaceOnUse" color-interpolation-filters="sRGB">
<feFlood flood-opacity="0" result="BackgroundImageFix"/>
<feGaussianBlur in="BackgroundImageFix" stdDeviation="10"/>
<feComposite in2="SourceAlpha" operator="in" result="effect1_backgroundBlur_1_21"/>
<feColorMatrix in="SourceAlpha" type="matrix" values="0 0 0 0 0 0 0 0 0 0 0 0 0 0 0 0 0 0 127 0" result="hardAlpha"/>
<feOffset/>
<feGaussianBlur stdDeviation="2"/>
<feComposite in2="hardAlpha" operator="out"/>
<feColorMatrix type="matrix" values="0 0 0 0 0 0 0 0 0 0 0 0 0 0 0 0 0 0 0.25 0"/>
<feBlend mode="normal" in2="effect1_backgroundBlur_1_21" result="effect2_dropShadow_1_21"/>
<feBlend mode="normal" in="SourceGraphic" in2="effect2_dropShadow_1_21" result="shape"/>
</filter>
<filter id="filter1_bd_1_21" x="1" y="20" width="126" height="97" filterUnits="userSpaceOnUse" color-interpolation-filters="sRGB">
<feFlood flood-opacity="0" result="BackgroundImageFix"/>
<feGaussianBlur in="BackgroundImageFix" stdDeviation="10"/>
<feComposite in2="SourceAlpha" operator="in" result="effect1_backgroundBlur_1_21"/>
<feColorMatrix in="SourceAlpha" type="matrix" values="0 0 0 0 0 0 0 0 0 0 0 0 0 0 0 0 0 0 127 0" result="hardAlpha"/>
<feOffset/>
<feGaussianBlur stdDeviation="2"/>
<feComposite in2="hardAlpha" operator="out"/>
<feColorMatrix type="matrix" values="0 0 0 0 0 0 0 0 0 0 0 0 0 0 0 0 0 0 0.25 0"/>
<feBlend mode="normal" in2="effect1_backgroundBlur_1_21" result="effect2_dropShadow_1_21"/>
<feBlend mode="normal" in="SourceGraphic" in2="effect2_dropShadow_1_21" result="shape"/>
</filter>
<linearGradient id="paint0_linear_1_21" x1="46" y1="28.3307" x2="46" y2="76.2376" gradientUnits="userSpaceOnUse">
<stop stop-color="white"/>
<stop offset="1" stop-color="white" stop-opacity="0"/>
</linearGradient>
<linearGradient id="paint1_linear_1_21" x1="42.9349" y1="27" x2="42.9349" y2="71.2389" gradientUnits="userSpaceOnUse">
<stop stop-color="white"/>
<stop offset="1" stop-color="white" stop-opacity="0"/>
</linearGradient>
<linearGradient id="paint2_linear_1_21" x1="68.4926" y1="41.7239" x2="68.4926" y2="103.785" gradientUnits="userSpaceOnUse">
<stop stop-color="white"/>
<stop offset="1" stop-color="white" stop-opacity="0"/>
</linearGradient>
<linearGradient id="paint3_linear_1_21" x1="64.5583" y1="40" x2="64.5583" y2="97.3095" gradientUnits="userSpaceOnUse">
<stop stop-color="white"/>
<stop offset="1" stop-color="white" stop-opacity="0"/>
</linearGradient>
</defs>
</svg>
