<svg width="192" height="192" viewBox="0 0 192 192" fill="none" xmlns="http://www.w3.org/2000/svg">
<g clip-path="url(#clip0_1217_745)">
<g filter="url(#filter0_bd_1217_745)">
<mask id="path-1-inside-1_1217_745" fill="white">
<path fill-rule="evenodd" clip-rule="evenodd" d="M112.632 116.604C112.697 116.605 112.762 116.606 112.827 116.606C122.061 116.606 129.547 109.119 129.547 99.8848C129.547 90.6502 122.061 83.1641 112.827 83.1641C112.762 83.1641 112.697 83.1645 112.632 83.1652V83.1641H108.313C108.469 82.0198 108.549 80.8515 108.549 79.6644C108.549 65.4903 97.0588 54 82.8848 54C68.7107 54 57.2204 65.4903 57.2204 79.6644C57.2204 81.0018 57.3227 82.3153 57.5199 83.5976C56.2994 83.314 55.0276 83.1641 53.7207 83.1641C44.4861 83.1641 37 90.6502 37 99.8848C37 109.119 44.4861 116.606 53.7207 116.606C53.7859 116.606 53.851 116.605 53.916 116.604L53.9151 116.606H112.632V116.604Z"/>
</mask>
<path fill-rule="evenodd" clip-rule="evenodd" d="M112.632 116.604C112.697 116.605 112.762 116.606 112.827 116.606C122.061 116.606 129.547 109.119 129.547 99.8848C129.547 90.6502 122.061 83.1641 112.827 83.1641C112.762 83.1641 112.697 83.1645 112.632 83.1652V83.1641H108.313C108.469 82.0198 108.549 80.8515 108.549 79.6644C108.549 65.4903 97.0588 54 82.8848 54C68.7107 54 57.2204 65.4903 57.2204 79.6644C57.2204 81.0018 57.3227 82.3153 57.5199 83.5976C56.2994 83.314 55.0276 83.1641 53.7207 83.1641C44.4861 83.1641 37 90.6502 37 99.8848C37 109.119 44.4861 116.606 53.7207 116.606C53.7859 116.606 53.851 116.605 53.916 116.604L53.9151 116.606H112.632V116.604Z" fill="url(#paint0_linear_1217_745)" shape-rendering="crispEdges"/>
<path d="M112.632 116.604L112.655 114.605C112.121 114.599 111.606 114.807 111.226 115.182C110.846 115.558 110.632 116.07 110.632 116.604H112.632ZM112.632 83.1652H110.632C110.632 83.6996 110.846 84.2117 111.226 84.5874C111.606 84.9631 112.121 85.1711 112.655 85.1651L112.632 83.1652ZM112.632 83.1641H114.632C114.632 82.0595 113.737 81.1641 112.632 81.1641V83.1641ZM108.313 83.1641L106.331 82.8939C106.253 83.4661 106.426 84.0442 106.806 84.4793C107.186 84.9144 107.735 85.1641 108.313 85.1641V83.1641ZM57.5199 83.5976L57.0673 85.5457C57.7138 85.6959 58.3928 85.5156 58.8796 85.0643C59.3664 84.613 59.5975 83.9496 59.4966 83.2936L57.5199 83.5976ZM53.916 116.604L55.4866 117.843C55.9636 117.238 56.0506 116.413 55.7105 115.721C55.3704 115.03 54.6634 114.596 53.8931 114.605L53.916 116.604ZM53.9151 116.606L52.3445 115.367C51.8701 115.969 51.7812 116.789 52.1156 117.478C52.45 118.168 53.1489 118.606 53.9151 118.606V116.606ZM112.632 116.606V118.606C113.737 118.606 114.632 117.71 114.632 116.606H112.632ZM112.609 118.604C112.682 118.605 112.754 118.606 112.827 118.606V114.606C112.769 114.606 112.712 114.605 112.655 114.605L112.609 118.604ZM112.827 118.606C123.166 118.606 131.547 110.224 131.547 99.8848H127.547C127.547 108.015 120.957 114.606 112.827 114.606V118.606ZM131.547 99.8848C131.547 89.5456 123.166 81.1641 112.827 81.1641V85.1641C120.957 85.1641 127.547 91.7548 127.547 99.8848H131.547ZM112.827 81.1641C112.754 81.1641 112.682 81.1645 112.609 81.1653L112.655 85.1651C112.712 85.1644 112.769 85.1641 112.827 85.1641V81.1641ZM110.632 83.1641V83.1652H114.632V83.1641H110.632ZM108.313 85.1641H112.632V81.1641H108.313V85.1641ZM110.294 83.4343C110.462 82.2007 110.549 80.9421 110.549 79.6644H106.549C106.549 80.7609 106.475 81.8389 106.331 82.8939L110.294 83.4343ZM110.549 79.6644C110.549 64.3858 98.1634 52 82.8848 52V56C95.9543 56 106.549 66.5949 106.549 79.6644H110.549ZM82.8848 52C67.6062 52 55.2204 64.3858 55.2204 79.6644H59.2204C59.2204 66.5949 69.8153 56 82.8848 56V52ZM55.2204 79.6644C55.2204 81.104 55.3305 82.5191 55.5431 83.9016L59.4966 83.2936C59.3149 82.1116 59.2204 80.8997 59.2204 79.6644H55.2204ZM57.9725 81.6495C56.6046 81.3317 55.181 81.1641 53.7207 81.1641V85.1641C54.8741 85.1641 55.9941 85.2963 57.0673 85.5457L57.9725 81.6495ZM53.7207 81.1641C43.3816 81.1641 35 89.5456 35 99.8848H39C39 91.7548 45.5907 85.1641 53.7207 85.1641V81.1641ZM35 99.8848C35 110.224 43.3816 118.606 53.7207 118.606V114.606C45.5907 114.606 39 108.015 39 99.8848H35ZM53.7207 118.606C53.7936 118.606 53.8663 118.605 53.9389 118.604L53.8931 114.605C53.8357 114.605 53.7783 114.606 53.7207 114.606V118.606ZM55.4857 117.844L55.4866 117.843L52.3454 115.366L52.3445 115.367L55.4857 117.844ZM112.632 114.606H53.9151V118.606H112.632V114.606ZM110.632 116.604V116.606H114.632V116.604H110.632Z" fill="url(#paint1_linear_1217_745)" mask="url(#path-1-inside-1_1217_745)"/>
</g>
<g filter="url(#filter1_bd_1217_745)">
<mask id="path-3-inside-2_1217_745" fill="white">
<path fill-rule="evenodd" clip-rule="evenodd" d="M142.987 99.2435C143.034 99.2441 143.081 99.2443 143.128 99.2443C149.801 99.2443 155.212 93.8342 155.212 87.1604C155.212 80.4867 149.801 75.0765 143.128 75.0765C143.081 75.0765 143.034 75.0768 142.987 75.0773V75.0765H139.865C139.978 74.2496 140.036 73.4053 140.036 72.5474C140.036 62.3039 131.733 54 121.489 54C111.246 54 102.942 62.3039 102.942 72.5474C102.942 73.5139 103.016 74.4632 103.158 75.3898C102.276 75.1849 101.357 75.0765 100.413 75.0765C93.7388 75.0765 88.3286 80.4867 88.3286 87.1604C88.3286 93.8342 93.7388 99.2443 100.413 99.2443C100.46 99.2443 100.507 99.2441 100.554 99.2435L100.553 99.2443H142.987V99.2435Z"/>
</mask>
<path fill-rule="evenodd" clip-rule="evenodd" d="M142.987 99.2435C143.034 99.2441 143.081 99.2443 143.128 99.2443C149.801 99.2443 155.212 93.8342 155.212 87.1604C155.212 80.4867 149.801 75.0765 143.128 75.0765C143.081 75.0765 143.034 75.0768 142.987 75.0773V75.0765H139.865C139.978 74.2496 140.036 73.4053 140.036 72.5474C140.036 62.3039 131.733 54 121.489 54C111.246 54 102.942 62.3039 102.942 72.5474C102.942 73.5139 103.016 74.4632 103.158 75.3898C102.276 75.1849 101.357 75.0765 100.413 75.0765C93.7388 75.0765 88.3286 80.4867 88.3286 87.1604C88.3286 93.8342 93.7388 99.2443 100.413 99.2443C100.46 99.2443 100.507 99.2441 100.554 99.2435L100.553 99.2443H142.987V99.2435Z" fill="url(#paint2_linear_1217_745)" shape-rendering="crispEdges"/>
<path d="M142.987 99.2435L143.01 97.2437C142.476 97.2376 141.961 97.4456 141.581 97.8213C141.201 98.197 140.987 98.7091 140.987 99.2435H142.987ZM142.987 75.0773H140.987C140.987 75.6117 141.201 76.1239 141.581 76.4996C141.961 76.8753 142.476 77.0833 143.01 77.0772L142.987 75.0773ZM142.987 75.0765H144.987C144.987 73.972 144.092 73.0765 142.987 73.0765V75.0765ZM139.865 75.0765L137.884 74.8063C137.806 75.3786 137.979 75.9567 138.359 76.3918C138.739 76.8269 139.288 77.0765 139.865 77.0765V75.0765ZM103.158 75.3898L102.706 77.3379C103.352 77.4882 104.031 77.3078 104.518 76.8565C105.005 76.4053 105.236 75.7419 105.135 75.0858L103.158 75.3898ZM100.554 99.2435L102.126 100.48C102.602 99.8748 102.688 99.0501 102.348 98.3594C102.007 97.6688 101.301 97.2348 100.531 97.2437L100.554 99.2435ZM100.553 99.2443L98.981 98.0079C98.5075 98.6098 98.4194 99.4293 98.754 100.118C99.0886 100.807 99.7872 101.244 100.553 101.244V99.2443ZM142.987 99.2443V101.244C144.092 101.244 144.987 100.349 144.987 99.2443H142.987ZM142.964 101.243C143.019 101.244 143.073 101.244 143.128 101.244V97.2443C143.088 97.2443 143.049 97.2441 143.01 97.2437L142.964 101.243ZM143.128 101.244C150.906 101.244 157.212 94.9388 157.212 87.1604H153.212C153.212 92.7296 148.697 97.2443 143.128 97.2443V101.244ZM157.212 87.1604C157.212 79.3821 150.906 73.0765 143.128 73.0765V77.0765C148.697 77.0765 153.212 81.5913 153.212 87.1604H157.212ZM143.128 73.0765C143.073 73.0765 143.019 73.0769 142.964 73.0775L143.01 77.0772C143.049 77.0768 143.088 77.0765 143.128 77.0765V73.0765ZM140.987 75.0765V75.0773H144.987V75.0765H140.987ZM139.865 77.0765H142.987V73.0765H139.865V77.0765ZM141.847 75.3467C141.972 74.4305 142.036 73.4959 142.036 72.5474H138.036C138.036 73.3147 137.984 74.0687 137.884 74.8063L141.847 75.3467ZM142.036 72.5474C142.036 61.1994 132.837 52 121.489 52V56C130.628 56 138.036 63.4085 138.036 72.5474H142.036ZM121.489 52C110.141 52 100.942 61.1994 100.942 72.5474H104.942C104.942 63.4085 112.35 56 121.489 56V52ZM100.942 72.5474C100.942 73.6161 101.023 74.667 101.181 75.6939L105.135 75.0858C105.008 74.2594 104.942 73.4118 104.942 72.5474H100.942ZM103.611 73.4417C102.581 73.2025 101.51 73.0765 100.413 73.0765V77.0765C101.204 77.0765 101.971 77.1672 102.706 77.3379L103.611 73.4417ZM100.413 73.0765C92.6342 73.0765 86.3286 79.3821 86.3286 87.1604H90.3286C90.3286 81.5913 94.8433 77.0765 100.413 77.0765V73.0765ZM86.3286 87.1604C86.3286 94.9388 92.6342 101.244 100.413 101.244V97.2443C94.8433 97.2443 90.3286 92.7296 90.3286 87.1604H86.3286ZM100.413 101.244C100.467 101.244 100.522 101.244 100.577 101.243L100.531 97.2437C100.491 97.2441 100.452 97.2443 100.413 97.2443V101.244ZM102.125 100.481L102.126 100.48L98.9816 98.0071L98.981 98.0079L102.125 100.481ZM142.987 97.2443H100.553V101.244H142.987V97.2443ZM140.987 99.2435V99.2443H144.987V99.2435H140.987Z" fill="url(#paint3_linear_1217_745)" mask="url(#path-3-inside-2_1217_745)"/>
</g>
<g filter="url(#filter2_bdd_1217_745)">
<path d="M77.2906 107.506L77.7469 113.896C77.9531 116.784 75.1984 118.982 72.4277 118.139C69.657 117.296 68.5927 113.937 70.3725 111.652L74.3098 106.599C75.2495 105.393 77.1817 105.98 77.2906 107.506Z" fill="url(#paint4_linear_1217_745)" stroke="url(#paint5_linear_1217_745)" stroke-width="2"/>
<path d="M99.6524 107.506L100.109 113.896C100.315 116.784 97.5603 118.982 94.7895 118.139C92.0188 117.296 90.9545 113.937 92.7344 111.652L96.6716 106.599C97.6113 105.393 99.5435 105.98 99.6524 107.506Z" fill="url(#paint6_linear_1217_745)" stroke="url(#paint7_linear_1217_745)" stroke-width="2"/>
<path d="M122.015 107.506L122.471 113.896C122.677 116.784 119.923 118.982 117.152 118.139C114.381 117.296 113.317 113.937 115.097 111.652L119.034 106.599C119.974 105.393 121.906 105.98 122.015 107.506Z" fill="url(#paint8_linear_1217_745)" stroke="url(#paint9_linear_1217_745)" stroke-width="2"/>
</g>
<g filter="url(#filter3_bdd_1217_745)">
<path d="M83.1909 125.206L83.6472 131.596C83.8535 134.485 81.0988 136.683 78.3281 135.84C75.5574 134.997 74.493 131.638 76.2729 129.353L80.2102 124.3C81.1499 123.093 83.082 123.681 83.1909 125.206Z" fill="url(#paint10_linear_1217_745)" stroke="url(#paint11_linear_1217_745)" stroke-width="2"/>
<path d="M102.084 125.206L102.54 131.596C102.747 134.485 99.9919 136.683 97.2212 135.84C94.4505 134.997 93.3861 131.638 95.166 129.353L99.1033 124.3C100.043 123.093 101.975 123.681 102.084 125.206Z" fill="url(#paint12_linear_1217_745)" stroke="url(#paint13_linear_1217_745)" stroke-width="2"/>
</g>
</g>
<defs>
<filter id="filter0_bd_1217_745" x="-34" y="19" width="192.547" height="162.606" filterUnits="userSpaceOnUse" color-interpolation-filters="sRGB">
<feFlood flood-opacity="0" result="BackgroundImageFix"/>
<feGaussianBlur in="BackgroundImageFix" stdDeviation="7"/>
<feComposite in2="SourceAlpha" operator="in" result="effect1_backgroundBlur_1217_745"/>
<feColorMatrix in="SourceAlpha" type="matrix" values="0 0 0 0 0 0 0 0 0 0 0 0 0 0 0 0 0 0 127 0" result="hardAlpha"/>
<feOffset dx="-21" dy="15"/>
<feGaussianBlur stdDeviation="25"/>
<feComposite in2="hardAlpha" operator="out"/>
<feColorMatrix type="matrix" values="0 0 0 0 0.113725 0 0 0 0 0.14902 0 0 0 0 0.27451 0 0 0 0.25 0"/>
<feBlend mode="normal" in2="effect1_backgroundBlur_1217_745" result="effect2_dropShadow_1217_745"/>
<feBlend mode="normal" in="SourceGraphic" in2="effect2_dropShadow_1217_745" result="shape"/>
</filter>
<filter id="filter1_bd_1217_745" x="17.3286" y="19" width="166.883" height="145.244" filterUnits="userSpaceOnUse" color-interpolation-filters="sRGB">
<feFlood flood-opacity="0" result="BackgroundImageFix"/>
<feGaussianBlur in="BackgroundImageFix" stdDeviation="7"/>
<feComposite in2="SourceAlpha" operator="in" result="effect1_backgroundBlur_1217_745"/>
<feColorMatrix in="SourceAlpha" type="matrix" values="0 0 0 0 0 0 0 0 0 0 0 0 0 0 0 0 0 0 127 0" result="hardAlpha"/>
<feOffset dx="-21" dy="15"/>
<feGaussianBlur stdDeviation="25"/>
<feComposite in2="hardAlpha" operator="out"/>
<feColorMatrix type="matrix" values="0 0 0 0 0.113438 0 0 0 0 0.148981 0 0 0 0 0.275 0 0 0 0.25 0"/>
<feBlend mode="normal" in2="effect1_backgroundBlur_1217_745" result="effect2_dropShadow_1217_745"/>
<feBlend mode="normal" in="SourceGraphic" in2="effect2_dropShadow_1217_745" result="shape"/>
</filter>
<filter id="filter2_bdd_1217_745" x="-2.50195" y="56.9519" width="166.984" height="127.37" filterUnits="userSpaceOnUse" color-interpolation-filters="sRGB">
<feFlood flood-opacity="0" result="BackgroundImageFix"/>
<feGaussianBlur in="BackgroundImageFix" stdDeviation="7"/>
<feComposite in2="SourceAlpha" operator="in" result="effect1_backgroundBlur_1217_745"/>
<feColorMatrix in="SourceAlpha" type="matrix" values="0 0 0 0 0 0 0 0 0 0 0 0 0 0 0 0 0 0 127 0" result="hardAlpha"/>
<feOffset dx="-21" dy="15"/>
<feGaussianBlur stdDeviation="25"/>
<feComposite in2="hardAlpha" operator="out"/>
<feColorMatrix type="matrix" values="0 0 0 0 0.113438 0 0 0 0 0.148981 0 0 0 0 0.275 0 0 0 0.25 0"/>
<feBlend mode="normal" in2="effect1_backgroundBlur_1217_745" result="effect2_dropShadow_1217_745"/>
<feColorMatrix in="SourceAlpha" type="matrix" values="0 0 0 0 0 0 0 0 0 0 0 0 0 0 0 0 0 0 127 0" result="hardAlpha"/>
<feOffset dy="-7"/>
<feGaussianBlur stdDeviation="20.5"/>
<feComposite in2="hardAlpha" operator="out"/>
<feColorMatrix type="matrix" values="0 0 0 0 0.1375 0 0 0 0 0.74125 0 0 0 0 1 0 0 0 0.3 0"/>
<feBlend mode="normal" in2="effect2_dropShadow_1217_745" result="effect3_dropShadow_1217_745"/>
<feBlend mode="normal" in="SourceGraphic" in2="effect3_dropShadow_1217_745" result="shape"/>
</filter>
<filter id="filter3_bdd_1217_745" x="3.39844" y="74.6526" width="141.153" height="127.37" filterUnits="userSpaceOnUse" color-interpolation-filters="sRGB">
<feFlood flood-opacity="0" result="BackgroundImageFix"/>
<feGaussianBlur in="BackgroundImageFix" stdDeviation="7"/>
<feComposite in2="SourceAlpha" operator="in" result="effect1_backgroundBlur_1217_745"/>
<feColorMatrix in="SourceAlpha" type="matrix" values="0 0 0 0 0 0 0 0 0 0 0 0 0 0 0 0 0 0 127 0" result="hardAlpha"/>
<feOffset dx="-21" dy="15"/>
<feGaussianBlur stdDeviation="25"/>
<feComposite in2="hardAlpha" operator="out"/>
<feColorMatrix type="matrix" values="0 0 0 0 0.113438 0 0 0 0 0.148981 0 0 0 0 0.275 0 0 0 0.25 0"/>
<feBlend mode="normal" in2="effect1_backgroundBlur_1217_745" result="effect2_dropShadow_1217_745"/>
<feColorMatrix in="SourceAlpha" type="matrix" values="0 0 0 0 0 0 0 0 0 0 0 0 0 0 0 0 0 0 127 0" result="hardAlpha"/>
<feOffset dy="-7"/>
<feGaussianBlur stdDeviation="20.5"/>
<feComposite in2="hardAlpha" operator="out"/>
<feColorMatrix type="matrix" values="0 0 0 0 0.1375 0 0 0 0 0.74125 0 0 0 0 1 0 0 0 0.3 0"/>
<feBlend mode="normal" in2="effect2_dropShadow_1217_745" result="effect3_dropShadow_1217_745"/>
<feBlend mode="normal" in="SourceGraphic" in2="effect3_dropShadow_1217_745" result="shape"/>
</filter>
<linearGradient id="paint0_linear_1217_745" x1="83.2737" y1="33.974" x2="83.2737" y2="125.355" gradientUnits="userSpaceOnUse">
<stop stop-color="white"/>
<stop offset="1" stop-color="white" stop-opacity="0"/>
</linearGradient>
<linearGradient id="paint1_linear_1217_745" x1="83.2737" y1="54" x2="83.2737" y2="116.606" gradientUnits="userSpaceOnUse">
<stop stop-color="white"/>
<stop offset="1" stop-color="white" stop-opacity="0"/>
</linearGradient>
<linearGradient id="paint2_linear_1217_745" x1="124.881" y1="55.361" x2="124.881" y2="104.357" gradientUnits="userSpaceOnUse">
<stop stop-color="white"/>
<stop offset="1" stop-color="white" stop-opacity="0"/>
</linearGradient>
<linearGradient id="paint3_linear_1217_745" x1="121.77" y1="54" x2="121.77" y2="99.2444" gradientUnits="userSpaceOnUse">
<stop stop-color="white"/>
<stop offset="1" stop-color="white" stop-opacity="0"/>
</linearGradient>
<linearGradient id="paint4_linear_1217_745" x1="77.7929" y1="100.501" x2="72.1367" y2="119.096" gradientUnits="userSpaceOnUse">
<stop stop-color="#138EFF"/>
<stop offset="1" stop-color="#00E0FF"/>
</linearGradient>
<linearGradient id="paint5_linear_1217_745" x1="77.7929" y1="100.501" x2="72.1367" y2="119.096" gradientUnits="userSpaceOnUse">
<stop stop-color="white"/>
<stop offset="1" stop-color="white" stop-opacity="0"/>
</linearGradient>
<linearGradient id="paint6_linear_1217_745" x1="100.155" y1="100.501" x2="94.4985" y2="119.096" gradientUnits="userSpaceOnUse">
<stop stop-color="#138EFF"/>
<stop offset="1" stop-color="#00E0FF"/>
</linearGradient>
<linearGradient id="paint7_linear_1217_745" x1="100.155" y1="100.501" x2="94.4985" y2="119.096" gradientUnits="userSpaceOnUse">
<stop stop-color="white"/>
<stop offset="1" stop-color="white" stop-opacity="0"/>
</linearGradient>
<linearGradient id="paint8_linear_1217_745" x1="122.517" y1="100.501" x2="116.861" y2="119.096" gradientUnits="userSpaceOnUse">
<stop stop-color="#138EFF"/>
<stop offset="1" stop-color="#00E0FF"/>
</linearGradient>
<linearGradient id="paint9_linear_1217_745" x1="122.517" y1="100.501" x2="116.861" y2="119.096" gradientUnits="userSpaceOnUse">
<stop stop-color="white"/>
<stop offset="1" stop-color="white" stop-opacity="0"/>
</linearGradient>
<linearGradient id="paint10_linear_1217_745" x1="83.6933" y1="118.202" x2="78.0371" y2="136.797" gradientUnits="userSpaceOnUse">
<stop stop-color="#138EFF"/>
<stop offset="1" stop-color="#00E0FF"/>
</linearGradient>
<linearGradient id="paint11_linear_1217_745" x1="83.6933" y1="118.202" x2="78.0371" y2="136.797" gradientUnits="userSpaceOnUse">
<stop stop-color="white"/>
<stop offset="1" stop-color="white" stop-opacity="0"/>
</linearGradient>
<linearGradient id="paint12_linear_1217_745" x1="102.586" y1="118.202" x2="96.9302" y2="136.797" gradientUnits="userSpaceOnUse">
<stop stop-color="#138EFF"/>
<stop offset="1" stop-color="#00E0FF"/>
</linearGradient>
<linearGradient id="paint13_linear_1217_745" x1="102.586" y1="118.202" x2="96.9302" y2="136.797" gradientUnits="userSpaceOnUse">
<stop stop-color="white"/>
<stop offset="1" stop-color="white" stop-opacity="0"/>
</linearGradient>
<clipPath id="clip0_1217_745">
<rect width="192" height="192" fill="white"/>
</clipPath>
</defs>
</svg>
