<svg width="192" height="192" viewBox="0 0 192 192" fill="none" xmlns="http://www.w3.org/2000/svg">
<g clip-path="url(#clip0_1217_747)">
<g filter="url(#filter0_f_1217_747)">
<circle cx="104.272" cy="62.7201" r="23.7201" fill="#FFC701" fill-opacity="0.5"/>
</g>
<circle cx="104.272" cy="63.4978" r="21.9424" fill="url(#paint0_linear_1217_747)" stroke="url(#paint1_linear_1217_747)" stroke-width="2"/>
<mask id="mask0_1217_747" style="mask-type:alpha" maskUnits="userSpaceOnUse" x="81" y="53" width="47" height="34">
<path d="M127.214 63.4978C127.214 76.1685 116.942 86.4402 104.272 86.4402C91.6008 86.4402 81.3291 76.1685 81.3291 63.4978C81.3291 50.8271 89.8509 53.7764 102.522 53.7764C115.192 53.7764 127.214 50.8271 127.214 63.4978Z" fill="url(#paint2_linear_1217_747)"/>
</mask>
<g mask="url(#mask0_1217_747)">
<g filter="url(#filter1_f_1217_747)">
<path fill-rule="evenodd" clip-rule="evenodd" d="M122.353 122.214C122.418 122.214 122.482 122.215 122.547 122.215C131.782 122.215 139.268 114.729 139.268 105.494C139.268 96.2595 131.782 88.7733 122.547 88.7733C122.482 88.7733 122.418 88.7737 122.353 88.7744V88.7733H111.693C111.927 87.3823 112.048 85.9533 112.048 84.4959C112.048 70.3219 100.558 58.8315 86.3839 58.8315C72.2098 58.8315 60.7195 70.3219 60.7195 84.4959C60.7195 86.0101 60.8506 87.4936 61.1021 88.9357C52.975 90.0735 46.7207 97.0534 46.7207 105.494C46.7207 114.729 54.2068 122.215 63.4414 122.215C63.5066 122.215 63.5717 122.214 63.6367 122.214L63.6359 122.215H122.353V122.214Z" fill="#E18700"/>
</g>
</g>
<g filter="url(#filter2_bd_1217_747)">
<mask id="path-5-inside-1_1217_747" fill="white">
<path fill-rule="evenodd" clip-rule="evenodd" d="M112.632 124.158C112.697 124.159 112.762 124.159 112.827 124.159C122.061 124.159 129.547 116.673 129.547 107.438C129.547 98.2037 122.061 90.7176 112.827 90.7176C112.762 90.7176 112.697 90.718 112.632 90.7187V90.7176H108.313C108.469 89.5733 108.549 88.405 108.549 87.2179C108.549 73.0439 97.0589 61.5535 82.8848 61.5535C68.7108 61.5535 57.2204 73.0439 57.2204 87.2179C57.2204 88.5553 57.3228 89.8689 57.52 91.1511C56.2994 90.8675 55.0276 90.7176 53.7207 90.7176C44.4861 90.7176 37 98.2037 37 107.438C37 116.673 44.4861 124.159 53.7207 124.159C53.7859 124.159 53.851 124.159 53.916 124.158L53.9152 124.159H112.632V124.158Z"/>
</mask>
<path fill-rule="evenodd" clip-rule="evenodd" d="M112.632 124.158C112.697 124.159 112.762 124.159 112.827 124.159C122.061 124.159 129.547 116.673 129.547 107.438C129.547 98.2037 122.061 90.7176 112.827 90.7176C112.762 90.7176 112.697 90.718 112.632 90.7187V90.7176H108.313C108.469 89.5733 108.549 88.405 108.549 87.2179C108.549 73.0439 97.0589 61.5535 82.8848 61.5535C68.7108 61.5535 57.2204 73.0439 57.2204 87.2179C57.2204 88.5553 57.3228 89.8689 57.52 91.1511C56.2994 90.8675 55.0276 90.7176 53.7207 90.7176C44.4861 90.7176 37 98.2037 37 107.438C37 116.673 44.4861 124.159 53.7207 124.159C53.7859 124.159 53.851 124.159 53.916 124.158L53.9152 124.159H112.632V124.158Z" fill="url(#paint3_linear_1217_747)" shape-rendering="crispEdges"/>
<path d="M112.632 124.158L112.655 122.158C112.121 122.152 111.606 122.36 111.226 122.736C110.846 123.111 110.632 123.624 110.632 124.158H112.632ZM112.632 90.7187H110.632C110.632 91.2531 110.846 91.7653 111.226 92.141C111.606 92.5167 112.121 92.7247 112.655 92.7186L112.632 90.7187ZM112.632 90.7176H114.632C114.632 89.613 113.737 88.7176 112.632 88.7176V90.7176ZM108.313 90.7176L106.331 90.4474C106.253 91.0197 106.426 91.5977 106.806 92.0328C107.186 92.4679 107.735 92.7176 108.313 92.7176V90.7176ZM57.52 91.1511L57.0673 93.0992C57.7139 93.2494 58.3929 93.0691 58.8796 92.6178C59.3664 92.1666 59.5976 91.5032 59.4967 90.8471L57.52 91.1511ZM53.916 124.158L55.4866 125.396C55.9636 124.791 56.0507 123.966 55.7105 123.275C55.3704 122.584 54.6635 122.149 53.8932 122.158L53.916 124.158ZM53.9152 124.159L52.3446 122.921C51.8702 123.523 51.7813 124.342 52.1157 125.032C52.45 125.721 53.1489 126.159 53.9152 126.159V124.159ZM112.632 124.159V126.159C113.737 126.159 114.632 125.264 114.632 124.159H112.632ZM112.609 126.158C112.682 126.159 112.754 126.159 112.827 126.159V122.159C112.769 122.159 112.712 122.159 112.655 122.158L112.609 126.158ZM112.827 126.159C123.166 126.159 131.547 117.778 131.547 107.438H127.547C127.547 115.568 120.957 122.159 112.827 122.159V126.159ZM131.547 107.438C131.547 97.0992 123.166 88.7176 112.827 88.7176V92.7176C120.957 92.7176 127.547 99.3083 127.547 107.438H131.547ZM112.827 88.7176C112.754 88.7176 112.682 88.718 112.609 88.7188L112.655 92.7186C112.712 92.7179 112.769 92.7176 112.827 92.7176V88.7176ZM110.632 90.7176V90.7187H114.632V90.7176H110.632ZM108.313 92.7176H112.632V88.7176H108.313V92.7176ZM110.294 90.9878C110.462 89.7542 110.549 88.4957 110.549 87.2179H106.549C106.549 88.3144 106.475 89.3924 106.331 90.4474L110.294 90.9878ZM110.549 87.2179C110.549 71.9393 98.1635 59.5535 82.8848 59.5535V63.5535C95.9543 63.5535 106.549 74.1484 106.549 87.2179H110.549ZM82.8848 59.5535C67.6062 59.5535 55.2204 71.9393 55.2204 87.2179H59.2204C59.2204 74.1484 69.8154 63.5535 82.8848 63.5535V59.5535ZM55.2204 87.2179C55.2204 88.6575 55.3306 90.0726 55.5432 91.4551L59.4967 90.8471C59.3149 89.6651 59.2204 88.4532 59.2204 87.2179H55.2204ZM57.9726 89.203C56.6047 88.8852 55.181 88.7176 53.7207 88.7176V92.7176C54.8741 92.7176 55.9941 92.8499 57.0673 93.0992L57.9726 89.203ZM53.7207 88.7176C43.3816 88.7176 35 97.0992 35 107.438H39C39 99.3083 45.5907 92.7176 53.7207 92.7176V88.7176ZM35 107.438C35 117.778 43.3816 126.159 53.7207 126.159V122.159C45.5907 122.159 39 115.568 39 107.438H35ZM53.7207 126.159C53.7936 126.159 53.8663 126.159 53.9389 126.158L53.8932 122.158C53.8358 122.159 53.7783 122.159 53.7207 122.159V126.159ZM55.4858 125.397L55.4866 125.396L52.3455 122.92L52.3446 122.921L55.4858 125.397ZM112.632 122.159H53.9152V126.159H112.632V122.159ZM110.632 124.158V124.159H114.632V124.158H110.632Z" fill="url(#paint4_linear_1217_747)" mask="url(#path-5-inside-1_1217_747)"/>
</g>
<g filter="url(#filter3_bd_1217_747)">
<mask id="path-7-inside-2_1217_747" fill="white">
<path fill-rule="evenodd" clip-rule="evenodd" d="M142.988 106.797C143.034 106.798 143.081 106.798 143.128 106.798C149.802 106.798 155.212 101.388 155.212 94.714C155.212 88.0402 149.802 82.6301 143.128 82.6301C143.081 82.6301 143.034 82.6304 142.988 82.6309V82.6301H139.866C139.979 81.8031 140.037 80.9588 140.037 80.1009C140.037 69.8575 131.733 61.5535 121.49 61.5535C111.246 61.5535 102.942 69.8575 102.942 80.1009C102.942 81.0675 103.016 82.0167 103.159 82.9434C102.277 82.7384 101.357 82.6301 100.413 82.6301C93.7392 82.6301 88.3291 88.0402 88.3291 94.714C88.3291 101.388 93.7392 106.798 100.413 106.798C100.46 106.798 100.507 106.798 100.554 106.797L100.553 106.798H142.988V106.797Z"/>
</mask>
<path fill-rule="evenodd" clip-rule="evenodd" d="M142.988 106.797C143.034 106.798 143.081 106.798 143.128 106.798C149.802 106.798 155.212 101.388 155.212 94.714C155.212 88.0402 149.802 82.6301 143.128 82.6301C143.081 82.6301 143.034 82.6304 142.988 82.6309V82.6301H139.866C139.979 81.8031 140.037 80.9588 140.037 80.1009C140.037 69.8575 131.733 61.5535 121.49 61.5535C111.246 61.5535 102.942 69.8575 102.942 80.1009C102.942 81.0675 103.016 82.0167 103.159 82.9434C102.277 82.7384 101.357 82.6301 100.413 82.6301C93.7392 82.6301 88.3291 88.0402 88.3291 94.714C88.3291 101.388 93.7392 106.798 100.413 106.798C100.46 106.798 100.507 106.798 100.554 106.797L100.553 106.798H142.988V106.797Z" fill="url(#paint5_linear_1217_747)" shape-rendering="crispEdges"/>
<path d="M142.988 106.797L143.01 104.797C142.476 104.791 141.962 104.999 141.582 105.375C141.202 105.751 140.988 106.263 140.988 106.797H142.988ZM142.988 82.6309H140.988C140.988 83.1653 141.202 83.6774 141.582 84.0531C141.962 84.4288 142.476 84.6368 143.01 84.6308L142.988 82.6309ZM142.988 82.6301H144.988C144.988 81.5255 144.092 80.6301 142.988 80.6301V82.6301ZM139.866 82.6301L137.884 82.3599C137.806 82.9322 137.979 83.5102 138.359 83.9453C138.739 84.3804 139.288 84.6301 139.866 84.6301V82.6301ZM103.159 82.9434L102.706 84.8915C103.353 85.0417 104.032 84.8614 104.518 84.4101C105.005 83.9588 105.236 83.2954 105.135 82.6394L103.159 82.9434ZM100.554 106.797L102.125 108.035C102.602 107.429 102.689 106.605 102.348 105.914C102.008 105.223 101.301 104.788 100.531 104.797L100.554 106.797ZM100.553 106.798L98.9823 105.56C98.5083 106.162 98.4197 106.982 98.7542 107.671C99.0887 108.36 99.7874 108.798 100.553 108.798V106.798ZM142.988 106.798V108.798C144.092 108.798 144.988 107.902 144.988 106.798H142.988ZM142.965 108.797C143.019 108.798 143.074 108.798 143.128 108.798V104.798C143.089 104.798 143.05 104.798 143.01 104.797L142.965 108.797ZM143.128 108.798C150.906 108.798 157.212 102.492 157.212 94.714H153.212C153.212 100.283 148.697 104.798 143.128 104.798V108.798ZM157.212 94.714C157.212 86.9357 150.906 80.6301 143.128 80.6301V84.6301C148.697 84.6301 153.212 89.1448 153.212 94.714H157.212ZM143.128 80.6301C143.074 80.6301 143.019 80.6304 142.965 80.631L143.01 84.6308C143.05 84.6303 143.089 84.6301 143.128 84.6301V80.6301ZM140.988 82.6301V82.6309H144.988V82.6301H140.988ZM139.866 84.6301H142.988V80.6301H139.866V84.6301ZM141.848 82.9003C141.973 81.984 142.037 81.0495 142.037 80.1009H138.037C138.037 80.8682 137.985 81.6222 137.884 82.3599L141.848 82.9003ZM142.037 80.1009C142.037 68.7529 132.838 59.5535 121.49 59.5535V63.5535C130.628 63.5535 138.037 70.962 138.037 80.1009H142.037ZM121.49 59.5535C110.142 59.5535 100.942 68.7529 100.942 80.1009H104.942C104.942 70.962 112.351 63.5535 121.49 63.5535V59.5535ZM100.942 80.1009C100.942 81.1696 101.024 82.2205 101.182 83.2474L105.135 82.6394C105.008 81.813 104.942 80.9653 104.942 80.1009H100.942ZM103.611 80.9953C102.582 80.7561 101.511 80.6301 100.413 80.6301V84.6301C101.204 84.6301 101.971 84.7208 102.706 84.8915L103.611 80.9953ZM100.413 80.6301C92.6347 80.6301 86.3291 86.9357 86.3291 94.714H90.3291C90.3291 89.1448 94.8438 84.6301 100.413 84.6301V80.6301ZM86.3291 94.714C86.3291 102.492 92.6347 108.798 100.413 108.798V104.798C94.8438 104.798 90.3291 100.283 90.3291 94.714H86.3291ZM100.413 108.798C100.468 108.798 100.522 108.798 100.577 108.797L100.531 104.797C100.492 104.798 100.452 104.798 100.413 104.798V108.798ZM102.125 108.035L102.125 108.035L98.9829 105.56L98.9823 105.56L102.125 108.035ZM142.988 104.798H100.553V108.798H142.988V104.798ZM140.988 106.797V106.798H144.988V106.797H140.988Z" fill="url(#paint6_linear_1217_747)" mask="url(#path-7-inside-2_1217_747)"/>
</g>
<g filter="url(#filter4_bdd_1217_747)">
<path d="M63.292 121.281L63.7483 127.671C63.9546 130.56 61.1999 132.757 58.4292 131.914C55.6585 131.072 54.5941 127.712 56.374 125.428L60.3113 120.374C61.251 119.168 63.1831 119.756 63.292 121.281Z" fill="url(#paint7_linear_1217_747)" stroke="url(#paint8_linear_1217_747)" stroke-width="2"/>
<path d="M85.6543 121.281L86.1106 127.671C86.3169 130.56 83.5622 132.757 80.7915 131.914C78.0208 131.072 76.9564 127.712 78.7363 125.428L82.6736 120.374C83.6133 119.168 85.5454 119.756 85.6543 121.281Z" fill="url(#paint9_linear_1217_747)" stroke="url(#paint10_linear_1217_747)" stroke-width="2"/>
<path d="M108.016 121.281L108.472 127.671C108.678 130.56 105.924 132.757 103.153 131.914C100.382 131.072 99.3178 127.712 101.098 125.428L105.035 120.374C105.975 119.168 107.907 119.756 108.016 121.281Z" fill="url(#paint11_linear_1217_747)" stroke="url(#paint12_linear_1217_747)" stroke-width="2"/>
</g>
<g filter="url(#filter5_bdd_1217_747)">
<path d="M69.1924 138.981L69.6487 145.372C69.855 148.26 67.1003 150.458 64.3296 149.615C61.5589 148.772 60.4945 145.413 62.2744 143.128L66.2117 138.075C67.1514 136.869 69.0835 137.456 69.1924 138.981Z" fill="url(#paint13_linear_1217_747)" stroke="url(#paint14_linear_1217_747)" stroke-width="2"/>
<path d="M88.086 138.981L88.5423 145.372C88.7485 148.26 85.9938 150.458 83.2231 149.615C80.4524 148.772 79.3881 145.413 81.168 143.128L85.1052 138.075C86.0449 136.869 87.9771 137.456 88.086 138.981Z" fill="url(#paint15_linear_1217_747)" stroke="url(#paint16_linear_1217_747)" stroke-width="2"/>
</g>
</g>
<defs>
<filter id="filter0_f_1217_747" x="36.5518" y="-5" width="135.44" height="135.44" filterUnits="userSpaceOnUse" color-interpolation-filters="sRGB">
<feFlood flood-opacity="0" result="BackgroundImageFix"/>
<feBlend mode="normal" in="SourceGraphic" in2="BackgroundImageFix" result="shape"/>
<feGaussianBlur stdDeviation="22" result="effect1_foregroundBlur_1217_747"/>
</filter>
<filter id="filter1_f_1217_747" x="32.7207" y="44.8315" width="120.547" height="91.3833" filterUnits="userSpaceOnUse" color-interpolation-filters="sRGB">
<feFlood flood-opacity="0" result="BackgroundImageFix"/>
<feBlend mode="normal" in="SourceGraphic" in2="BackgroundImageFix" result="shape"/>
<feGaussianBlur stdDeviation="7" result="effect1_foregroundBlur_1217_747"/>
</filter>
<filter id="filter2_bd_1217_747" x="-34" y="26.5535" width="192.548" height="162.606" filterUnits="userSpaceOnUse" color-interpolation-filters="sRGB">
<feFlood flood-opacity="0" result="BackgroundImageFix"/>
<feGaussianBlur in="BackgroundImageFix" stdDeviation="7"/>
<feComposite in2="SourceAlpha" operator="in" result="effect1_backgroundBlur_1217_747"/>
<feColorMatrix in="SourceAlpha" type="matrix" values="0 0 0 0 0 0 0 0 0 0 0 0 0 0 0 0 0 0 127 0" result="hardAlpha"/>
<feOffset dx="-21" dy="15"/>
<feGaussianBlur stdDeviation="25"/>
<feComposite in2="hardAlpha" operator="out"/>
<feColorMatrix type="matrix" values="0 0 0 0 0.113725 0 0 0 0 0.14902 0 0 0 0 0.27451 0 0 0 0.25 0"/>
<feBlend mode="normal" in2="effect1_backgroundBlur_1217_747" result="effect2_dropShadow_1217_747"/>
<feBlend mode="normal" in="SourceGraphic" in2="effect2_dropShadow_1217_747" result="shape"/>
</filter>
<filter id="filter3_bd_1217_747" x="17.3291" y="26.5535" width="166.883" height="145.244" filterUnits="userSpaceOnUse" color-interpolation-filters="sRGB">
<feFlood flood-opacity="0" result="BackgroundImageFix"/>
<feGaussianBlur in="BackgroundImageFix" stdDeviation="7"/>
<feComposite in2="SourceAlpha" operator="in" result="effect1_backgroundBlur_1217_747"/>
<feColorMatrix in="SourceAlpha" type="matrix" values="0 0 0 0 0 0 0 0 0 0 0 0 0 0 0 0 0 0 127 0" result="hardAlpha"/>
<feOffset dx="-21" dy="15"/>
<feGaussianBlur stdDeviation="25"/>
<feComposite in2="hardAlpha" operator="out"/>
<feColorMatrix type="matrix" values="0 0 0 0 0.113438 0 0 0 0 0.148981 0 0 0 0 0.275 0 0 0 0.25 0"/>
<feBlend mode="normal" in2="effect1_backgroundBlur_1217_747" result="effect2_dropShadow_1217_747"/>
<feBlend mode="normal" in="SourceGraphic" in2="effect2_dropShadow_1217_747" result="shape"/>
</filter>
<filter id="filter4_bdd_1217_747" x="-16.501" y="70.7271" width="166.984" height="127.37" filterUnits="userSpaceOnUse" color-interpolation-filters="sRGB">
<feFlood flood-opacity="0" result="BackgroundImageFix"/>
<feGaussianBlur in="BackgroundImageFix" stdDeviation="7"/>
<feComposite in2="SourceAlpha" operator="in" result="effect1_backgroundBlur_1217_747"/>
<feColorMatrix in="SourceAlpha" type="matrix" values="0 0 0 0 0 0 0 0 0 0 0 0 0 0 0 0 0 0 127 0" result="hardAlpha"/>
<feOffset dx="-21" dy="15"/>
<feGaussianBlur stdDeviation="25"/>
<feComposite in2="hardAlpha" operator="out"/>
<feColorMatrix type="matrix" values="0 0 0 0 0.113438 0 0 0 0 0.148981 0 0 0 0 0.275 0 0 0 0.25 0"/>
<feBlend mode="normal" in2="effect1_backgroundBlur_1217_747" result="effect2_dropShadow_1217_747"/>
<feColorMatrix in="SourceAlpha" type="matrix" values="0 0 0 0 0 0 0 0 0 0 0 0 0 0 0 0 0 0 127 0" result="hardAlpha"/>
<feOffset dy="-7"/>
<feGaussianBlur stdDeviation="20.5"/>
<feComposite in2="hardAlpha" operator="out"/>
<feColorMatrix type="matrix" values="0 0 0 0 0.1375 0 0 0 0 0.74125 0 0 0 0 1 0 0 0 0.3 0"/>
<feBlend mode="normal" in2="effect2_dropShadow_1217_747" result="effect3_dropShadow_1217_747"/>
<feBlend mode="normal" in="SourceGraphic" in2="effect3_dropShadow_1217_747" result="shape"/>
</filter>
<filter id="filter5_bdd_1217_747" x="-10.6006" y="88.4279" width="141.154" height="127.37" filterUnits="userSpaceOnUse" color-interpolation-filters="sRGB">
<feFlood flood-opacity="0" result="BackgroundImageFix"/>
<feGaussianBlur in="BackgroundImageFix" stdDeviation="7"/>
<feComposite in2="SourceAlpha" operator="in" result="effect1_backgroundBlur_1217_747"/>
<feColorMatrix in="SourceAlpha" type="matrix" values="0 0 0 0 0 0 0 0 0 0 0 0 0 0 0 0 0 0 127 0" result="hardAlpha"/>
<feOffset dx="-21" dy="15"/>
<feGaussianBlur stdDeviation="25"/>
<feComposite in2="hardAlpha" operator="out"/>
<feColorMatrix type="matrix" values="0 0 0 0 0.113438 0 0 0 0 0.148981 0 0 0 0 0.275 0 0 0 0.25 0"/>
<feBlend mode="normal" in2="effect1_backgroundBlur_1217_747" result="effect2_dropShadow_1217_747"/>
<feColorMatrix in="SourceAlpha" type="matrix" values="0 0 0 0 0 0 0 0 0 0 0 0 0 0 0 0 0 0 127 0" result="hardAlpha"/>
<feOffset dy="-7"/>
<feGaussianBlur stdDeviation="20.5"/>
<feComposite in2="hardAlpha" operator="out"/>
<feColorMatrix type="matrix" values="0 0 0 0 0.1375 0 0 0 0 0.74125 0 0 0 0 1 0 0 0 0.3 0"/>
<feBlend mode="normal" in2="effect2_dropShadow_1217_747" result="effect3_dropShadow_1217_747"/>
<feBlend mode="normal" in="SourceGraphic" in2="effect3_dropShadow_1217_747" result="shape"/>
</filter>
<linearGradient id="paint0_linear_1217_747" x1="104.272" y1="40.5554" x2="104.272" y2="86.4402" gradientUnits="userSpaceOnUse">
<stop stop-color="#FFE600"/>
<stop offset="1" stop-color="#FF7A00"/>
</linearGradient>
<linearGradient id="paint1_linear_1217_747" x1="104.272" y1="40.5554" x2="104.272" y2="86.4402" gradientUnits="userSpaceOnUse">
<stop stop-color="white"/>
<stop offset="1" stop-color="white" stop-opacity="0"/>
</linearGradient>
<linearGradient id="paint2_linear_1217_747" x1="104.272" y1="40.5554" x2="104.272" y2="86.4402" gradientUnits="userSpaceOnUse">
<stop stop-color="#FFD600"/>
<stop offset="1" stop-color="#FF7A00"/>
</linearGradient>
<linearGradient id="paint3_linear_1217_747" x1="83.2737" y1="41.5275" x2="83.2737" y2="132.908" gradientUnits="userSpaceOnUse">
<stop stop-color="white"/>
<stop offset="1" stop-color="white" stop-opacity="0"/>
</linearGradient>
<linearGradient id="paint4_linear_1217_747" x1="83.2737" y1="61.5535" x2="83.2737" y2="124.159" gradientUnits="userSpaceOnUse">
<stop stop-color="white"/>
<stop offset="1" stop-color="white" stop-opacity="0"/>
</linearGradient>
<linearGradient id="paint5_linear_1217_747" x1="124.881" y1="62.9145" x2="124.881" y2="111.91" gradientUnits="userSpaceOnUse">
<stop stop-color="white"/>
<stop offset="1" stop-color="white" stop-opacity="0"/>
</linearGradient>
<linearGradient id="paint6_linear_1217_747" x1="121.771" y1="61.5535" x2="121.771" y2="106.798" gradientUnits="userSpaceOnUse">
<stop stop-color="white"/>
<stop offset="1" stop-color="white" stop-opacity="0"/>
</linearGradient>
<linearGradient id="paint7_linear_1217_747" x1="63.7944" y1="114.276" x2="58.1382" y2="132.871" gradientUnits="userSpaceOnUse">
<stop stop-color="#138EFF"/>
<stop offset="1" stop-color="#00E0FF"/>
</linearGradient>
<linearGradient id="paint8_linear_1217_747" x1="63.7944" y1="114.276" x2="58.1382" y2="132.871" gradientUnits="userSpaceOnUse">
<stop stop-color="white"/>
<stop offset="1" stop-color="white" stop-opacity="0"/>
</linearGradient>
<linearGradient id="paint9_linear_1217_747" x1="86.1567" y1="114.276" x2="80.5005" y2="132.871" gradientUnits="userSpaceOnUse">
<stop stop-color="#138EFF"/>
<stop offset="1" stop-color="#00E0FF"/>
</linearGradient>
<linearGradient id="paint10_linear_1217_747" x1="86.1567" y1="114.276" x2="80.5005" y2="132.871" gradientUnits="userSpaceOnUse">
<stop stop-color="white"/>
<stop offset="1" stop-color="white" stop-opacity="0"/>
</linearGradient>
<linearGradient id="paint11_linear_1217_747" x1="108.518" y1="114.276" x2="102.862" y2="132.871" gradientUnits="userSpaceOnUse">
<stop stop-color="#138EFF"/>
<stop offset="1" stop-color="#00E0FF"/>
</linearGradient>
<linearGradient id="paint12_linear_1217_747" x1="108.518" y1="114.276" x2="102.862" y2="132.871" gradientUnits="userSpaceOnUse">
<stop stop-color="white"/>
<stop offset="1" stop-color="white" stop-opacity="0"/>
</linearGradient>
<linearGradient id="paint13_linear_1217_747" x1="69.6948" y1="131.977" x2="64.0386" y2="150.572" gradientUnits="userSpaceOnUse">
<stop stop-color="#138EFF"/>
<stop offset="1" stop-color="#00E0FF"/>
</linearGradient>
<linearGradient id="paint14_linear_1217_747" x1="69.6948" y1="131.977" x2="64.0386" y2="150.572" gradientUnits="userSpaceOnUse">
<stop stop-color="white"/>
<stop offset="1" stop-color="white" stop-opacity="0"/>
</linearGradient>
<linearGradient id="paint15_linear_1217_747" x1="88.5883" y1="131.977" x2="82.9321" y2="150.572" gradientUnits="userSpaceOnUse">
<stop stop-color="#138EFF"/>
<stop offset="1" stop-color="#00E0FF"/>
</linearGradient>
<linearGradient id="paint16_linear_1217_747" x1="88.5883" y1="131.977" x2="82.9321" y2="150.572" gradientUnits="userSpaceOnUse">
<stop stop-color="white"/>
<stop offset="1" stop-color="white" stop-opacity="0"/>
</linearGradient>
<clipPath id="clip0_1217_747">
<rect width="192" height="192" fill="white"/>
</clipPath>
</defs>
</svg>
