<svg width="192" height="192" viewBox="0 0 192 192" fill="none" xmlns="http://www.w3.org/2000/svg">
<g clip-path="url(#clip0_1217_754)">
<g filter="url(#filter0_bdd_1217_754)">
<mask id="path-1-inside-1_1217_754" fill="white">
<path fill-rule="evenodd" clip-rule="evenodd" d="M96.9755 39.668C100.193 38.3138 102.508 42.3509 101.539 45.7049C100.095 50.7029 100.483 56.2408 103.05 61.2322C106.789 68.5004 114.158 72.6826 121.803 72.703C125.297 72.7123 128.542 76.0597 126.347 78.778C124.206 81.4288 121.491 83.6864 118.266 85.3451C105.882 91.7152 90.6785 86.8397 84.3084 74.4555C77.9384 62.0713 82.8138 46.8679 95.198 40.4978C95.7846 40.1961 96.3775 39.9196 96.9755 39.668Z"/>
</mask>
<path fill-rule="evenodd" clip-rule="evenodd" d="M96.9755 39.668C100.193 38.3138 102.508 42.3509 101.539 45.7049C100.095 50.7029 100.483 56.2408 103.05 61.2322C106.789 68.5004 114.158 72.6826 121.803 72.703C125.297 72.7123 128.542 76.0597 126.347 78.778C124.206 81.4288 121.491 83.6864 118.266 85.3451C105.882 91.7152 90.6785 86.8397 84.3084 74.4555C77.9384 62.0713 82.8138 46.8679 95.198 40.4978C95.7846 40.1961 96.3775 39.9196 96.9755 39.668Z" fill="url(#paint0_linear_1217_754)"/>
<path d="M126.347 78.778L124.791 77.5215L126.347 78.778ZM104.829 60.3174C102.504 55.7975 102.152 50.7873 103.46 46.2599L99.6173 45.1498C98.0375 50.6186 98.4615 56.684 101.272 62.147L104.829 60.3174ZM121.809 70.703C114.881 70.6845 108.212 66.8952 104.829 60.3174L101.272 62.147C105.365 70.1056 113.434 74.6806 121.798 74.703L121.809 70.703ZM124.791 77.5215C122.822 79.9597 120.323 82.0378 117.351 83.5666L119.181 87.1236C122.658 85.335 125.591 82.8979 127.903 80.0345L124.791 77.5215ZM117.351 83.5666C105.949 89.4314 91.9518 84.9427 86.087 73.5407L82.5299 75.3703C89.4052 88.7368 105.814 93.9989 119.181 87.1236L117.351 83.5666ZM86.087 73.5407C80.2221 62.1387 84.7109 48.1412 96.1129 42.2763L94.2832 38.7193C80.9168 45.5946 75.6546 62.0038 82.5299 75.3703L86.087 73.5407ZM96.1129 42.2763C96.6539 41.9981 97.2004 41.7432 97.7513 41.5114L96.1997 37.8246C95.5546 38.096 94.9154 38.3942 94.2832 38.7193L96.1129 42.2763ZM121.798 74.703C122.957 74.7061 124.076 75.2842 124.667 75.9988C124.949 76.34 125.045 76.6307 125.059 76.8269C125.071 76.9864 125.042 77.2111 124.791 77.5215L127.903 80.0345C128.75 78.9858 129.138 77.7727 129.049 76.5398C128.963 75.3435 128.442 74.2871 127.75 73.4505C126.394 71.8095 124.144 70.7092 121.809 70.703L121.798 74.703ZM103.46 46.2599C104.108 44.0161 103.678 41.5504 102.479 39.7932C101.867 38.8974 100.997 38.1045 99.8721 37.691C98.713 37.2651 97.4409 37.3022 96.1997 37.8246L97.7513 41.5114C98.119 41.3566 98.3429 41.3906 98.4924 41.4455C98.676 41.513 98.9272 41.6851 99.1753 42.0485C99.6951 42.8099 99.9379 44.0397 99.6173 45.1498L103.46 46.2599Z" fill="url(#paint1_linear_1217_754)" mask="url(#path-1-inside-1_1217_754)"/>
</g>
<g filter="url(#filter1_bd_1217_754)">
<mask id="path-3-inside-2_1217_754" fill="white">
<path fill-rule="evenodd" clip-rule="evenodd" d="M112.632 129.411C112.697 129.412 112.762 129.412 112.827 129.412C122.061 129.412 129.547 121.926 129.547 112.691C129.547 103.457 122.061 95.9707 112.827 95.9707C112.762 95.9707 112.697 95.9711 112.632 95.9718V95.9707H108.313C108.469 94.8264 108.549 93.6582 108.549 92.4711C108.549 78.297 97.0588 66.8067 82.8848 66.8067C68.7107 66.8067 57.2204 78.297 57.2204 92.4711C57.2204 93.8085 57.3227 95.122 57.5199 96.4042C56.2994 96.1206 55.0276 95.9707 53.7207 95.9707C44.4861 95.9707 37 103.457 37 112.691C37 121.926 44.4861 129.412 53.7207 129.412C53.7859 129.412 53.851 129.412 53.916 129.411L53.9151 129.412H112.632V129.411Z"/>
</mask>
<path fill-rule="evenodd" clip-rule="evenodd" d="M112.632 129.411C112.697 129.412 112.762 129.412 112.827 129.412C122.061 129.412 129.547 121.926 129.547 112.691C129.547 103.457 122.061 95.9707 112.827 95.9707C112.762 95.9707 112.697 95.9711 112.632 95.9718V95.9707H108.313C108.469 94.8264 108.549 93.6582 108.549 92.4711C108.549 78.297 97.0588 66.8067 82.8848 66.8067C68.7107 66.8067 57.2204 78.297 57.2204 92.4711C57.2204 93.8085 57.3227 95.122 57.5199 96.4042C56.2994 96.1206 55.0276 95.9707 53.7207 95.9707C44.4861 95.9707 37 103.457 37 112.691C37 121.926 44.4861 129.412 53.7207 129.412C53.7859 129.412 53.851 129.412 53.916 129.411L53.9151 129.412H112.632V129.411Z" fill="url(#paint2_linear_1217_754)" shape-rendering="crispEdges"/>
<path d="M112.632 129.411L112.655 127.411C112.121 127.405 111.606 127.613 111.226 127.989C110.846 128.365 110.632 128.877 110.632 129.411H112.632ZM112.632 95.9718H110.632C110.632 96.5062 110.846 97.0184 111.226 97.3941C111.606 97.7698 112.121 97.9778 112.655 97.9717L112.632 95.9718ZM112.632 95.9707H114.632C114.632 94.8661 113.737 93.9707 112.632 93.9707V95.9707ZM108.313 95.9707L106.331 95.7005C106.253 96.2728 106.426 96.8508 106.806 97.2859C107.186 97.721 107.735 97.9707 108.313 97.9707V95.9707ZM57.5199 96.4042L57.0673 98.3523C57.7138 98.5025 58.3928 98.3222 58.8796 97.8709C59.3664 97.4196 59.5975 96.7563 59.4966 96.1002L57.5199 96.4042ZM53.916 129.411L55.4866 130.649C55.9636 130.044 56.0506 129.219 55.7105 128.528C55.3704 127.837 54.6634 127.402 53.8931 127.411L53.916 129.411ZM53.9151 129.412L52.3445 128.174C51.8701 128.776 51.7812 129.596 52.1156 130.285C52.45 130.974 53.1489 131.412 53.9151 131.412V129.412ZM112.632 129.412V131.412C113.737 131.412 114.632 130.517 114.632 129.412H112.632ZM112.609 131.411C112.682 131.412 112.754 131.412 112.827 131.412V127.412C112.769 127.412 112.712 127.412 112.655 127.411L112.609 131.411ZM112.827 131.412C123.166 131.412 131.547 123.031 131.547 112.691H127.547C127.547 120.821 120.957 127.412 112.827 127.412V131.412ZM131.547 112.691C131.547 102.352 123.166 93.9707 112.827 93.9707V97.9707C120.957 97.9707 127.547 104.561 127.547 112.691H131.547ZM112.827 93.9707C112.754 93.9707 112.682 93.9711 112.609 93.9719L112.655 97.9717C112.712 97.971 112.769 97.9707 112.827 97.9707V93.9707ZM110.632 95.9707V95.9718H114.632V95.9707H110.632ZM108.313 97.9707H112.632V93.9707H108.313V97.9707ZM110.294 96.2409C110.462 95.0074 110.549 93.7488 110.549 92.4711H106.549C106.549 93.5675 106.475 94.6455 106.331 95.7005L110.294 96.2409ZM110.549 92.4711C110.549 77.1925 98.1634 64.8067 82.8848 64.8067V68.8067C95.9543 68.8067 106.549 79.4016 106.549 92.4711H110.549ZM82.8848 64.8067C67.6062 64.8067 55.2204 77.1925 55.2204 92.4711H59.2204C59.2204 79.4016 69.8153 68.8067 82.8848 68.8067V64.8067ZM55.2204 92.4711C55.2204 93.9106 55.3305 95.3258 55.5431 96.7082L59.4966 96.1002C59.3149 94.9182 59.2204 93.7064 59.2204 92.4711H55.2204ZM57.9725 94.4561C56.6046 94.1383 55.181 93.9707 53.7207 93.9707V97.9707C54.8741 97.9707 55.9941 98.103 57.0673 98.3523L57.9725 94.4561ZM53.7207 93.9707C43.3816 93.9707 35 102.352 35 112.691H39C39 104.561 45.5907 97.9707 53.7207 97.9707V93.9707ZM35 112.691C35 123.031 43.3816 131.412 53.7207 131.412V127.412C45.5907 127.412 39 120.821 39 112.691H35ZM53.7207 131.412C53.7936 131.412 53.8663 131.412 53.9389 131.411L53.8931 127.411C53.8357 127.412 53.7783 127.412 53.7207 127.412V131.412ZM55.4857 130.65L55.4866 130.649L52.3454 128.173L52.3445 128.174L55.4857 130.65ZM112.632 127.412H53.9151V131.412H112.632V127.412ZM110.632 129.411V129.412H114.632V129.411H110.632Z" fill="url(#paint3_linear_1217_754)" mask="url(#path-3-inside-2_1217_754)"/>
</g>
<g filter="url(#filter2_bd_1217_754)">
<mask id="path-5-inside-3_1217_754" fill="white">
<path fill-rule="evenodd" clip-rule="evenodd" d="M142.987 112.05C143.034 112.051 143.081 112.051 143.128 112.051C149.801 112.051 155.212 106.641 155.212 99.9672C155.212 93.2934 149.801 87.8833 143.128 87.8833C143.081 87.8833 143.034 87.8836 142.987 87.8841V87.8833H139.865C139.978 87.0563 140.036 86.212 140.036 85.3541C140.036 75.1106 131.733 66.8067 121.489 66.8067C111.246 66.8067 102.942 75.1106 102.942 85.3541C102.942 86.3206 103.016 87.2699 103.158 88.1966C102.276 87.9916 101.357 87.8833 100.413 87.8833C93.7388 87.8833 88.3286 93.2934 88.3286 99.9672C88.3286 106.641 93.7388 112.051 100.413 112.051C100.46 112.051 100.507 112.051 100.554 112.05L100.553 112.051H142.987V112.05Z"/>
</mask>
<path fill-rule="evenodd" clip-rule="evenodd" d="M142.987 112.05C143.034 112.051 143.081 112.051 143.128 112.051C149.801 112.051 155.212 106.641 155.212 99.9672C155.212 93.2934 149.801 87.8833 143.128 87.8833C143.081 87.8833 143.034 87.8836 142.987 87.8841V87.8833H139.865C139.978 87.0563 140.036 86.212 140.036 85.3541C140.036 75.1106 131.733 66.8067 121.489 66.8067C111.246 66.8067 102.942 75.1106 102.942 85.3541C102.942 86.3206 103.016 87.2699 103.158 88.1966C102.276 87.9916 101.357 87.8833 100.413 87.8833C93.7388 87.8833 88.3286 93.2934 88.3286 99.9672C88.3286 106.641 93.7388 112.051 100.413 112.051C100.46 112.051 100.507 112.051 100.554 112.05L100.553 112.051H142.987V112.05Z" fill="url(#paint4_linear_1217_754)" shape-rendering="crispEdges"/>
<path d="M142.987 112.05L143.01 110.05C142.476 110.044 141.961 110.252 141.581 110.628C141.201 111.004 140.987 111.516 140.987 112.05H142.987ZM142.987 87.8841H140.987C140.987 88.4185 141.201 88.9306 141.581 89.3064C141.961 89.6821 142.476 89.8901 143.01 89.884L142.987 87.8841ZM142.987 87.8833H144.987C144.987 86.7787 144.092 85.8833 142.987 85.8833V87.8833ZM139.865 87.8833L137.884 87.6131C137.806 88.1853 137.979 88.7634 138.359 89.1985C138.739 89.6336 139.288 89.8833 139.865 89.8833V87.8833ZM103.158 88.1966L102.706 90.1447C103.352 90.2949 104.031 90.1146 104.518 89.6633C105.005 89.212 105.236 88.5486 105.135 87.8926L103.158 88.1966ZM100.554 112.05L102.126 113.287C102.602 112.682 102.688 111.857 102.348 111.166C102.007 110.476 101.301 110.042 100.531 110.05L100.554 112.05ZM100.553 112.051L98.981 110.815C98.5075 111.417 98.4194 112.236 98.754 112.925C99.0886 113.614 99.7872 114.051 100.553 114.051V112.051ZM142.987 112.051V114.051C144.092 114.051 144.987 113.156 144.987 112.051H142.987ZM142.964 114.05C143.019 114.051 143.073 114.051 143.128 114.051V110.051C143.088 110.051 143.049 110.051 143.01 110.05L142.964 114.05ZM143.128 114.051C150.906 114.051 157.212 107.746 157.212 99.9672H153.212C153.212 105.536 148.697 110.051 143.128 110.051V114.051ZM157.212 99.9672C157.212 92.1889 150.906 85.8833 143.128 85.8833V89.8833C148.697 89.8833 153.212 94.398 153.212 99.9672H157.212ZM143.128 85.8833C143.073 85.8833 143.019 85.8836 142.964 85.8842L143.01 89.884C143.049 89.8835 143.088 89.8833 143.128 89.8833V85.8833ZM140.987 87.8833V87.8841H144.987V87.8833H140.987ZM139.865 89.8833H142.987V85.8833H139.865V89.8833ZM141.847 88.1535C141.972 87.2372 142.036 86.3026 142.036 85.3541H138.036C138.036 86.1214 137.984 86.8754 137.884 87.6131L141.847 88.1535ZM142.036 85.3541C142.036 74.0061 132.837 64.8067 121.489 64.8067V68.8067C130.628 68.8067 138.036 76.2152 138.036 85.3541H142.036ZM121.489 64.8067C110.141 64.8067 100.942 74.0061 100.942 85.3541H104.942C104.942 76.2152 112.35 68.8067 121.489 68.8067V64.8067ZM100.942 85.3541C100.942 86.4228 101.024 87.4737 101.181 88.5006L105.135 87.8926C105.008 87.0661 104.942 86.2185 104.942 85.3541H100.942ZM103.611 86.2485C102.581 86.0093 101.51 85.8833 100.413 85.8833V89.8833C101.204 89.8833 101.971 89.974 102.706 90.1447L103.611 86.2485ZM100.413 85.8833C92.6342 85.8833 86.3286 92.1889 86.3286 99.9672H90.3286C90.3286 94.398 94.8433 89.8833 100.413 89.8833V85.8833ZM86.3286 99.9672C86.3286 107.746 92.6342 114.051 100.413 114.051V110.051C94.8433 110.051 90.3286 105.536 90.3286 99.9672H86.3286ZM100.413 114.051C100.467 114.051 100.522 114.051 100.577 114.05L100.531 110.05C100.491 110.051 100.452 110.051 100.413 110.051V114.051ZM102.125 113.288L102.126 113.287L98.9816 110.814L98.981 110.815L102.125 113.288ZM142.987 110.051H100.553V114.051H142.987V110.051ZM140.987 112.05V112.051H144.987V112.05H140.987Z" fill="url(#paint5_linear_1217_754)" mask="url(#path-5-inside-3_1217_754)"/>
</g>
<g filter="url(#filter3_bdd_1217_754)">
<path d="M63.292 126.534L63.7483 132.924C63.9546 135.813 61.1999 138.01 58.4292 137.168C55.6585 136.325 54.5941 132.965 56.374 130.681L60.3113 125.627C61.251 124.421 63.1831 125.009 63.292 126.534Z" fill="url(#paint6_linear_1217_754)" stroke="url(#paint7_linear_1217_754)" stroke-width="2"/>
<path d="M85.6538 126.534L86.1101 132.924C86.3164 135.813 83.5617 138.01 80.791 137.168C78.0203 136.325 76.9559 132.965 78.7358 130.681L82.6731 125.627C83.6128 124.421 85.5449 125.009 85.6538 126.534Z" fill="url(#paint8_linear_1217_754)" stroke="url(#paint9_linear_1217_754)" stroke-width="2"/>
<path d="M108.016 126.534L108.472 132.924C108.679 135.813 105.924 138.01 103.153 137.168C100.383 136.325 99.3182 132.965 101.098 130.681L105.035 125.627C105.975 124.421 107.907 125.009 108.016 126.534Z" fill="url(#paint10_linear_1217_754)" stroke="url(#paint11_linear_1217_754)" stroke-width="2"/>
</g>
<g filter="url(#filter4_bdd_1217_754)">
<path d="M69.1919 144.235L69.6482 150.625C69.8545 153.513 67.0998 155.711 64.3291 154.868C61.5584 154.026 60.494 150.666 62.2739 148.382L66.2112 143.328C67.1509 142.122 69.083 142.709 69.1919 144.235Z" fill="url(#paint12_linear_1217_754)" stroke="url(#paint13_linear_1217_754)" stroke-width="2"/>
<path d="M88.085 144.235L88.5413 150.625C88.7476 153.513 85.9929 155.711 83.2221 154.868C80.4514 154.026 79.3871 150.666 81.167 148.382L85.1042 143.328C86.044 142.122 87.9761 142.709 88.085 144.235Z" fill="url(#paint14_linear_1217_754)" stroke="url(#paint15_linear_1217_754)" stroke-width="2"/>
</g>
</g>
<defs>
<filter id="filter0_bdd_1217_754" x="10.5107" y="1.39935" width="154.551" height="151.744" filterUnits="userSpaceOnUse" color-interpolation-filters="sRGB">
<feFlood flood-opacity="0" result="BackgroundImageFix"/>
<feGaussianBlur in="BackgroundImageFix" stdDeviation="7"/>
<feComposite in2="SourceAlpha" operator="in" result="effect1_backgroundBlur_1217_754"/>
<feColorMatrix in="SourceAlpha" type="matrix" values="0 0 0 0 0 0 0 0 0 0 0 0 0 0 0 0 0 0 127 0" result="hardAlpha"/>
<feOffset dx="-21" dy="15"/>
<feGaussianBlur stdDeviation="25"/>
<feComposite in2="hardAlpha" operator="out"/>
<feColorMatrix type="matrix" values="0 0 0 0 0.113438 0 0 0 0 0.148981 0 0 0 0 0.275 0 0 0 0.25 0"/>
<feBlend mode="normal" in2="effect1_backgroundBlur_1217_754" result="effect2_dropShadow_1217_754"/>
<feColorMatrix in="SourceAlpha" type="matrix" values="0 0 0 0 0 0 0 0 0 0 0 0 0 0 0 0 0 0 127 0" result="hardAlpha"/>
<feOffset/>
<feGaussianBlur stdDeviation="19"/>
<feComposite in2="hardAlpha" operator="out"/>
<feColorMatrix type="matrix" values="0 0 0 0 0.619608 0 0 0 0 0.423529 0 0 0 0 1 0 0 0 0.4 0"/>
<feBlend mode="normal" in2="effect2_dropShadow_1217_754" result="effect3_dropShadow_1217_754"/>
<feBlend mode="normal" in="SourceGraphic" in2="effect3_dropShadow_1217_754" result="shape"/>
</filter>
<filter id="filter1_bd_1217_754" x="-34" y="31.8067" width="192.547" height="162.606" filterUnits="userSpaceOnUse" color-interpolation-filters="sRGB">
<feFlood flood-opacity="0" result="BackgroundImageFix"/>
<feGaussianBlur in="BackgroundImageFix" stdDeviation="7"/>
<feComposite in2="SourceAlpha" operator="in" result="effect1_backgroundBlur_1217_754"/>
<feColorMatrix in="SourceAlpha" type="matrix" values="0 0 0 0 0 0 0 0 0 0 0 0 0 0 0 0 0 0 127 0" result="hardAlpha"/>
<feOffset dx="-21" dy="15"/>
<feGaussianBlur stdDeviation="25"/>
<feComposite in2="hardAlpha" operator="out"/>
<feColorMatrix type="matrix" values="0 0 0 0 0.113725 0 0 0 0 0.14902 0 0 0 0 0.27451 0 0 0 0.25 0"/>
<feBlend mode="normal" in2="effect1_backgroundBlur_1217_754" result="effect2_dropShadow_1217_754"/>
<feBlend mode="normal" in="SourceGraphic" in2="effect2_dropShadow_1217_754" result="shape"/>
</filter>
<filter id="filter2_bd_1217_754" x="17.3286" y="31.8067" width="166.883" height="145.244" filterUnits="userSpaceOnUse" color-interpolation-filters="sRGB">
<feFlood flood-opacity="0" result="BackgroundImageFix"/>
<feGaussianBlur in="BackgroundImageFix" stdDeviation="7"/>
<feComposite in2="SourceAlpha" operator="in" result="effect1_backgroundBlur_1217_754"/>
<feColorMatrix in="SourceAlpha" type="matrix" values="0 0 0 0 0 0 0 0 0 0 0 0 0 0 0 0 0 0 127 0" result="hardAlpha"/>
<feOffset dx="-21" dy="15"/>
<feGaussianBlur stdDeviation="25"/>
<feComposite in2="hardAlpha" operator="out"/>
<feColorMatrix type="matrix" values="0 0 0 0 0.113438 0 0 0 0 0.148981 0 0 0 0 0.275 0 0 0 0.25 0"/>
<feBlend mode="normal" in2="effect1_backgroundBlur_1217_754" result="effect2_dropShadow_1217_754"/>
<feBlend mode="normal" in="SourceGraphic" in2="effect2_dropShadow_1217_754" result="shape"/>
</filter>
<filter id="filter3_bdd_1217_754" x="-16.5005" y="75.9803" width="166.984" height="127.37" filterUnits="userSpaceOnUse" color-interpolation-filters="sRGB">
<feFlood flood-opacity="0" result="BackgroundImageFix"/>
<feGaussianBlur in="BackgroundImageFix" stdDeviation="7"/>
<feComposite in2="SourceAlpha" operator="in" result="effect1_backgroundBlur_1217_754"/>
<feColorMatrix in="SourceAlpha" type="matrix" values="0 0 0 0 0 0 0 0 0 0 0 0 0 0 0 0 0 0 127 0" result="hardAlpha"/>
<feOffset dx="-21" dy="15"/>
<feGaussianBlur stdDeviation="25"/>
<feComposite in2="hardAlpha" operator="out"/>
<feColorMatrix type="matrix" values="0 0 0 0 0.113438 0 0 0 0 0.148981 0 0 0 0 0.275 0 0 0 0.25 0"/>
<feBlend mode="normal" in2="effect1_backgroundBlur_1217_754" result="effect2_dropShadow_1217_754"/>
<feColorMatrix in="SourceAlpha" type="matrix" values="0 0 0 0 0 0 0 0 0 0 0 0 0 0 0 0 0 0 127 0" result="hardAlpha"/>
<feOffset dy="-7"/>
<feGaussianBlur stdDeviation="20.5"/>
<feComposite in2="hardAlpha" operator="out"/>
<feColorMatrix type="matrix" values="0 0 0 0 0.1375 0 0 0 0 0.74125 0 0 0 0 1 0 0 0 0.3 0"/>
<feBlend mode="normal" in2="effect2_dropShadow_1217_754" result="effect3_dropShadow_1217_754"/>
<feBlend mode="normal" in="SourceGraphic" in2="effect3_dropShadow_1217_754" result="shape"/>
</filter>
<filter id="filter4_bdd_1217_754" x="-10.6006" y="93.681" width="141.153" height="127.37" filterUnits="userSpaceOnUse" color-interpolation-filters="sRGB">
<feFlood flood-opacity="0" result="BackgroundImageFix"/>
<feGaussianBlur in="BackgroundImageFix" stdDeviation="7"/>
<feComposite in2="SourceAlpha" operator="in" result="effect1_backgroundBlur_1217_754"/>
<feColorMatrix in="SourceAlpha" type="matrix" values="0 0 0 0 0 0 0 0 0 0 0 0 0 0 0 0 0 0 127 0" result="hardAlpha"/>
<feOffset dx="-21" dy="15"/>
<feGaussianBlur stdDeviation="25"/>
<feComposite in2="hardAlpha" operator="out"/>
<feColorMatrix type="matrix" values="0 0 0 0 0.113438 0 0 0 0 0.148981 0 0 0 0 0.275 0 0 0 0.25 0"/>
<feBlend mode="normal" in2="effect1_backgroundBlur_1217_754" result="effect2_dropShadow_1217_754"/>
<feColorMatrix in="SourceAlpha" type="matrix" values="0 0 0 0 0 0 0 0 0 0 0 0 0 0 0 0 0 0 127 0" result="hardAlpha"/>
<feOffset dy="-7"/>
<feGaussianBlur stdDeviation="20.5"/>
<feComposite in2="hardAlpha" operator="out"/>
<feColorMatrix type="matrix" values="0 0 0 0 0.1375 0 0 0 0 0.74125 0 0 0 0 1 0 0 0 0.3 0"/>
<feBlend mode="normal" in2="effect2_dropShadow_1217_754" result="effect3_dropShadow_1217_754"/>
<feBlend mode="normal" in="SourceGraphic" in2="effect3_dropShadow_1217_754" result="shape"/>
</filter>
<linearGradient id="paint0_linear_1217_754" x1="88.7819" y1="44.2977" x2="111.85" y2="89.1449" gradientUnits="userSpaceOnUse">
<stop offset="0.0001" stop-color="#D4C0FF"/>
<stop offset="1" stop-color="#7E2FFF"/>
</linearGradient>
<linearGradient id="paint1_linear_1217_754" x1="90.1245" y1="20.239" x2="102.955" y2="79.0655" gradientUnits="userSpaceOnUse">
<stop stop-color="white"/>
<stop offset="1" stop-color="white" stop-opacity="0"/>
</linearGradient>
<linearGradient id="paint2_linear_1217_754" x1="83.2737" y1="46.7807" x2="83.2737" y2="138.162" gradientUnits="userSpaceOnUse">
<stop stop-color="white"/>
<stop offset="1" stop-color="white" stop-opacity="0"/>
</linearGradient>
<linearGradient id="paint3_linear_1217_754" x1="83.2737" y1="66.8067" x2="83.2737" y2="129.412" gradientUnits="userSpaceOnUse">
<stop stop-color="white"/>
<stop offset="1" stop-color="white" stop-opacity="0"/>
</linearGradient>
<linearGradient id="paint4_linear_1217_754" x1="124.881" y1="68.1677" x2="124.881" y2="117.163" gradientUnits="userSpaceOnUse">
<stop stop-color="white"/>
<stop offset="1" stop-color="white" stop-opacity="0"/>
</linearGradient>
<linearGradient id="paint5_linear_1217_754" x1="121.77" y1="66.8067" x2="121.77" y2="112.051" gradientUnits="userSpaceOnUse">
<stop stop-color="white"/>
<stop offset="1" stop-color="white" stop-opacity="0"/>
</linearGradient>
<linearGradient id="paint6_linear_1217_754" x1="63.7944" y1="119.529" x2="58.1382" y2="138.124" gradientUnits="userSpaceOnUse">
<stop stop-color="#138EFF"/>
<stop offset="1" stop-color="#00E0FF"/>
</linearGradient>
<linearGradient id="paint7_linear_1217_754" x1="63.7944" y1="119.529" x2="58.1382" y2="138.124" gradientUnits="userSpaceOnUse">
<stop stop-color="white"/>
<stop offset="1" stop-color="white" stop-opacity="0"/>
</linearGradient>
<linearGradient id="paint8_linear_1217_754" x1="86.1562" y1="119.529" x2="80.5" y2="138.124" gradientUnits="userSpaceOnUse">
<stop stop-color="#138EFF"/>
<stop offset="1" stop-color="#00E0FF"/>
</linearGradient>
<linearGradient id="paint9_linear_1217_754" x1="86.1562" y1="119.529" x2="80.5" y2="138.124" gradientUnits="userSpaceOnUse">
<stop stop-color="white"/>
<stop offset="1" stop-color="white" stop-opacity="0"/>
</linearGradient>
<linearGradient id="paint10_linear_1217_754" x1="108.519" y1="119.529" x2="102.862" y2="138.124" gradientUnits="userSpaceOnUse">
<stop stop-color="#138EFF"/>
<stop offset="1" stop-color="#00E0FF"/>
</linearGradient>
<linearGradient id="paint11_linear_1217_754" x1="108.519" y1="119.529" x2="102.862" y2="138.124" gradientUnits="userSpaceOnUse">
<stop stop-color="white"/>
<stop offset="1" stop-color="white" stop-opacity="0"/>
</linearGradient>
<linearGradient id="paint12_linear_1217_754" x1="69.6943" y1="137.23" x2="64.0381" y2="155.825" gradientUnits="userSpaceOnUse">
<stop stop-color="#138EFF"/>
<stop offset="1" stop-color="#00E0FF"/>
</linearGradient>
<linearGradient id="paint13_linear_1217_754" x1="69.6943" y1="137.23" x2="64.0381" y2="155.825" gradientUnits="userSpaceOnUse">
<stop stop-color="white"/>
<stop offset="1" stop-color="white" stop-opacity="0"/>
</linearGradient>
<linearGradient id="paint14_linear_1217_754" x1="88.5874" y1="137.23" x2="82.9311" y2="155.825" gradientUnits="userSpaceOnUse">
<stop stop-color="#138EFF"/>
<stop offset="1" stop-color="#00E0FF"/>
</linearGradient>
<linearGradient id="paint15_linear_1217_754" x1="88.5874" y1="137.23" x2="82.9311" y2="155.825" gradientUnits="userSpaceOnUse">
<stop stop-color="white"/>
<stop offset="1" stop-color="white" stop-opacity="0"/>
</linearGradient>
<clipPath id="clip0_1217_754">
<rect width="192" height="192" fill="white"/>
</clipPath>
</defs>
</svg>
