<svg width="192" height="192" viewBox="0 0 192 192" fill="none" xmlns="http://www.w3.org/2000/svg">
<g clip-path="url(#clip0_1217_746)">
<g filter="url(#filter0_bdd_1217_746)">
<path d="M67.781 113.395L85.038 81.8149C85.3887 81.1732 86.0617 80.774 86.793 80.774H102.327C103.831 80.774 104.797 82.3703 104.099 83.702L94.3343 102.344C93.6368 103.675 94.6027 105.272 96.106 105.272H105.631C107.36 105.272 108.275 107.317 107.122 108.605L74.2176 145.381C72.7431 147.029 70.0796 145.419 70.8537 143.347L79.9316 119.054C80.42 117.747 79.4535 116.354 78.0581 116.354H69.5361C68.0173 116.354 67.0527 114.728 67.781 113.395Z" fill="url(#paint0_linear_1217_746)"/>
<path d="M68.6586 113.875L85.9155 82.2945C86.0908 81.9736 86.4273 81.774 86.793 81.774H102.327C103.079 81.774 103.562 82.5722 103.213 83.238L93.4485 101.88C92.4022 103.877 93.851 106.272 96.106 106.272H105.631C106.496 106.272 106.953 107.294 106.377 107.939L73.4724 144.714C72.7351 145.538 71.4034 144.733 71.7904 143.697L80.8683 119.404C81.601 117.444 80.1512 115.354 78.0581 115.354H69.5361C68.7767 115.354 68.2944 114.541 68.6586 113.875Z" stroke="url(#paint1_linear_1217_746)" stroke-width="2"/>
</g>
<g filter="url(#filter1_bd_1217_746)">
<mask id="path-3-inside-1_1217_746" fill="white">
<path fill-rule="evenodd" clip-rule="evenodd" d="M112.632 100.604C112.697 100.605 112.762 100.606 112.827 100.606C122.061 100.606 129.547 93.1194 129.547 83.8848C129.547 74.6502 122.061 67.1641 112.827 67.1641C112.762 67.1641 112.697 67.1645 112.632 67.1652V67.1641H108.313C108.469 66.0198 108.549 64.8515 108.549 63.6644C108.549 49.4903 97.0589 38 82.8849 38C68.7108 38 57.2205 49.4903 57.2205 63.6644C57.2205 65.0018 57.3228 66.3154 57.52 67.5976C56.2994 67.314 55.0276 67.1641 53.7207 67.1641C44.4861 67.1641 37 74.6502 37 83.8848C37 93.1194 44.4861 100.606 53.7207 100.606C53.786 100.606 53.8511 100.605 53.9161 100.604L53.9152 100.606H112.632V100.604Z"/>
</mask>
<path fill-rule="evenodd" clip-rule="evenodd" d="M112.632 100.604C112.697 100.605 112.762 100.606 112.827 100.606C122.061 100.606 129.547 93.1194 129.547 83.8848C129.547 74.6502 122.061 67.1641 112.827 67.1641C112.762 67.1641 112.697 67.1645 112.632 67.1652V67.1641H108.313C108.469 66.0198 108.549 64.8515 108.549 63.6644C108.549 49.4903 97.0589 38 82.8849 38C68.7108 38 57.2205 49.4903 57.2205 63.6644C57.2205 65.0018 57.3228 66.3154 57.52 67.5976C56.2994 67.314 55.0276 67.1641 53.7207 67.1641C44.4861 67.1641 37 74.6502 37 83.8848C37 93.1194 44.4861 100.606 53.7207 100.606C53.786 100.606 53.8511 100.605 53.9161 100.604L53.9152 100.606H112.632V100.604Z" fill="url(#paint2_linear_1217_746)" shape-rendering="crispEdges"/>
<path d="M112.632 100.604L112.655 98.6046C112.121 98.5985 111.606 98.8065 111.226 99.1822C110.846 99.5579 110.632 100.07 110.632 100.604H112.632ZM112.632 67.1652H110.632C110.632 67.6996 110.846 68.2117 111.226 68.5874C111.606 68.9632 112.121 69.1712 112.655 69.1651L112.632 67.1652ZM112.632 67.1641H114.632C114.632 66.0595 113.737 65.1641 112.632 65.1641V67.1641ZM108.313 67.1641L106.331 66.8939C106.253 67.4661 106.426 68.0442 106.806 68.4793C107.186 68.9144 107.735 69.1641 108.313 69.1641V67.1641ZM57.52 67.5976L57.0674 69.5457C57.7139 69.6959 58.3929 69.5156 58.8797 69.0643C59.3665 68.613 59.5976 67.9496 59.4967 67.2936L57.52 67.5976ZM53.9161 100.604L55.4867 101.843C55.9636 101.238 56.0507 100.413 55.7106 99.7214C55.3705 99.0302 54.6636 98.5958 53.8932 98.6046L53.9161 100.604ZM53.9152 100.606L52.3446 99.3673C51.8702 99.9691 51.7813 100.789 52.1157 101.478C52.4501 102.168 53.149 102.606 53.9152 102.606V100.606ZM112.632 100.606V102.606C113.737 102.606 114.632 101.71 114.632 100.606H112.632ZM112.609 102.604C112.682 102.605 112.754 102.606 112.827 102.606V98.6056C112.769 98.6056 112.712 98.6052 112.655 98.6046L112.609 102.604ZM112.827 102.606C123.166 102.606 131.547 94.224 131.547 83.8848H127.547C127.547 92.0149 120.957 98.6056 112.827 98.6056V102.606ZM131.547 83.8848C131.547 73.5456 123.166 65.1641 112.827 65.1641V69.1641C120.957 69.1641 127.547 75.7548 127.547 83.8848H131.547ZM112.827 65.1641C112.754 65.1641 112.682 65.1645 112.609 65.1653L112.655 69.1651C112.712 69.1644 112.769 69.1641 112.827 69.1641V65.1641ZM110.632 67.1641V67.1652H114.632V67.1641H110.632ZM108.313 69.1641H112.632V65.1641H108.313V69.1641ZM110.294 67.4343C110.463 66.2007 110.549 64.9421 110.549 63.6644H106.549C106.549 64.7609 106.475 65.8389 106.331 66.8939L110.294 67.4343ZM110.549 63.6644C110.549 48.3858 98.1635 36 82.8849 36V40C95.9544 40 106.549 50.5949 106.549 63.6644H110.549ZM82.8849 36C67.6062 36 55.2205 48.3858 55.2205 63.6644H59.2205C59.2205 50.5949 69.8154 40 82.8849 40V36ZM55.2205 63.6644C55.2205 65.104 55.3306 66.5191 55.5432 67.9016L59.4967 67.2936C59.315 66.1116 59.2205 64.8997 59.2205 63.6644H55.2205ZM57.9726 65.6495C56.6047 65.3317 55.181 65.1641 53.7207 65.1641V69.1641C54.8742 69.1641 55.9942 69.2964 57.0674 69.5457L57.9726 65.6495ZM53.7207 65.1641C43.3816 65.1641 35 73.5456 35 83.8848H39C39 75.7548 45.5907 69.1641 53.7207 69.1641V65.1641ZM35 83.8848C35 94.224 43.3816 102.606 53.7207 102.606V98.6056C45.5907 98.6056 39 92.0149 39 83.8848H35ZM53.7207 102.606C53.7936 102.606 53.8663 102.605 53.939 102.604L53.8932 98.6046C53.8358 98.6052 53.7783 98.6056 53.7207 98.6056V102.606ZM55.4858 101.844L55.4867 101.843L52.3455 99.3662L52.3446 99.3673L55.4858 101.844ZM112.632 98.6056H53.9152V102.606H112.632V98.6056ZM110.632 100.604V100.606H114.632V100.604H110.632Z" fill="url(#paint3_linear_1217_746)" mask="url(#path-3-inside-1_1217_746)"/>
</g>
<g filter="url(#filter2_bd_1217_746)">
<mask id="path-5-inside-2_1217_746" fill="white">
<path fill-rule="evenodd" clip-rule="evenodd" d="M142.987 83.2436C143.034 83.2441 143.081 83.2444 143.128 83.2444C149.801 83.2444 155.212 77.8342 155.212 71.1605C155.212 64.4867 149.801 59.0766 143.128 59.0766C143.081 59.0766 143.034 59.0768 142.987 59.0774V59.0766H139.865C139.978 58.2496 140.037 57.4053 140.037 56.5474C140.037 46.3039 131.733 38 121.489 38C111.246 38 102.942 46.3039 102.942 56.5474C102.942 57.5139 103.016 58.4632 103.158 59.3899C102.276 59.1849 101.357 59.0766 100.413 59.0766C93.7388 59.0766 88.3286 64.4867 88.3286 71.1605C88.3286 77.8342 93.7388 83.2444 100.413 83.2444C100.46 83.2444 100.507 83.2441 100.554 83.2436L100.553 83.2444H142.987V83.2436Z"/>
</mask>
<path fill-rule="evenodd" clip-rule="evenodd" d="M142.987 83.2436C143.034 83.2441 143.081 83.2444 143.128 83.2444C149.801 83.2444 155.212 77.8342 155.212 71.1605C155.212 64.4867 149.801 59.0766 143.128 59.0766C143.081 59.0766 143.034 59.0768 142.987 59.0774V59.0766H139.865C139.978 58.2496 140.037 57.4053 140.037 56.5474C140.037 46.3039 131.733 38 121.489 38C111.246 38 102.942 46.3039 102.942 56.5474C102.942 57.5139 103.016 58.4632 103.158 59.3899C102.276 59.1849 101.357 59.0766 100.413 59.0766C93.7388 59.0766 88.3286 64.4867 88.3286 71.1605C88.3286 77.8342 93.7388 83.2444 100.413 83.2444C100.46 83.2444 100.507 83.2441 100.554 83.2436L100.553 83.2444H142.987V83.2436Z" fill="url(#paint4_linear_1217_746)" shape-rendering="crispEdges"/>
<path d="M142.987 83.2436L143.01 81.2437C142.476 81.2376 141.961 81.4456 141.581 81.8213C141.201 82.197 140.987 82.7092 140.987 83.2436H142.987ZM142.987 59.0774H140.987C140.987 59.6118 141.201 60.1239 141.581 60.4996C141.961 60.8753 142.476 61.0833 143.01 61.0772L142.987 59.0774ZM142.987 59.0766H144.987C144.987 57.972 144.092 57.0766 142.987 57.0766V59.0766ZM139.865 59.0766L137.884 58.8064C137.806 59.3786 137.979 59.9567 138.359 60.3918C138.739 60.8269 139.288 61.0766 139.865 61.0766V59.0766ZM103.158 59.3899L102.706 61.338C103.352 61.4882 104.031 61.3078 104.518 60.8566C105.005 60.4053 105.236 59.7419 105.135 59.0858L103.158 59.3899ZM100.554 83.2436L102.125 84.481C102.601 83.8759 102.688 83.051 102.348 82.36C102.008 81.6691 101.301 81.2349 100.531 81.2437L100.554 83.2436ZM100.553 83.2444L98.9818 82.0069C98.5078 82.6088 98.4193 83.4284 98.7537 84.1176C99.0882 84.8068 99.787 85.2444 100.553 85.2444V83.2444ZM142.987 83.2444V85.2444C144.092 85.2444 144.987 84.3489 144.987 83.2444H142.987ZM142.964 85.2434C143.019 85.2441 143.073 85.2444 143.128 85.2444V81.2444C143.088 81.2444 143.049 81.2441 143.01 81.2437L142.964 85.2434ZM143.128 85.2444C150.906 85.2444 157.212 78.9388 157.212 71.1605H153.212C153.212 76.7296 148.697 81.2444 143.128 81.2444V85.2444ZM157.212 71.1605C157.212 63.3821 150.906 57.0766 143.128 57.0766V61.0766C148.697 61.0766 153.212 65.5913 153.212 71.1605H157.212ZM143.128 57.0766C143.073 57.0766 143.019 57.0769 142.964 57.0775L143.01 61.0772C143.049 61.0768 143.088 61.0766 143.128 61.0766V57.0766ZM140.987 59.0766V59.0774H144.987V59.0766H140.987ZM139.865 61.0766H142.987V57.0766H139.865V61.0766ZM141.847 59.3468C141.972 58.4305 142.037 57.4959 142.037 56.5474H138.037C138.037 57.3147 137.984 58.0687 137.884 58.8064L141.847 59.3468ZM142.037 56.5474C142.037 45.1994 132.837 36 121.489 36V40C130.628 40 138.037 47.4085 138.037 56.5474H142.037ZM121.489 36C110.141 36 100.942 45.1994 100.942 56.5474H104.942C104.942 47.4085 112.35 40 121.489 40V36ZM100.942 56.5474C100.942 57.6161 101.024 58.667 101.181 59.6939L105.135 59.0858C105.008 58.2594 104.942 57.4118 104.942 56.5474H100.942ZM103.611 57.4418C102.581 57.2026 101.51 57.0766 100.413 57.0766V61.0766C101.204 61.0766 101.971 61.1673 102.706 61.338L103.611 57.4418ZM100.413 57.0766C92.6342 57.0766 86.3286 63.3821 86.3286 71.1605H90.3286C90.3286 65.5913 94.8433 61.0766 100.413 61.0766V57.0766ZM86.3286 71.1605C86.3286 78.9388 92.6342 85.2444 100.413 85.2444V81.2444C94.8433 81.2444 90.3286 76.7296 90.3286 71.1605H86.3286ZM100.413 85.2444C100.467 85.2444 100.522 85.244 100.577 85.2434L100.531 81.2437C100.491 81.2441 100.452 81.2444 100.413 81.2444V85.2444ZM102.124 84.4818L102.125 84.481L98.9824 82.0061L98.9818 82.0069L102.124 84.4818ZM142.987 81.2444H100.553V85.2444H142.987V81.2444ZM140.987 83.2436V83.2444H144.987V83.2436H140.987Z" fill="url(#paint5_linear_1217_746)" mask="url(#path-5-inside-2_1217_746)"/>
</g>
</g>
<defs>
<filter id="filter0_bdd_1217_746" x="-3.4668" y="19.774" width="172.102" height="191.287" filterUnits="userSpaceOnUse" color-interpolation-filters="sRGB">
<feFlood flood-opacity="0" result="BackgroundImageFix"/>
<feGaussianBlur in="BackgroundImageFix" stdDeviation="7"/>
<feComposite in2="SourceAlpha" operator="in" result="effect1_backgroundBlur_1217_746"/>
<feColorMatrix in="SourceAlpha" type="matrix" values="0 0 0 0 0 0 0 0 0 0 0 0 0 0 0 0 0 0 127 0" result="hardAlpha"/>
<feOffset dx="-21" dy="15"/>
<feGaussianBlur stdDeviation="25"/>
<feComposite in2="hardAlpha" operator="out"/>
<feColorMatrix type="matrix" values="0 0 0 0 0.113438 0 0 0 0 0.148981 0 0 0 0 0.275 0 0 0 0.25 0"/>
<feBlend mode="normal" in2="effect1_backgroundBlur_1217_746" result="effect2_dropShadow_1217_746"/>
<feColorMatrix in="SourceAlpha" type="matrix" values="0 0 0 0 0 0 0 0 0 0 0 0 0 0 0 0 0 0 127 0" result="hardAlpha"/>
<feOffset/>
<feGaussianBlur stdDeviation="30.5"/>
<feComposite in2="hardAlpha" operator="out"/>
<feColorMatrix type="matrix" values="0 0 0 0 1 0 0 0 0 0.721569 0 0 0 0 0.00392157 0 0 0 0.49 0"/>
<feBlend mode="normal" in2="effect2_dropShadow_1217_746" result="effect3_dropShadow_1217_746"/>
<feBlend mode="normal" in="SourceGraphic" in2="effect3_dropShadow_1217_746" result="shape"/>
</filter>
<filter id="filter1_bd_1217_746" x="-34" y="3" width="192.547" height="162.606" filterUnits="userSpaceOnUse" color-interpolation-filters="sRGB">
<feFlood flood-opacity="0" result="BackgroundImageFix"/>
<feGaussianBlur in="BackgroundImageFix" stdDeviation="7"/>
<feComposite in2="SourceAlpha" operator="in" result="effect1_backgroundBlur_1217_746"/>
<feColorMatrix in="SourceAlpha" type="matrix" values="0 0 0 0 0 0 0 0 0 0 0 0 0 0 0 0 0 0 127 0" result="hardAlpha"/>
<feOffset dx="-21" dy="15"/>
<feGaussianBlur stdDeviation="25"/>
<feComposite in2="hardAlpha" operator="out"/>
<feColorMatrix type="matrix" values="0 0 0 0 0.113725 0 0 0 0 0.14902 0 0 0 0 0.27451 0 0 0 0.25 0"/>
<feBlend mode="normal" in2="effect1_backgroundBlur_1217_746" result="effect2_dropShadow_1217_746"/>
<feBlend mode="normal" in="SourceGraphic" in2="effect2_dropShadow_1217_746" result="shape"/>
</filter>
<filter id="filter2_bd_1217_746" x="17.3286" y="3" width="166.883" height="145.244" filterUnits="userSpaceOnUse" color-interpolation-filters="sRGB">
<feFlood flood-opacity="0" result="BackgroundImageFix"/>
<feGaussianBlur in="BackgroundImageFix" stdDeviation="7"/>
<feComposite in2="SourceAlpha" operator="in" result="effect1_backgroundBlur_1217_746"/>
<feColorMatrix in="SourceAlpha" type="matrix" values="0 0 0 0 0 0 0 0 0 0 0 0 0 0 0 0 0 0 127 0" result="hardAlpha"/>
<feOffset dx="-21" dy="15"/>
<feGaussianBlur stdDeviation="25"/>
<feComposite in2="hardAlpha" operator="out"/>
<feColorMatrix type="matrix" values="0 0 0 0 0.113438 0 0 0 0 0.148981 0 0 0 0 0.275 0 0 0 0.25 0"/>
<feBlend mode="normal" in2="effect1_backgroundBlur_1217_746" result="effect2_dropShadow_1217_746"/>
<feBlend mode="normal" in="SourceGraphic" in2="effect2_dropShadow_1217_746" result="shape"/>
</filter>
<linearGradient id="paint0_linear_1217_746" x1="92.4117" y1="85.0514" x2="82.6904" y2="127.242" gradientUnits="userSpaceOnUse">
<stop stop-color="#FF4D00"/>
<stop offset="1" stop-color="#FFB800"/>
</linearGradient>
<linearGradient id="paint1_linear_1217_746" x1="79.3851" y1="126.659" x2="97.078" y2="88.7455" gradientUnits="userSpaceOnUse">
<stop stop-color="white"/>
<stop offset="1" stop-color="white" stop-opacity="0"/>
</linearGradient>
<linearGradient id="paint2_linear_1217_746" x1="83.2737" y1="17.974" x2="83.2737" y2="109.355" gradientUnits="userSpaceOnUse">
<stop stop-color="white"/>
<stop offset="1" stop-color="white" stop-opacity="0"/>
</linearGradient>
<linearGradient id="paint3_linear_1217_746" x1="83.2737" y1="38" x2="83.2737" y2="100.606" gradientUnits="userSpaceOnUse">
<stop stop-color="white"/>
<stop offset="1" stop-color="white" stop-opacity="0"/>
</linearGradient>
<linearGradient id="paint4_linear_1217_746" x1="124.881" y1="39.361" x2="124.881" y2="88.3567" gradientUnits="userSpaceOnUse">
<stop stop-color="white"/>
<stop offset="1" stop-color="white" stop-opacity="0"/>
</linearGradient>
<linearGradient id="paint5_linear_1217_746" x1="121.77" y1="38" x2="121.77" y2="83.2444" gradientUnits="userSpaceOnUse">
<stop stop-color="white"/>
<stop offset="1" stop-color="white" stop-opacity="0"/>
</linearGradient>
<clipPath id="clip0_1217_746">
<rect width="192" height="192" fill="white"/>
</clipPath>
</defs>
</svg>
